<svg width="288" height="288" viewBox="0 0 288 288" fill="none" xmlns="http://www.w3.org/2000/svg">
<path d="M93.3201 12.32C93.3201 12.32 135.02 2.01996 210.5 10.11L199.61 25.19C199.61 25.19 213.82 84.96 195.37 131.49L202.75 151.72C202.75 151.72 95.5401 153.01 82.0601 148.59L91.2901 130.93C91.2901 130.93 77.6301 69.15 98.4901 27.4L93.3201 12.32Z" fill="#008C45" stroke="#006837" stroke-miterlimit="10"/>
<path d="M98.4898 27.3998C98.4898 27.3998 157.73 17.4698 199.62 25.1898L210.51 10.1098C210.51 10.1098 114.36 2.57979 93.3198 12.3198L98.4898 27.3998Z" fill="#006837" stroke="#008C45" stroke-miterlimit="10"/>
<path d="M93.3398 12.2898C93.3498 11.7198 102.32 9.27983 117.5 8.82983C124.9 8.60983 138.37 8.80983 147.03 8.64983C178.41 8.05983 209.82 9.37983 210.51 10.1198C210.73 8.85983 96.6298 2.67983 93.3498 12.2998L93.3398 12.2898Z" fill="#008C45" stroke="#008C45" stroke-miterlimit="10"/>
<path d="M195.28 131.59C195.28 131.59 133.11 138.69 91.2202 130.96L81.9702 148.69C81.9702 148.69 181.62 161.56 202.66 151.82L195.28 131.59Z" fill="#006837" stroke="#008C45" stroke-miterlimit="10"/>
<path d="M115.28 49.8396L116.02 45.9796C116.02 45.9796 107.53 45.7996 107.72 40.8296C107.9 36.0196 113.36 36.6096 115.29 35.6496L116.03 31.8196C116.03 31.8196 101.26 28.5296 100.98 41.0396C100.72 52.7896 118.25 50.2096 115.29 49.8396H115.28Z" fill="#006837"/>
<path d="M122.29 32.7405C122.29 32.7405 123.21 46.5305 121.37 49.1105L125.98 49.6605L126.72 45.2505L130.23 44.8805L131.03 49.6605H135.93C135.93 49.6605 135.77 33.1105 136.69 33.2905L130.78 33.1105L131.33 37.5205L126.72 37.7005V32.7305H122.29V32.7405Z" fill="#006837"/>
<path d="M142.41 33.4699C142.41 33.4699 143.15 49.4699 142.41 49.0999H149.05L148.68 32.9199L142.41 33.4699Z" fill="#006837"/>
<path d="M156.25 34.9404C156.25 34.9404 156.43 48.2604 156.25 49.1404C156.25 49.1404 159.76 51.4904 160.86 50.2004V44.7604C160.86 44.7604 170.82 44.1304 173.96 38.8004C177.1 33.4704 159.14 30.1604 156.86 34.3904C154.58 38.6204 156.24 34.9404 156.24 34.9404H156.25Z" fill="#006837"/>
<path d="M158.65 35.3096V40.2796C158.65 40.2796 166.59 39.7296 166.22 37.5196C165.85 35.3096 158.65 35.3096 158.65 35.3096Z" fill="#008C45"/>
<path d="M187.85 32.7398L188.36 36.0498C188.36 36.0498 185.78 36.0498 185.41 37.7098C185.04 39.3698 189.29 39.7298 189.29 44.8798C189.29 50.0298 183.56 51.7598 176.74 48.5098V45.8698C176.74 45.8698 181.72 46.9098 184.31 44.3398C184.31 44.3398 185.37 41.3998 182.46 40.6598C174.42 38.6198 181.36 32.4098 187.86 32.7498L187.85 32.7398Z" fill="#006837"/>
<path d="M120.03 64.3498L120.95 56.4898C120.95 56.4898 133.59 58.8398 137.49 61.6898L141.19 54.3398L148.59 63.1198L157.63 55.3598L162.97 60.2598L169.95 54.3398L174.07 60.2598L182.08 55.3598L177.77 65.5698L191.74 64.7498L179.82 79.0398L195.83 81.0798L186.6 89.2498L195.83 98.9798L184.13 103.54L188.24 114.16L169.95 118.24L166.05 124.36L154.63 122.3L141.71 127.89L126.81 123.54L114.89 127.01L115.71 120.07L104.82 119.25L107.49 113.33L98.4498 109.66L103.59 104.35L97.8398 94.5498L105.15 91.1098L98.4598 80.0498L107.5 75.3498L100.31 68.4098L109.14 64.9398L110.99 59.6698L120.03 64.3298V64.3498Z" fill="#8BC53F"/>
<path d="M122.85 68.05L123.68 60.97C123.68 60.97 135.03 63.08 138.54 65.66L141.86 59.04L148.5 66.95L156.62 59.96L161.42 64.37L167.69 59.04L171.39 64.37L178.59 59.96L174.71 69.16L187.26 68.42L176.56 81.29L190.94 83.13L182.65 90.49L190.94 99.26L180.43 103.37L184.12 112.93L167.7 116.61L164.19 122.13L153.93 120.28L142.32 125.32L128.94 121.4L118.24 124.53L118.98 118.28L109.2 117.54L111.6 112.21L103.48 108.9L108.09 104.12L102.92 95.29L109.48 92.19L103.47 82.23L111.59 78L105.13 71.75L113.07 68.62L114.73 63.87L122.85 68.07V68.05Z" fill="#006837"/>
<path d="M133.92 89.0203C136.262 89.0203 138.16 85.2729 138.16 80.6503C138.16 76.0277 136.262 72.2803 133.92 72.2803C131.578 72.2803 129.68 76.0277 129.68 80.6503C129.68 85.2729 131.578 89.0203 133.92 89.0203Z" fill="#1C1C1C" stroke="#8BC53F" stroke-miterlimit="10"/>
<path d="M158.28 87.9099C160.622 87.9099 162.52 84.1625 162.52 79.5399C162.52 74.9173 160.622 71.1699 158.28 71.1699C155.938 71.1699 154.04 74.9173 154.04 79.5399C154.04 84.1625 155.938 87.9099 158.28 87.9099Z" fill="#1C1C1C" stroke="#8BC53F" stroke-miterlimit="10"/>
<path d="M122.66 96.7402C122.66 96.7402 142.22 116.79 171.01 96.7402C171.01 96.7402 154.22 114.57 143.79 113.75C143.79 113.75 132.44 112.56 122.66 96.7402Z" fill="#1C1C1C" stroke="#8BC53F" stroke-miterlimit="10"/>
<g clip-path="url(#clip0_114_1366)">
<path d="M172.805 67.6555C172.805 67.6555 214.326 77.0483 277.54 117.802L261.17 126.355C261.17 126.355 247.086 185.774 209.981 218.906L207.488 240.158C207.488 240.158 111.991 193.632 102.031 183.718L118.075 172.136C118.075 172.136 133.562 111.172 170.653 83.3489L172.805 67.6555Z" fill="#669BBC" stroke="black" stroke-miterlimit="10"/>
<path d="M170.653 83.3499C170.653 83.3499 227.531 100.869 261.17 126.356L277.54 117.803C277.54 117.803 195.777 68.3497 172.805 67.6565L170.653 83.3499Z" fill="#003270" stroke="#0071BC" stroke-miterlimit="10"/>
<path d="M172.828 67.6337C173.092 67.1288 182.123 68.9559 195.756 75.2989C202.414 78.3964 214.246 84.5619 221.976 88.265C250.024 101.69 277.242 116.836 277.522 117.794C278.279 116.775 180.022 60.549 172.819 67.6292L172.828 67.6337Z" fill="#184270" stroke="#0071BC" stroke-miterlimit="10"/>
<path d="M209.86 218.947C209.86 218.947 151.656 197.606 118.012 172.127L101.915 183.771C101.915 183.771 184.399 239.518 207.372 240.212L209.864 218.96L209.86 218.947Z" fill="#003270" stroke="#0071BC" stroke-miterlimit="10"/>
<path d="M175.502 110.749L177.878 107.646C177.878 107.646 170.443 103.71 172.821 99.3766C175.127 95.1858 179.702 98.132 181.835 98.1402L184.197 95.063C184.197 95.063 172.582 85.5707 166.757 96.5664C161.283 106.887 177.955 112.395 175.502 110.749Z" fill="#006837"/>
<path d="M189.342 98.6771C189.342 98.6771 184.003 111.337 181.228 112.808L185.065 115.351L187.687 111.755L190.954 112.982L189.528 117.581L193.871 119.762C193.871 119.762 201.111 104.99 201.843 105.559L196.696 102.773L195.218 106.943L191.053 105.053L193.27 100.638L189.347 98.6682L189.342 98.6771Z" fill="#006837"/>
<path d="M206.825 108.274C206.825 108.274 200.337 122.819 199.851 122.161L205.731 125.114L212.63 110.574L206.825 108.274Z" fill="#006837"/>
<path d="M218.422 115.73C218.422 115.73 212.641 127.643 212.085 128.349C212.085 128.349 214.136 131.997 215.693 131.347L218.121 126.512C218.121 126.512 227.224 130.379 232.382 127.038C237.54 123.698 223.118 112.774 219.214 115.513C215.305 118.261 218.422 115.73 218.422 115.73Z" fill="#006837"/>
<path d="M220.382 117.13L218.165 121.544C218.165 121.544 225.436 124.58 226.097 122.462C226.749 120.339 220.378 117.139 220.378 117.139L220.382 117.13Z" fill="#669BBC"/>
<path d="M247.393 127.829L246.364 130.994C246.364 130.994 244.076 129.845 243.005 131.153C241.934 132.462 245.534 134.673 243.237 139.248C240.939 143.824 235.1 142.816 230.513 136.887L231.693 134.537C231.693 134.537 235.641 137.683 239.078 136.544C239.078 136.544 241.335 134.411 239.085 132.452C232.883 127.066 241.795 124.627 247.393 127.829Z" fill="#006837"/>
<path d="M173.24 125.749L177.567 119.183C177.567 119.183 187.71 126.884 189.894 131.159L196.445 126.269L199.078 137.36L210.545 134.491L213.087 141.217L221.905 139.054L222.908 146.149L232.189 145.36L223.818 152.514L236.549 158.002L219.618 165.4L232.889 174.337L221.068 177.487L224.901 190.243L212.511 189.09L211.413 200.345L193.398 195.841L187.207 199.546L178.006 192.643L164.064 191.863L152.817 181.369L140.714 179.152L144.535 173.35L135.256 167.783L140.267 163.709L133.899 156.426L140.817 153.992L140.094 142.73L148.099 142.923L147.106 130.126L157.209 129.974L153.943 120.613L163.311 121.457L167.298 117.595L173.227 125.754L173.24 125.749Z" fill="#8CC63F"/>
<path d="M174.082 130.29L177.974 124.367C177.974 124.367 187.076 131.288 189.037 135.137L194.93 130.734L197.283 140.711L207.587 138.108L209.861 144.163L217.789 142.214L218.69 148.597L227.032 147.874L219.499 154.318L230.934 159.244L215.717 165.926L227.63 173.956L217.004 176.8L220.436 188.281L209.303 187.256L208.305 197.397L192.123 193.366L186.563 196.706L178.309 190.502L165.784 189.818L155.685 180.382L144.816 178.404L148.26 173.173L139.928 168.172L144.434 164.504L138.726 157.955L144.941 155.762L144.306 145.618L151.497 145.782L150.614 134.261L159.688 134.107L156.76 125.676L165.18 126.424L168.773 122.947L174.086 130.281L174.082 130.29Z" fill="#003270"/>
<path d="M174.532 153.837C176.61 154.88 179.966 152.397 182.028 148.291C184.091 144.185 184.078 140.01 182 138.967C179.922 137.923 176.566 140.406 174.504 144.512C172.442 148.619 172.454 152.793 174.532 153.837Z" fill="#1C1C1C"/>
<path d="M196.585 163.692C198.663 164.736 202.019 162.253 204.081 158.146C206.143 154.04 206.131 149.865 204.053 148.822C201.975 147.779 198.619 150.261 196.557 154.368C194.494 158.474 194.507 162.649 196.585 163.692Z" fill="#1C1C1C"/>
<path d="M161.122 155.696C161.122 155.696 169.496 182.204 203.927 177.193C203.927 177.193 181.1 185.569 172.237 180.201C172.237 180.201 162.726 174.093 161.122 155.696Z" fill="#1C1C1C"/>
</g>
<g clip-path="url(#clip1_114_1366)">
<path d="M16.3814 138.602C16.3814 138.602 54.7104 119.215 130.085 110.185L122.853 127.323C122.853 127.323 150.102 182.385 142.554 231.867L154.282 249.928C154.282 249.928 50.0907 275.222 35.9629 273.937L40.9984 254.657C40.9984 254.657 13.8325 197.503 24.8008 152.139L16.3814 138.602Z" fill="#C1121F" stroke="#FF0000" stroke-miterlimit="10"/>
<path d="M24.8012 152.138C24.8012 152.138 80.3066 129.179 122.861 127.31L130.093 110.173C130.093 110.173 34.7023 124.392 16.3817 138.601L24.8012 152.138Z" fill="#7B272D" stroke="#FF9A94" stroke-miterlimit="10"/>
<path d="M16.3944 138.567C16.2763 138.01 24.4709 133.621 39.1636 129.779C46.3258 127.905 59.4978 125.08 67.9014 122.982C98.3503 115.372 129.257 109.616 130.095 110.182C130.027 108.905 17.446 128.464 16.4064 138.575L16.3944 138.567Z" fill="#FFD4D4" stroke="#FF9494" stroke-miterlimit="10"/>
<path d="M142.487 231.975C142.487 231.975 83.4916 252.833 40.9349 254.692L35.8956 274.044C35.8956 274.044 135.894 264.244 154.215 250.035L142.487 231.975Z" fill="#8F272D" stroke="#FFB4B4" stroke-miterlimit="10"/>
<path d="M46.1945 170.243L46.0502 166.316C46.0502 166.316 37.736 168.044 36.8069 163.158C35.9039 158.43 41.3571 157.78 43.0228 156.412L42.8852 152.514C42.8852 152.514 27.7536 152.619 30.2855 164.873C32.6666 176.383 49.1719 169.938 46.2043 170.241L46.1945 170.243Z" fill="#FF9F9F"/>
<path d="M49.1923 152.007C49.1923 152.007 53.1807 165.239 51.966 168.166L56.5819 167.669L56.3143 163.205L59.652 162.057L61.5034 166.536L66.2786 165.438C66.2786 165.438 62.4121 149.345 63.349 149.314L57.5491 150.464L59.0738 154.638L54.6216 155.847L53.5073 151.004L49.19 151.997L49.1923 152.007Z" fill="#FF9494"/>
<path d="M68.9636 148.207C68.9636 148.207 73.2721 163.634 72.468 163.439L78.939 161.95L74.9507 146.265L68.9636 148.207Z" fill="#FF9494"/>
<path d="M82.7808 146.536C82.7808 146.536 85.9427 159.477 85.9646 160.375C85.9646 160.375 89.9121 161.878 90.6949 160.374L89.4752 155.073C89.4752 155.073 99.0404 152.226 100.905 146.327C102.77 140.429 84.5256 141.23 83.252 145.864C81.9784 150.497 82.7711 146.539 82.7711 146.539L82.7808 146.536Z" fill="#FF908A"/>
<path d="M85.2026 146.358L86.3169 151.202C86.3169 151.202 93.9315 148.886 93.0754 146.815C92.2193 144.744 85.2026 146.358 85.2026 146.358Z" fill="#C1272D"/>
<path d="M113.083 137.307L114.322 140.419C114.322 140.419 111.808 140.997 111.82 142.698C111.831 144.399 116.054 143.797 117.209 148.815C118.363 153.834 113.167 156.805 105.792 155.167L105.2 152.594C105.2 152.594 110.286 152.491 112.234 149.406C112.234 149.406 112.608 146.303 109.606 146.234C101.314 146.049 106.685 138.441 113.095 137.315L113.083 137.307Z" fill="#FF9F9F"/>
<path d="M54.0769 183.318L53.2112 175.452C53.2112 175.452 66.0563 174.908 70.496 176.811L72.4539 168.819L81.634 175.716L88.7041 166.127L95.0067 169.705L100.482 162.371L105.824 167.216L112.532 160.645L110.62 171.561L124.051 167.63L115.638 184.229L131.698 182.627L124.535 192.659L135.711 200.072L125.332 207.139L131.718 216.567L114.809 224.644L112.38 231.482L100.789 232.035L89.4511 240.38L73.9551 239.481L63.1166 245.535L62.3597 238.588L51.5631 240.231L52.8378 233.863L43.2051 232.313L47.0237 225.986L39.2229 217.724L45.5755 212.733L36.5761 203.455L44.3322 196.847L35.7692 191.696L43.5964 186.335L44.2178 180.784L54.0724 183.299L54.0769 183.318Z" fill="#4F0024"/>
<path d="M57.6546 186.292L56.8761 179.206C56.8761 179.206 68.4102 178.717 72.4093 180.445L74.1606 173.249L82.405 179.469L88.7511 170.836L94.4176 174.058L99.333 167.458L104.134 171.822L110.162 165.91L108.443 175.746L120.508 172.211L112.966 187.152L127.392 185.722L120.963 194.753L131.009 201.441L121.688 207.803L127.427 216.292L112.25 223.56L110.067 229.726L99.6537 230.224L89.4693 237.738L75.551 236.918L65.8252 242.367L65.1451 236.111L55.4481 237.582L56.592 231.85L47.9366 230.445L51.3575 224.753L44.3394 217.307L50.0374 212.815L41.9473 204.456L48.9122 198.513L41.2153 193.87L48.2514 189.04L48.8042 184.039L57.6591 186.311L57.6546 186.292Z" fill="#ED1C24"/>
<path d="M73.1446 204.246C75.4266 203.721 76.4364 199.643 75.4 195.138C74.3636 190.634 71.6734 187.407 69.3913 187.932C67.1093 188.457 66.0995 192.535 67.1359 197.04C68.1723 201.545 70.8625 204.771 73.1446 204.246Z" fill="#1C1C1C" stroke="#FFC9C9" stroke-miterlimit="10"/>
<path d="M96.6353 197.703C98.9173 197.178 99.9271 193.1 98.8907 188.595C97.8543 184.091 95.1641 180.864 92.8821 181.389C90.6 181.914 89.5902 185.992 90.6266 190.497C91.663 195.002 94.3532 198.228 96.6353 197.703Z" fill="#1C1C1C" stroke="#FFC9C9" stroke-miterlimit="10"/>
<path d="M63.9019 214.294C63.9019 214.294 87.4592 229.448 111.021 203.454C111.021 203.454 98.656 224.594 88.3077 226.133C88.3077 226.133 76.9798 227.518 63.9019 214.294Z" fill="#1C1C1C" stroke="#FFC9C9" stroke-miterlimit="10"/>
</g>
<defs>
<clipPath id="clip0_114_1366">
<rect width="140" height="160" fill="white" transform="translate(162.805 50) rotate(26.6656)"/>
</clipPath>
<clipPath id="clip1_114_1366">
<rect width="135" height="160" fill="white" transform="translate(0 131.268) rotate(-12.9562)"/>
</clipPath>
</defs>
</svg>
