<svg width="200" height="170" viewBox="0 0 200 170" fill="none" xmlns="http://www.w3.org/2000/svg">
<path d="M6.87988 160.06C6.87988 160.06 61.2199 61.5896 80.5299 65.2696C80.5299 65.2696 91.5399 62.1296 96.0199 69.8596C100.51 77.5896 107.06 80.0496 107.47 86.9396C107.92 94.6496 18.3299 166.84 6.87988 160.06Z" fill="#F6921E" stroke="#F6921E" stroke-miterlimit="10"/>
<path d="M104.99 60.5402C104.99 60.5402 102.3 63.5802 102.3 55.4002C102.3 55.4002 90.2001 59.1702 90.8501 39.5102C91.0701 32.7402 87.0301 33.6702 87.0301 33.6702C87.0301 33.6702 78.9501 35.0702 82.9901 29.9302C87.0301 24.7902 81.6901 26.1802 90.7601 18.4802C99.8301 10.7802 107.47 23.4402 107.47 23.4402C107.47 23.4402 115.38 11.1702 128.83 16.0002C128.83 16.0002 137.96 10.0702 137.43 18.4902C137.43 18.4902 143.4 17.3302 144.75 22.7002C144.75 22.7002 150.14 10.0802 153.39 18.4902C153.39 18.4902 153.3 10.3902 157.89 13.9802C157.89 13.9802 161.26 2.95024 160.75 10.1402C160.75 10.1402 165.78 3.11024 165.26 10.1002C165.26 10.1002 178.65 10.5502 177.08 15.6902C177.08 15.6902 186.96 10.3202 186.96 14.9902C186.96 14.9902 200.55 12.4202 188.59 27.2502C188.59 27.2502 176.69 29.9802 180.81 36.5002C180.81 36.5002 172.14 45.5902 168.1 41.3802C168.1 41.3802 169.03 53.2902 163.62 53.0602C158.22 52.8302 158.3 57.5402 158.3 57.5402C158.3 57.5402 160.46 66.1502 153.05 68.4802C153.05 68.4802 154.56 82.2102 145.61 80.0202C145.61 80.0202 139.86 83.2002 141.52 89.7402C143.17 96.2802 130.88 89.7402 130.88 89.7402C130.88 89.7402 125.56 105.13 122.69 100.47C119.82 95.8102 122.51 68.2502 116.9 75.0202C111.29 81.7902 109.18 72.3802 109.18 72.3802L100.97 76.2602L96.0201 69.8502C96.0201 69.8502 107.69 65.6702 105 60.5302L104.99 60.5402Z" fill="#006837" stroke="#006837" stroke-miterlimit="10"/>
<path d="M142.27 55.3999C142.27 55.3999 161.95 51.5599 164.79 48.6499C167.63 45.7399 170 42.5499 168.09 41.3799C164.27 39.0399 173.25 53.5299 142.27 55.3999Z" stroke="#009145" stroke-width="2" stroke-miterlimit="10"/>
<path d="M142.27 27.4502C142.27 27.4502 142.64 38.1902 137.68 40.0802C132.72 41.9702 134.53 48.2702 134.53 48.2702C134.53 48.2702 106.56 72.6202 104.38 71.9002C104.38 71.9002 114.73 52.8302 120.52 39.8802C120.78 39.2902 121.03 38.7202 121.28 38.1602C123.55 32.9102 124.87 28.9802 124.09 28.3002" stroke="#009145" stroke-width="2" stroke-miterlimit="10"/>
<path d="M174.04 24.2197C174.04 24.2197 95.0298 71.3397 100.97 76.2797C103.9 78.7197 98.7098 62.8797 142.27 55.4097" stroke="#009145" stroke-width="2" stroke-miterlimit="10"/>
<path d="M157.13 24.2197C157.13 24.2197 147.76 34.0297 149.33 37.2997" stroke="#009145" stroke-width="2" stroke-miterlimit="10"/>
<path d="M161.35 38.3496C161.35 38.3496 148.33 44.1896 147.2 42.7896" stroke="#009145" stroke-width="2" stroke-miterlimit="10"/>
<path d="M139.01 69.54C139.01 69.54 127.13 59.19 100.96 76.28" stroke="#009145" stroke-width="2" stroke-miterlimit="10"/>
<path d="M127.06 67.4805C127.06 67.4805 131.38 67.6705 129.58 72.8105" stroke="#009145" stroke-width="2" stroke-miterlimit="10"/>
<path d="M142.27 62.6201L134.72 66.4301" stroke="#009145" stroke-width="2" stroke-miterlimit="10"/>
<path d="M122.62 73.98C122.62 73.98 125.21 70.06 119.99 70.15" stroke="#009145" stroke-width="2" stroke-miterlimit="10"/>
<path d="M112.3 30.7598C112.3 30.7598 113.82 41.3698 118.84 40.6798" stroke="#009145" stroke-miterlimit="10"/>
<path d="M106.88 43.0098C106.88 43.0098 107.26 57.5098 110.62 55.4098" stroke="#009145" stroke-miterlimit="10"/>
<path d="M125.65 45.8301C125.65 45.8301 122.11 53.1501 115.57 50.3101" stroke="#009145" stroke-miterlimit="10"/>
<path d="M62.96 76.3096C62.96 76.3096 69.3 87.6396 72.66 85.9996" stroke="#FAAF3B" stroke-miterlimit="10"/>
<path d="M41.9902 103.14C41.9902 103.14 46.8402 113.93 49.4202 112.37" stroke="#FAAF3B" stroke-miterlimit="10"/>
<path d="M49.3999 93.3301C49.3999 93.3301 54.5499 104.39 57.2799 102.79" stroke="#FAAF3B" stroke-miterlimit="10"/>
<path d="M55.9102 84.6797C55.9102 84.6797 62.2502 96.0097 65.6102 94.3697" stroke="#FAAF3B" stroke-miterlimit="10"/>
<path d="M32.75 116.49C32.75 116.49 36.31 126.43 38.2 125" stroke="#FAAF3B" stroke-miterlimit="10"/>
<path d="M24.6499 130.92C24.6499 130.92 28.2099 140.86 30.0999 139.43" stroke="#FAAF3B" stroke-miterlimit="10"/>
</svg>
