<svg width="187" height="195" viewBox="0 0 187 195" fill="none" xmlns="http://www.w3.org/2000/svg">
<g opacity="0.6">
<path d="M169.455 102.05C173.081 141.684 139.535 176.557 100.801 175.923C62.084 175.289 28.0988 141.765 24.001 103.35C19.9033 64.9353 56.4902 28.9903 96.2318 29.3315C135.973 29.6728 165.828 62.4003 169.455 102.034V102.05Z" fill="#C1121F"/>
</g>
<path d="M164.836 97.7596C168.463 137.393 134.916 172.266 96.183 171.632C57.4659 170.998 23.4807 137.475 19.3829 99.0596C15.3014 60.6608 51.8884 24.7158 91.63 25.0571C131.372 25.3983 161.226 58.1258 164.853 97.7596H164.836Z" fill="#FCEE21"/>
<path d="M39.3188 103.447C39.3188 103.447 82.215 154.261 145.372 103.447C145.372 103.447 108.541 148.655 85.6623 146.559C85.6623 146.559 60.7669 143.536 39.3188 103.447Z" fill="#1C1C1C"/>
<path d="M66.3116 98.589C72.0233 98.589 76.6536 88.7891 76.6536 76.7003C76.6536 64.6115 72.0233 54.8115 66.3116 54.8115C60.6 54.8115 55.9697 64.6115 55.9697 76.7003C55.9697 88.7891 60.6 98.589 66.3116 98.589Z" fill="#1C1C1C"/>
<path d="M110.704 98.589C116.416 98.589 121.046 88.7891 121.046 76.7003C121.046 64.6115 116.416 54.8115 110.704 54.8115C104.993 54.8115 100.362 64.6115 100.362 76.7003C100.362 88.7891 104.993 98.589 110.704 98.589Z" fill="#1C1C1C"/>
</svg>
