<svg width="1099" height="527" viewBox="0 0 1099 527" fill="none" xmlns="http://www.w3.org/2000/svg">
<path d="M19.12 10.28C19.12 10.8667 18.9467 11.16 18.6 11.16H5.56V19.88H13.36C13.6267 19.88 13.8267 20.1733 13.96 20.76C13.96 21.3467 13.7733 21.64 13.4 21.64H5.6V32.28C5.6 32.84 5.32 33.12 4.76 33.12C4.17333 33.12 3.88 32.84 3.88 32.28V10.28C3.88 9.72 4.24 9.44 4.96 9.44H18.56C18.9333 9.44 19.12 9.72 19.12 10.28ZM41.9678 32.08C41.9678 32.6933 41.5945 33 40.8478 33H28.1278C27.4078 33 27.0478 32.68 27.0478 32.04C27.0478 31.5067 27.4078 31.24 28.1278 31.24H33.6878V11.16L28.1278 11.2C27.4078 11.2 27.0478 10.88 27.0478 10.24C27.0478 9.70667 27.4078 9.44 28.1278 9.44H40.8878C41.6078 9.44 41.9678 9.70667 41.9678 10.24C41.9678 10.8533 41.5945 11.16 40.8478 11.16H35.4478V31.24H40.8478C41.5945 31.24 41.9678 31.52 41.9678 32.08ZM67.5356 24.2C67.4823 24.7333 67.1623 25.7467 66.5756 27.24C64.8956 31.5333 62.0156 33.68 57.9356 33.68C54.9756 33.68 52.469 32.4133 50.4156 29.88C48.4956 27.5067 47.5356 24.8133 47.5356 21.8C47.5356 18.44 48.2823 15.52 49.7756 13.04C51.5623 10.1067 54.029 8.64 57.1756 8.64C59.869 8.64 62.1623 9.6 64.0556 11.52C64.0556 10.56 64.0556 10.08 64.0556 10.08C64.1356 9.49333 64.4156 9.2 64.8956 9.2C65.4556 9.2 65.7356 9.58667 65.7356 10.36V15.12C65.7356 15.36 65.6423 15.6 65.4556 15.84C65.2956 16.08 65.109 16.2 64.8956 16.2C64.3623 16.2 64.0823 15.8533 64.0556 15.16C64.029 14.04 63.4556 13.0267 62.3356 12.12C60.8956 10.9467 59.1756 10.36 57.1756 10.36C54.4556 10.36 52.3623 11.6 50.8956 14.08C49.6956 16.1067 49.0956 18.5867 49.0956 21.52C49.0956 24.0267 49.9223 26.3467 51.5756 28.48C53.3623 30.7733 55.4823 31.92 57.9356 31.92C59.9356 31.92 61.6956 31.12 63.2156 29.52C64.6023 28.08 65.5223 26.3067 65.9756 24.2L60.0556 24.24C59.3623 24.24 59.0156 23.9733 59.0156 23.44C59.0156 22.88 59.3623 22.6 60.0556 22.6L66.3756 22.56C66.909 22.56 67.2556 22.72 67.4156 23.04C67.4956 23.2267 67.5356 23.6133 67.5356 24.2ZM89.9834 32.28C89.9834 32.84 89.6901 33.12 89.1034 33.12C88.5434 33.12 88.2634 32.84 88.2634 32.28V11.16H87.9034L81.5434 25.92C81.3834 26.2667 81.0634 26.44 80.5834 26.44C80.0768 26.44 79.7301 26.2667 79.5434 25.92L73.0634 11.16H72.7834V32.28C72.7834 32.84 72.5034 33.12 71.9434 33.12C71.3568 33.12 71.0634 32.84 71.0634 32.28V9.44C71.0634 8.88 71.4901 8.58667 72.3434 8.56C73.2501 8.53333 73.8368 8.82666 74.1034 9.44L80.5434 23.96L86.8234 9.44C87.0901 8.85333 87.6901 8.56 88.6234 8.56C89.5301 8.56 89.9834 8.85333 89.9834 9.44V32.28ZM113.711 33.16C113.738 33.3733 113.511 33.48 113.031 33.48C112.418 33.48 112.045 33.3067 111.911 32.96L109.071 25.12H97.9913L95.0713 33C94.9379 33.3467 94.5913 33.52 94.0313 33.52C93.5513 33.52 93.3113 33.3867 93.3113 33.12C93.3113 33.0133 96.2579 25.1067 102.151 9.4C102.338 8.92 102.791 8.68 103.511 8.68C104.258 8.68 104.725 8.93333 104.911 9.44L113.671 32.96C113.698 33.0133 113.711 33.08 113.711 33.16ZM108.511 23.36L103.831 11.16H103.191L98.5913 23.36H108.511Z" fill="#9B0823"/>
<line x1="520" y1="21" x2="606.027" y2="21" stroke="#BF0A2B" stroke-width="10" stroke-linecap="round"/>
<line x1="1007" y1="21" x2="1093.03" y2="21" stroke="#BF0A2B" stroke-opacity="0.15" stroke-width="10" stroke-linecap="round"/>
<line x1="882" y1="21" x2="968.027" y2="21" stroke="#BF0A2B" stroke-opacity="0.15" stroke-width="10" stroke-linecap="round"/>
<line x1="762" y1="21" x2="848.027" y2="21" stroke="#BF0A2B" stroke-opacity="0.15" stroke-width="10" stroke-linecap="round"/>
<line x1="645" y1="21" x2="731.027" y2="21" stroke="#BF0A2B" stroke-width="10" stroke-linecap="round"/>
<path d="M21.68 144.16C21.7067 144.373 21.48 144.48 21 144.48C20.3867 144.48 20.0133 144.307 19.88 143.96L17.04 136.12H5.96L3.04 144C2.90667 144.347 2.56 144.52 2 144.52C1.52 144.52 1.28 144.387 1.28 144.12C1.28 144.013 4.22667 136.107 10.12 120.4C10.3067 119.92 10.76 119.68 11.48 119.68C12.2267 119.68 12.6933 119.933 12.88 120.44L21.64 143.96C21.6667 144.013 21.68 144.08 21.68 144.16ZM16.48 134.36L11.8 122.16H11.16L6.56 134.36H16.48ZM43.2878 133.48C43.2878 136.173 42.3411 138.6 40.4478 140.76C38.5545 142.92 36.2611 144 33.5678 144H27.0078C26.6611 144 26.3411 143.947 26.0478 143.84C25.8345 143.413 25.7278 143.16 25.7278 143.08L25.8078 126.04C25.7811 124.413 25.7678 122.733 25.7678 121C25.9011 120.467 26.2878 120.2 26.9278 120.2H33.4878C36.2345 120.2 38.5545 121.267 40.4478 123.4C42.3411 125.507 43.2878 127.947 43.2878 130.72V133.48ZM41.5278 133.64L41.5678 130.48C41.5945 128.32 40.8345 126.36 39.2878 124.6C37.7411 122.813 35.8878 121.92 33.7278 121.92H27.5278L27.4478 142.2C28.1411 142.2 29.1811 142.2 30.5678 142.2C31.9545 142.227 32.9945 142.24 33.6878 142.24C35.7678 142.24 37.6078 141.32 39.2078 139.48C40.7278 137.72 41.5011 135.773 41.5278 133.64ZM67.3756 132.28C67.3756 135.48 66.549 138.267 64.8956 140.64C63.029 143.307 60.5623 144.64 57.4956 144.64C54.509 144.64 52.0823 143.28 50.2156 140.56C48.5356 138.16 47.6956 135.4 47.6956 132.28C47.6956 129.107 48.5223 126.333 50.1756 123.96C52.0423 121.267 54.509 119.92 57.5756 119.92C60.509 119.92 62.9223 121.28 64.8156 124C66.5223 126.427 67.3756 129.187 67.3756 132.28ZM65.6956 132.28C65.6956 129.56 65.029 127.173 63.6956 125.12C62.149 122.72 60.0956 121.52 57.5356 121.52C55.029 121.52 53.0023 122.72 51.4556 125.12C50.0423 127.253 49.349 129.64 49.3756 132.28C49.4023 135.427 50.229 138 51.8556 140C53.509 142 55.4023 143 57.5356 143C60.0423 143 62.069 141.813 63.6156 139.44C65.0023 137.333 65.6956 134.947 65.6956 132.28ZM89.1434 137.56C89.1434 139.373 88.4501 140.907 87.0634 142.16C85.6768 143.387 84.0768 144 82.2634 144H73.0234C72.3834 144 71.9968 143.707 71.8634 143.12C71.8634 143.12 71.8634 142.187 71.8634 140.32L71.9034 121.28C71.9034 120.72 72.2501 120.44 72.9434 120.44H80.2634C82.0501 120.44 83.6501 120.987 85.0634 122.08C86.5834 123.28 87.3434 124.747 87.3434 126.48C87.3701 128.56 86.2634 130.253 84.0234 131.56C87.4634 132.76 89.1701 134.76 89.1434 137.56ZM87.3834 137.6C87.3834 135.227 85.9034 133.707 82.9434 133.04C81.7168 132.773 79.3301 132.64 75.7834 132.64C75.2501 132.64 74.9968 132.347 75.0234 131.76C75.0501 131.227 75.3168 130.96 75.8234 130.96C78.8101 130.987 80.8634 130.853 81.9834 130.56C84.4101 129.947 85.6234 128.547 85.6234 126.36C85.6234 125.08 85.0234 124.04 83.8234 123.24C82.7834 122.52 81.5834 122.16 80.2234 122.16H73.5034V142.24H82.1034C83.5168 142.24 84.7434 141.813 85.7834 140.96C86.8501 140.08 87.3834 138.96 87.3834 137.6ZM111.551 143.12C111.551 143.707 111.378 144 111.031 144H96.5513C95.8579 144 95.5113 143.693 95.5113 143.08V121.28C95.5113 120.72 95.8446 120.44 96.5113 120.44H111.031C111.378 120.44 111.551 120.72 111.551 121.28C111.551 121.867 111.378 122.16 111.031 122.16H97.1913V130.88H104.951C105.245 130.88 105.431 131.173 105.511 131.76C105.511 132.347 105.338 132.64 104.991 132.64H97.1913V142.24L111.031 142.28C111.378 142.28 111.551 142.56 111.551 143.12ZM157.007 143.08C157.007 143.693 156.634 144 155.887 144H143.167C142.447 144 142.087 143.68 142.087 143.04C142.087 142.507 142.447 142.24 143.167 142.24H148.727V122.16L143.167 122.2C142.447 122.2 142.087 121.88 142.087 121.24C142.087 120.707 142.447 120.44 143.167 120.44H155.927C156.647 120.44 157.007 120.707 157.007 121.24C157.007 121.853 156.634 122.16 155.887 122.16H150.487V142.24H155.887C156.634 142.24 157.007 142.52 157.007 143.08ZM180.175 143.12C180.175 143.707 180.001 144 179.655 144H166.095C165.375 144 165.015 143.693 165.015 143.08L164.935 120.88C164.935 120.32 165.228 120.04 165.815 120.04C166.401 120.04 166.695 120.32 166.695 120.88V142.24L179.615 142.28C179.988 142.28 180.175 142.56 180.175 143.12ZM203.183 143.12C203.183 143.707 203.009 144 202.663 144H189.103C188.383 144 188.023 143.693 188.023 143.08L187.943 120.88C187.943 120.32 188.236 120.04 188.823 120.04C189.409 120.04 189.703 120.32 189.703 120.88V142.24L202.623 142.28C202.996 142.28 203.183 142.56 203.183 143.12ZM226.75 136.28C226.75 138.627 225.977 140.613 224.43 142.24C222.884 143.867 220.937 144.68 218.59 144.68C216.244 144.68 214.284 143.88 212.71 142.28C211.164 140.653 210.39 138.653 210.39 136.28V120.84C210.39 120.307 210.684 120.04 211.27 120.04C211.83 120.04 212.11 120.32 212.11 120.88L212.07 136.28C212.07 138.12 212.684 139.693 213.91 141C215.137 142.307 216.684 142.96 218.55 142.96C220.337 142.96 221.857 142.307 223.11 141C224.364 139.667 224.99 138.093 224.99 136.28V120.88C224.99 120.32 225.284 120.04 225.87 120.04C226.457 120.04 226.75 120.32 226.75 120.88V136.28ZM249.998 137.6C249.998 139.84 249.145 141.613 247.438 142.92C245.891 144.093 243.958 144.68 241.638 144.68C239.531 144.68 237.638 144.12 235.958 143C234.091 141.72 233.158 140.08 233.158 138.08C233.158 137.28 233.425 136.88 233.958 136.88C234.198 136.88 234.358 136.973 234.438 137.16C234.518 137.24 234.665 137.773 234.878 138.76C235.118 139.72 235.678 140.587 236.558 141.36C237.731 142.4 239.425 142.933 241.638 142.96C243.398 142.987 244.931 142.533 246.238 141.6C247.678 140.56 248.398 139.2 248.398 137.52C248.398 135.707 247.585 134.4 245.958 133.6C245.211 133.227 243.625 132.827 241.198 132.4C236.398 131.547 234.011 129.413 234.038 126C234.038 124 234.798 122.387 236.318 121.16C237.731 120.013 239.451 119.44 241.478 119.44C243.265 119.44 244.945 120 246.518 121.12C248.225 122.32 249.078 123.773 249.078 125.48C249.078 126.253 248.825 126.64 248.318 126.64C247.998 126.64 247.785 126.547 247.678 126.36C247.651 126.333 247.545 125.867 247.358 124.96C247.171 124.053 246.638 123.24 245.758 122.52C244.611 121.587 243.225 121.12 241.598 121.12C240.025 121.12 238.665 121.547 237.518 122.4C236.265 123.333 235.638 124.56 235.638 126.08C235.638 126.72 235.785 127.32 236.078 127.88C236.718 129.08 237.958 129.92 239.798 130.4C241.478 130.747 243.158 131.08 244.838 131.4C246.785 131.933 248.171 132.867 248.998 134.2C249.665 135.267 249.998 136.4 249.998 137.6ZM274.566 121.28C274.566 121.867 274.393 122.16 274.046 122.16H265.486V143.28C265.486 143.84 265.193 144.12 264.606 144.12C264.019 144.12 263.726 143.84 263.726 143.28V122.16H255.126C254.779 122.16 254.606 121.88 254.606 121.32C254.606 120.733 254.779 120.44 255.126 120.44H274.006C274.299 120.44 274.486 120.72 274.566 121.28ZM297.254 143.08C297.254 143.747 296.64 144.08 295.414 144.08C295.36 144.08 294.854 144.04 293.894 143.96C292.294 141.133 291.067 139.16 290.214 138.04C288.64 135.933 286.907 134.427 285.014 133.52H281.894C281.334 133.52 281.067 133.227 281.094 132.64C281.12 132.053 281.387 131.76 281.894 131.76H284.294C285.974 131.76 287.56 131.36 289.054 130.56C290.84 129.6 291.734 128.347 291.734 126.8C291.734 125.467 291.08 124.333 289.774 123.4C288.574 122.573 287.267 122.16 285.854 122.16H279.614V143.28C279.614 143.84 279.334 144.12 278.774 144.12C278.214 144.12 277.934 143.84 277.934 143.28V121.28C277.934 120.72 278.307 120.44 279.054 120.44H285.974C287.814 120.44 289.494 121.04 291.014 122.24C292.614 123.547 293.414 125.107 293.414 126.92C293.414 129.64 291.48 131.667 287.614 133C289.054 134.013 290.414 135.427 291.694 137.24C292.254 138.04 293.294 139.733 294.814 142.32C294.92 142.32 295.08 142.307 295.294 142.28C295.507 142.28 295.654 142.28 295.734 142.28C296.747 142.28 297.254 142.547 297.254 143.08ZM320.782 144.16C320.808 144.373 320.582 144.48 320.102 144.48C319.488 144.48 319.115 144.307 318.982 143.96L316.142 136.12H305.062L302.142 144C302.008 144.347 301.662 144.52 301.102 144.52C300.622 144.52 300.382 144.387 300.382 144.12C300.382 144.013 303.328 136.107 309.222 120.4C309.408 119.92 309.862 119.68 310.582 119.68C311.328 119.68 311.795 119.933 311.982 120.44L320.742 143.96C320.768 144.013 320.782 144.08 320.782 144.16ZM315.582 134.36L310.902 122.16H310.262L305.662 134.36H315.582ZM343.589 121.28C343.589 121.867 343.416 122.16 343.069 122.16H334.509V143.28C334.509 143.84 334.216 144.12 333.629 144.12C333.043 144.12 332.749 143.84 332.749 143.28V122.16H324.149C323.803 122.16 323.629 121.88 323.629 121.32C323.629 120.733 323.803 120.44 324.149 120.44H343.029C343.323 120.44 343.509 120.72 343.589 121.28ZM366.477 132.28C366.477 135.48 365.651 138.267 363.997 140.64C362.131 143.307 359.664 144.64 356.597 144.64C353.611 144.64 351.184 143.28 349.317 140.56C347.637 138.16 346.797 135.4 346.797 132.28C346.797 129.107 347.624 126.333 349.277 123.96C351.144 121.267 353.611 119.92 356.677 119.92C359.611 119.92 362.024 121.28 363.917 124C365.624 126.427 366.477 129.187 366.477 132.28ZM364.797 132.28C364.797 129.56 364.131 127.173 362.797 125.12C361.251 122.72 359.197 121.52 356.637 121.52C354.131 121.52 352.104 122.72 350.557 125.12C349.144 127.253 348.451 129.64 348.477 132.28C348.504 135.427 349.331 138 350.957 140C352.611 142 354.504 143 356.637 143C359.144 143 361.171 141.813 362.717 139.44C364.104 137.333 364.797 134.947 364.797 132.28ZM389.285 143.08C389.285 143.747 388.672 144.08 387.445 144.08C387.392 144.08 386.885 144.04 385.925 143.96C384.325 141.133 383.098 139.16 382.245 138.04C380.672 135.933 378.938 134.427 377.045 133.52H373.925C373.365 133.52 373.098 133.227 373.125 132.64C373.152 132.053 373.418 131.76 373.925 131.76H376.325C378.005 131.76 379.592 131.36 381.085 130.56C382.872 129.6 383.765 128.347 383.765 126.8C383.765 125.467 383.112 124.333 381.805 123.4C380.605 122.573 379.298 122.16 377.885 122.16H371.645V143.28C371.645 143.84 371.365 144.12 370.805 144.12C370.245 144.12 369.965 143.84 369.965 143.28V121.28C369.965 120.72 370.338 120.44 371.085 120.44H378.005C379.845 120.44 381.525 121.04 383.045 122.24C384.645 123.547 385.445 125.107 385.445 126.92C385.445 129.64 383.512 131.667 379.645 133C381.085 134.013 382.445 135.427 383.725 137.24C384.285 138.04 385.325 139.733 386.845 142.32C386.952 142.32 387.112 142.307 387.325 142.28C387.538 142.28 387.685 142.28 387.765 142.28C388.778 142.28 389.285 142.547 389.285 143.08Z" fill="#9B0823"/>
<line x1="520" y1="136" x2="606.027" y2="136" stroke="#BF0A2B" stroke-width="10" stroke-linecap="round"/>
<line x1="1007" y1="136" x2="1093.03" y2="136" stroke="#BF0A2B" stroke-opacity="0.15" stroke-width="10" stroke-linecap="round"/>
<line x1="882" y1="136" x2="968.027" y2="136" stroke="#BF0A2B" stroke-opacity="0.15" stroke-width="10" stroke-linecap="round"/>
<line x1="762" y1="136" x2="848.027" y2="136" stroke="#BF0A2B" stroke-opacity="0.15" stroke-width="10" stroke-linecap="round"/>
<line x1="645" y1="136" x2="731.027" y2="136" stroke="#BF0A2B" stroke-opacity="0.15" stroke-width="10" stroke-linecap="round"/>
<path d="M21.68 391.16C21.7067 391.373 21.48 391.48 21 391.48C20.3867 391.48 20.0133 391.307 19.88 390.96L17.04 383.12H5.96L3.04 391C2.90667 391.347 2.56 391.52 2 391.52C1.52 391.52 1.28 391.387 1.28 391.12C1.28 391.013 4.22667 383.107 10.12 367.4C10.3067 366.92 10.76 366.68 11.48 366.68C12.2267 366.68 12.6933 366.933 12.88 367.44L21.64 390.96C21.6667 391.013 21.68 391.08 21.68 391.16ZM16.48 381.36L11.8 369.16H11.16L6.56 381.36H16.48ZM43.2878 380.48C43.2878 383.173 42.3411 385.6 40.4478 387.76C38.5545 389.92 36.2611 391 33.5678 391H27.0078C26.6611 391 26.3411 390.947 26.0478 390.84C25.8345 390.413 25.7278 390.16 25.7278 390.08L25.8078 373.04C25.7811 371.413 25.7678 369.733 25.7678 368C25.9011 367.467 26.2878 367.2 26.9278 367.2H33.4878C36.2345 367.2 38.5545 368.267 40.4478 370.4C42.3411 372.507 43.2878 374.947 43.2878 377.72V380.48ZM41.5278 380.64L41.5678 377.48C41.5945 375.32 40.8345 373.36 39.2878 371.6C37.7411 369.813 35.8878 368.92 33.7278 368.92H27.5278L27.4478 389.2C28.1411 389.2 29.1811 389.2 30.5678 389.2C31.9545 389.227 32.9945 389.24 33.6878 389.24C35.7678 389.24 37.6078 388.32 39.2078 386.48C40.7278 384.72 41.5011 382.773 41.5278 380.64ZM67.3756 379.28C67.3756 382.48 66.549 385.267 64.8956 387.64C63.029 390.307 60.5623 391.64 57.4956 391.64C54.509 391.64 52.0823 390.28 50.2156 387.56C48.5356 385.16 47.6956 382.4 47.6956 379.28C47.6956 376.107 48.5223 373.333 50.1756 370.96C52.0423 368.267 54.509 366.92 57.5756 366.92C60.509 366.92 62.9223 368.28 64.8156 371C66.5223 373.427 67.3756 376.187 67.3756 379.28ZM65.6956 379.28C65.6956 376.56 65.029 374.173 63.6956 372.12C62.149 369.72 60.0956 368.52 57.5356 368.52C55.029 368.52 53.0023 369.72 51.4556 372.12C50.0423 374.253 49.349 376.64 49.3756 379.28C49.4023 382.427 50.229 385 51.8556 387C53.509 389 55.4023 390 57.5356 390C60.0423 390 62.069 388.813 63.6156 386.44C65.0023 384.333 65.6956 381.947 65.6956 379.28ZM89.1434 384.56C89.1434 386.373 88.4501 387.907 87.0634 389.16C85.6768 390.387 84.0768 391 82.2634 391H73.0234C72.3834 391 71.9968 390.707 71.8634 390.12C71.8634 390.12 71.8634 389.187 71.8634 387.32L71.9034 368.28C71.9034 367.72 72.2501 367.44 72.9434 367.44H80.2634C82.0501 367.44 83.6501 367.987 85.0634 369.08C86.5834 370.28 87.3434 371.747 87.3434 373.48C87.3701 375.56 86.2634 377.253 84.0234 378.56C87.4634 379.76 89.1701 381.76 89.1434 384.56ZM87.3834 384.6C87.3834 382.227 85.9034 380.707 82.9434 380.04C81.7168 379.773 79.3301 379.64 75.7834 379.64C75.2501 379.64 74.9968 379.347 75.0234 378.76C75.0501 378.227 75.3168 377.96 75.8234 377.96C78.8101 377.987 80.8634 377.853 81.9834 377.56C84.4101 376.947 85.6234 375.547 85.6234 373.36C85.6234 372.08 85.0234 371.04 83.8234 370.24C82.7834 369.52 81.5834 369.16 80.2234 369.16H73.5034V389.24H82.1034C83.5168 389.24 84.7434 388.813 85.7834 387.96C86.8501 387.08 87.3834 385.96 87.3834 384.6ZM111.551 390.12C111.551 390.707 111.378 391 111.031 391H96.5513C95.8579 391 95.5113 390.693 95.5113 390.08V368.28C95.5113 367.72 95.8446 367.44 96.5113 367.44H111.031C111.378 367.44 111.551 367.72 111.551 368.28C111.551 368.867 111.378 369.16 111.031 369.16H97.1913V377.88H104.951C105.245 377.88 105.431 378.173 105.511 378.76C105.511 379.347 105.338 379.64 104.991 379.64H97.1913V389.24L111.031 389.28C111.378 389.28 111.551 389.56 111.551 390.12ZM157.207 374.28C157.234 377.56 155.38 379.787 151.647 380.96C150.714 381.253 148.82 381.373 145.967 381.32C145.247 381.293 144.86 381.28 144.807 381.28C144.407 381.2 144.207 380.947 144.207 380.52C144.234 379.96 144.5 379.68 145.007 379.68L148.927 379.64C150.58 379.613 152.06 379.133 153.367 378.2C154.834 377.16 155.567 375.853 155.567 374.28C155.567 372.787 154.914 371.533 153.607 370.52C152.407 369.613 151.034 369.16 149.487 369.16H143.567L143.527 390.32C143.527 390.853 143.247 391.12 142.687 391.12C142.127 391.12 141.847 390.84 141.847 390.28V368.24C141.847 367.707 142.26 367.44 143.087 367.44H149.327C151.434 367.44 153.234 368.04 154.727 369.24C156.38 370.547 157.207 372.227 157.207 374.28ZM179.895 390.28C179.895 390.84 179.601 391.12 179.015 391.12C178.428 391.12 178.135 390.84 178.135 390.28V379.64H166.935L166.895 390.28C166.895 390.84 166.615 391.12 166.055 391.12C165.495 391.12 165.215 390.84 165.215 390.28V367.88C165.215 367.32 165.508 367.027 166.095 367C166.655 366.973 166.935 367.267 166.935 367.88V377.88H178.135V367.88C178.135 367.293 178.415 367 178.975 367C179.588 367 179.895 367.293 179.895 367.88V390.28ZM205.423 379.28C205.423 382.48 204.596 385.267 202.943 387.64C201.076 390.307 198.609 391.64 195.543 391.64C192.556 391.64 190.129 390.28 188.263 387.56C186.583 385.16 185.743 382.4 185.743 379.28C185.743 376.107 186.569 373.333 188.223 370.96C190.089 368.267 192.556 366.92 195.623 366.92C198.556 366.92 200.969 368.28 202.863 371C204.569 373.427 205.423 376.187 205.423 379.28ZM203.743 379.28C203.743 376.56 203.076 374.173 201.743 372.12C200.196 369.72 198.143 368.52 195.583 368.52C193.076 368.52 191.049 369.72 189.503 372.12C188.089 374.253 187.396 376.64 187.423 379.28C187.449 382.427 188.276 385 189.903 387C191.556 389 193.449 390 195.583 390C198.089 390 200.116 388.813 201.663 386.44C203.049 384.333 203.743 381.947 203.743 379.28ZM228.55 368.28C228.55 368.867 228.377 369.16 228.03 369.16H219.47V390.28C219.47 390.84 219.177 391.12 218.59 391.12C218.004 391.12 217.71 390.84 217.71 390.28V369.16H209.11C208.764 369.16 208.59 368.88 208.59 368.32C208.59 367.733 208.764 367.44 209.11 367.44H227.99C228.284 367.44 228.47 367.72 228.55 368.28ZM251.438 379.28C251.438 382.48 250.611 385.267 248.958 387.64C247.091 390.307 244.625 391.64 241.558 391.64C238.571 391.64 236.145 390.28 234.278 387.56C232.598 385.16 231.758 382.4 231.758 379.28C231.758 376.107 232.585 373.333 234.238 370.96C236.105 368.267 238.571 366.92 241.638 366.92C244.571 366.92 246.985 368.28 248.878 371C250.585 373.427 251.438 376.187 251.438 379.28ZM249.758 379.28C249.758 376.56 249.091 374.173 247.758 372.12C246.211 369.72 244.158 368.52 241.598 368.52C239.091 368.52 237.065 369.72 235.518 372.12C234.105 374.253 233.411 376.64 233.438 379.28C233.465 382.427 234.291 385 235.918 387C237.571 389 239.465 390 241.598 390C244.105 390 246.131 388.813 247.678 386.44C249.065 384.333 249.758 381.947 249.758 379.28ZM273.006 384.6C273.006 386.84 272.153 388.613 270.446 389.92C268.899 391.093 266.966 391.68 264.646 391.68C262.539 391.68 260.646 391.12 258.966 390C257.099 388.72 256.166 387.08 256.166 385.08C256.166 384.28 256.433 383.88 256.966 383.88C257.206 383.88 257.366 383.973 257.446 384.16C257.526 384.24 257.673 384.773 257.886 385.76C258.126 386.72 258.686 387.587 259.566 388.36C260.739 389.4 262.433 389.933 264.646 389.96C266.406 389.987 267.939 389.533 269.246 388.6C270.686 387.56 271.406 386.2 271.406 384.52C271.406 382.707 270.593 381.4 268.966 380.6C268.219 380.227 266.633 379.827 264.206 379.4C259.406 378.547 257.019 376.413 257.046 373C257.046 371 257.806 369.387 259.326 368.16C260.739 367.013 262.459 366.44 264.486 366.44C266.273 366.44 267.953 367 269.526 368.12C271.233 369.32 272.086 370.773 272.086 372.48C272.086 373.253 271.833 373.64 271.326 373.64C271.006 373.64 270.793 373.547 270.686 373.36C270.659 373.333 270.553 372.867 270.366 371.96C270.179 371.053 269.646 370.24 268.766 369.52C267.619 368.587 266.233 368.12 264.606 368.12C263.033 368.12 261.673 368.547 260.526 369.4C259.273 370.333 258.646 371.56 258.646 373.08C258.646 373.72 258.793 374.32 259.086 374.88C259.726 376.08 260.966 376.92 262.806 377.4C264.486 377.747 266.166 378.08 267.846 378.4C269.793 378.933 271.179 379.867 272.006 381.2C272.673 382.267 273.006 383.4 273.006 384.6ZM294.934 390.28C294.934 390.84 294.64 391.12 294.054 391.12C293.467 391.12 293.174 390.84 293.174 390.28V379.64H281.974L281.934 390.28C281.934 390.84 281.654 391.12 281.094 391.12C280.534 391.12 280.254 390.84 280.254 390.28V367.88C280.254 367.32 280.547 367.027 281.134 367C281.694 366.973 281.974 367.267 281.974 367.88V377.88H293.174V367.88C293.174 367.293 293.454 367 294.014 367C294.627 367 294.934 367.293 294.934 367.88V390.28ZM320.462 379.28C320.462 382.48 319.635 385.267 317.982 387.64C316.115 390.307 313.648 391.64 310.582 391.64C307.595 391.64 305.168 390.28 303.302 387.56C301.622 385.16 300.782 382.4 300.782 379.28C300.782 376.107 301.608 373.333 303.262 370.96C305.128 368.267 307.595 366.92 310.662 366.92C313.595 366.92 316.008 368.28 317.902 371C319.608 373.427 320.462 376.187 320.462 379.28ZM318.782 379.28C318.782 376.56 318.115 374.173 316.782 372.12C315.235 369.72 313.182 368.52 310.622 368.52C308.115 368.52 306.088 369.72 304.542 372.12C303.128 374.253 302.435 376.64 302.462 379.28C302.488 382.427 303.315 385 304.942 387C306.595 389 308.488 390 310.622 390C313.128 390 315.155 388.813 316.702 386.44C318.088 384.333 318.782 381.947 318.782 379.28ZM341.269 374.28C341.296 377.56 339.443 379.787 335.709 380.96C334.776 381.253 332.883 381.373 330.029 381.32C329.309 381.293 328.923 381.28 328.869 381.28C328.469 381.2 328.269 380.947 328.269 380.52C328.296 379.96 328.563 379.68 329.069 379.68L332.989 379.64C334.643 379.613 336.123 379.133 337.429 378.2C338.896 377.16 339.629 375.853 339.629 374.28C339.629 372.787 338.976 371.533 337.669 370.52C336.469 369.613 335.096 369.16 333.549 369.16H327.629L327.589 390.32C327.589 390.853 327.309 391.12 326.749 391.12C326.189 391.12 325.909 390.84 325.909 390.28V368.24C325.909 367.707 326.323 367.44 327.149 367.44H333.389C335.496 367.44 337.296 368.04 338.789 369.24C340.443 370.547 341.269 372.227 341.269 374.28Z" fill="#9B0823"/>
<line x1="5" y1="-5" x2="91.0266" y2="-5" transform="matrix(1 0 0 -1 513 379)" stroke="#BF0A2B" stroke-width="10" stroke-linecap="round"/>
<line x1="5" y1="-5" x2="91.0266" y2="-5" transform="matrix(1 0 0 -1 1000 379)" stroke="#BF0A2B" stroke-opacity="0.15" stroke-width="10" stroke-linecap="round"/>
<line x1="5" y1="-5" x2="91.0266" y2="-5" transform="matrix(1 0 0 -1 875 379)" stroke="#BF0A2B" stroke-opacity="0.15" stroke-width="10" stroke-linecap="round"/>
<line x1="5" y1="-5" x2="91.0266" y2="-5" transform="matrix(1 0 0 -1 755 379)" stroke="#BF0A2B" stroke-opacity="0.15" stroke-width="10" stroke-linecap="round"/>
<line x1="5" y1="-5" x2="91.0266" y2="-5" transform="matrix(1 0 0 -1 638 379)" stroke="#BF0A2B" stroke-width="10" stroke-linecap="round"/>
<path d="M19.16 248.28C19.1867 251.56 17.3333 253.787 13.6 254.96C12.6667 255.253 10.7733 255.373 7.92 255.32C7.2 255.293 6.81333 255.28 6.76 255.28C6.36 255.2 6.16 254.947 6.16 254.52C6.18667 253.96 6.45333 253.68 6.96 253.68L10.88 253.64C12.5333 253.613 14.0133 253.133 15.32 252.2C16.7867 251.16 17.52 249.853 17.52 248.28C17.52 246.787 16.8667 245.533 15.56 244.52C14.36 243.613 12.9867 243.16 11.44 243.16H5.52L5.48 264.32C5.48 264.853 5.2 265.12 4.64 265.12C4.08 265.12 3.8 264.84 3.8 264.28V242.24C3.8 241.707 4.21333 241.44 5.04 241.44H11.28C13.3867 241.44 15.1867 242.04 16.68 243.24C18.3333 244.547 19.16 246.227 19.16 248.28ZM44.1678 264.08C44.1678 264.747 43.5545 265.08 42.3278 265.08C42.2745 265.08 41.7678 265.04 40.8078 264.96C39.2078 262.133 37.9811 260.16 37.1278 259.04C35.5545 256.933 33.8211 255.427 31.9278 254.52H28.8078C28.2478 254.52 27.9811 254.227 28.0078 253.64C28.0345 253.053 28.3011 252.76 28.8078 252.76H31.2078C32.8878 252.76 34.4745 252.36 35.9678 251.56C37.7545 250.6 38.6478 249.347 38.6478 247.8C38.6478 246.467 37.9945 245.333 36.6878 244.4C35.4878 243.573 34.1811 243.16 32.7678 243.16H26.5278V264.28C26.5278 264.84 26.2478 265.12 25.6878 265.12C25.1278 265.12 24.8478 264.84 24.8478 264.28V242.28C24.8478 241.72 25.2211 241.44 25.9678 241.44H32.8878C34.7278 241.44 36.4078 242.04 37.9278 243.24C39.5278 244.547 40.3278 246.107 40.3278 247.92C40.3278 250.64 38.3945 252.667 34.5278 254C35.9678 255.013 37.3278 256.427 38.6078 258.24C39.1678 259.04 40.2078 260.733 41.7278 263.32C41.8345 263.32 41.9945 263.307 42.2078 263.28C42.4211 263.28 42.5678 263.28 42.6478 263.28C43.6611 263.28 44.1678 263.547 44.1678 264.08ZM65.5356 264.12C65.5356 264.707 65.3623 265 65.0156 265H50.5356C49.8423 265 49.4956 264.693 49.4956 264.08V242.28C49.4956 241.72 49.829 241.44 50.4956 241.44H65.0156C65.3623 241.44 65.5356 241.72 65.5356 242.28C65.5356 242.867 65.3623 243.16 65.0156 243.16H51.1756V251.88H58.9356C59.229 251.88 59.4156 252.173 59.4956 252.76C59.4956 253.347 59.3223 253.64 58.9756 253.64H51.1756V263.24L65.0156 263.28C65.3623 263.28 65.5356 263.56 65.5356 264.12ZM89.9834 264.28C89.9834 264.84 89.6901 265.12 89.1034 265.12C88.5434 265.12 88.2634 264.84 88.2634 264.28V243.16H87.9034L81.5434 257.92C81.3834 258.267 81.0634 258.44 80.5834 258.44C80.0768 258.44 79.7301 258.267 79.5434 257.92L73.0634 243.16H72.7834V264.28C72.7834 264.84 72.5034 265.12 71.9434 265.12C71.3568 265.12 71.0634 264.84 71.0634 264.28V241.44C71.0634 240.88 71.4901 240.587 72.3434 240.56C73.2501 240.533 73.8368 240.827 74.1034 241.44L80.5434 255.96L86.8234 241.44C87.0901 240.853 87.6901 240.56 88.6234 240.56C89.5301 240.56 89.9834 240.853 89.9834 241.44V264.28ZM110.991 264.08C110.991 264.693 110.618 265 109.871 265H97.1513C96.4313 265 96.0713 264.68 96.0713 264.04C96.0713 263.507 96.4313 263.24 97.1513 263.24H102.711V243.16L97.1513 243.2C96.4313 243.2 96.0713 242.88 96.0713 242.24C96.0713 241.707 96.4313 241.44 97.1513 241.44H109.911C110.631 241.44 110.991 241.707 110.991 242.24C110.991 242.853 110.618 243.16 109.871 243.16H104.471V263.24H109.871C110.618 263.24 110.991 263.52 110.991 264.08ZM134.559 264.12C134.559 264.707 134.386 265 134.039 265H119.559C118.866 265 118.519 264.693 118.519 264.08V242.28C118.519 241.72 118.852 241.44 119.519 241.44H134.039C134.386 241.44 134.559 241.72 134.559 242.28C134.559 242.867 134.386 243.16 134.039 243.16H120.199V251.88H127.959C128.252 251.88 128.439 252.173 128.519 252.76C128.519 253.347 128.346 253.64 127.999 253.64H120.199V263.24L134.039 263.28C134.386 263.28 134.559 263.56 134.559 264.12ZM159.207 264.08C159.207 264.747 158.594 265.08 157.367 265.08C157.314 265.08 156.807 265.04 155.847 264.96C154.247 262.133 153.02 260.16 152.167 259.04C150.594 256.933 148.86 255.427 146.967 254.52H143.847C143.287 254.52 143.02 254.227 143.047 253.64C143.074 253.053 143.34 252.76 143.847 252.76H146.247C147.927 252.76 149.514 252.36 151.007 251.56C152.794 250.6 153.687 249.347 153.687 247.8C153.687 246.467 153.034 245.333 151.727 244.4C150.527 243.573 149.22 243.16 147.807 243.16H141.567V264.28C141.567 264.84 141.287 265.12 140.727 265.12C140.167 265.12 139.887 264.84 139.887 264.28V242.28C139.887 241.72 140.26 241.44 141.007 241.44H147.927C149.767 241.44 151.447 242.04 152.967 243.24C154.567 244.547 155.367 246.107 155.367 247.92C155.367 250.64 153.434 252.667 149.567 254C151.007 255.013 152.367 256.427 153.647 258.24C154.207 259.04 155.247 260.733 156.767 263.32C156.874 263.32 157.034 263.307 157.247 263.28C157.46 263.28 157.607 263.28 157.687 263.28C158.7 263.28 159.207 263.547 159.207 264.08ZM180.575 264.12C180.575 264.707 180.401 265 180.055 265H165.575C164.881 265 164.535 264.693 164.535 264.08V242.28C164.535 241.72 164.868 241.44 165.535 241.44H180.055C180.401 241.44 180.575 241.72 180.575 242.28C180.575 242.867 180.401 243.16 180.055 243.16H166.215V251.88H173.975C174.268 251.88 174.455 252.173 174.535 252.76C174.535 253.347 174.361 253.64 174.015 253.64H166.215V263.24L180.055 263.28C180.401 263.28 180.575 263.56 180.575 264.12ZM226.23 248.28C226.257 251.56 224.404 253.787 220.67 254.96C219.737 255.253 217.844 255.373 214.99 255.32C214.27 255.293 213.884 255.28 213.83 255.28C213.43 255.2 213.23 254.947 213.23 254.52C213.257 253.96 213.524 253.68 214.03 253.68L217.95 253.64C219.604 253.613 221.084 253.133 222.39 252.2C223.857 251.16 224.59 249.853 224.59 248.28C224.59 246.787 223.937 245.533 222.63 244.52C221.43 243.613 220.057 243.16 218.51 243.16H212.59L212.55 264.32C212.55 264.853 212.27 265.12 211.71 265.12C211.15 265.12 210.87 264.84 210.87 264.28V242.24C210.87 241.707 211.284 241.44 212.11 241.44H218.35C220.457 241.44 222.257 242.04 223.75 243.24C225.404 244.547 226.23 246.227 226.23 248.28ZM251.238 264.08C251.238 264.747 250.625 265.08 249.398 265.08C249.345 265.08 248.838 265.04 247.878 264.96C246.278 262.133 245.051 260.16 244.198 259.04C242.625 256.933 240.891 255.427 238.998 254.52H235.878C235.318 254.52 235.051 254.227 235.078 253.64C235.105 253.053 235.371 252.76 235.878 252.76H238.278C239.958 252.76 241.545 252.36 243.038 251.56C244.825 250.6 245.718 249.347 245.718 247.8C245.718 246.467 245.065 245.333 243.758 244.4C242.558 243.573 241.251 243.16 239.838 243.16H233.598V264.28C233.598 264.84 233.318 265.12 232.758 265.12C232.198 265.12 231.918 264.84 231.918 264.28V242.28C231.918 241.72 232.291 241.44 233.038 241.44H239.958C241.798 241.44 243.478 242.04 244.998 243.24C246.598 244.547 247.398 246.107 247.398 247.92C247.398 250.64 245.465 252.667 241.598 254C243.038 255.013 244.398 256.427 245.678 258.24C246.238 259.04 247.278 260.733 248.798 263.32C248.905 263.32 249.065 263.307 249.278 263.28C249.491 263.28 249.638 263.28 249.718 263.28C250.731 263.28 251.238 263.547 251.238 264.08ZM274.446 253.28C274.446 256.48 273.619 259.267 271.966 261.64C270.099 264.307 267.633 265.64 264.566 265.64C261.579 265.64 259.153 264.28 257.286 261.56C255.606 259.16 254.766 256.4 254.766 253.28C254.766 250.107 255.593 247.333 257.246 244.96C259.113 242.267 261.579 240.92 264.646 240.92C267.579 240.92 269.993 242.28 271.886 245C273.593 247.427 274.446 250.187 274.446 253.28ZM272.766 253.28C272.766 250.56 272.099 248.173 270.766 246.12C269.219 243.72 267.166 242.52 264.606 242.52C262.099 242.52 260.073 243.72 258.526 246.12C257.113 248.253 256.419 250.64 256.446 253.28C256.473 256.427 257.299 259 258.926 261C260.579 263 262.473 264 264.606 264C267.113 264 269.139 262.813 270.686 260.44C272.073 258.333 272.766 255.947 272.766 253.28Z" fill="#9B0823"/>
<line x1="5" y1="-5" x2="91.0266" y2="-5" transform="matrix(1 0 0 -1 515 253)" stroke="#BF0A2B" stroke-width="10" stroke-linecap="round"/>
<line x1="5" y1="-5" x2="91.0266" y2="-5" transform="matrix(1 0 0 -1 1002 253)" stroke="#BF0A2B" stroke-opacity="0.15" stroke-width="10" stroke-linecap="round"/>
<line x1="5" y1="-5" x2="91.0266" y2="-5" transform="matrix(1 0 0 -1 877 253)" stroke="#BF0A2B" stroke-opacity="0.15" stroke-width="10" stroke-linecap="round"/>
<line x1="5" y1="-5" x2="91.0266" y2="-5" transform="matrix(1 0 0 -1 757 253)" stroke="#BF0A2B" stroke-width="10" stroke-linecap="round"/>
<line x1="5" y1="-5" x2="91.0266" y2="-5" transform="matrix(1 0 0 -1 640 253)" stroke="#BF0A2B" stroke-width="10" stroke-linecap="round"/>
<path d="M21.24 495.44C21.24 495.493 19.8933 499.227 17.2 506.64C15.68 510.747 14.1733 514.853 12.68 518.96C12.52 519.413 12.1333 519.64 11.52 519.64C10.9067 519.693 10.5067 519.48 10.32 519C9.86667 517.8 8.36 513.733 5.8 506.8C3.10667 499.467 1.76 495.76 1.76 495.68C1.76 495.253 2.09333 495 2.76 494.92C2.97333 494.92 3.12 495.013 3.2 495.2L11.44 517.24L19.6 495.2C19.68 494.96 19.9067 494.84 20.28 494.84C20.92 494.84 21.24 495.04 21.24 495.44ZM41.9678 518.08C41.9678 518.693 41.5945 519 40.8478 519H28.1278C27.4078 519 27.0478 518.68 27.0478 518.04C27.0478 517.507 27.4078 517.24 28.1278 517.24H33.6878V497.16L28.1278 497.2C27.4078 497.2 27.0478 496.88 27.0478 496.24C27.0478 495.707 27.4078 495.44 28.1278 495.44H40.8878C41.6078 495.44 41.9678 495.707 41.9678 496.24C41.9678 496.853 41.5945 497.16 40.8478 497.16H35.4478V517.24H40.8478C41.5945 517.24 41.9678 517.52 41.9678 518.08ZM65.9356 512.6C65.9356 514.84 65.0823 516.613 63.3756 517.92C61.829 519.093 59.8956 519.68 57.5756 519.68C55.469 519.68 53.5756 519.12 51.8956 518C50.029 516.72 49.0956 515.08 49.0956 513.08C49.0956 512.28 49.3623 511.88 49.8956 511.88C50.1356 511.88 50.2956 511.973 50.3756 512.16C50.4556 512.24 50.6023 512.773 50.8156 513.76C51.0556 514.72 51.6156 515.587 52.4956 516.36C53.669 517.4 55.3623 517.933 57.5756 517.96C59.3356 517.987 60.869 517.533 62.1756 516.6C63.6156 515.56 64.3356 514.2 64.3356 512.52C64.3356 510.707 63.5223 509.4 61.8956 508.6C61.149 508.227 59.5623 507.827 57.1356 507.4C52.3356 506.547 49.949 504.413 49.9756 501C49.9756 499 50.7356 497.387 52.2556 496.16C53.669 495.013 55.389 494.44 57.4156 494.44C59.2023 494.44 60.8823 495 62.4556 496.12C64.1623 497.32 65.0156 498.773 65.0156 500.48C65.0156 501.253 64.7623 501.64 64.2556 501.64C63.9356 501.64 63.7223 501.547 63.6156 501.36C63.589 501.333 63.4823 500.867 63.2956 499.96C63.109 499.053 62.5756 498.24 61.6956 497.52C60.549 496.587 59.1623 496.12 57.5356 496.12C55.9623 496.12 54.6023 496.547 53.4556 497.4C52.2023 498.333 51.5756 499.56 51.5756 501.08C51.5756 501.72 51.7223 502.32 52.0156 502.88C52.6556 504.08 53.8956 504.92 55.7356 505.4C57.4156 505.747 59.0956 506.08 60.7756 506.4C62.7223 506.933 64.109 507.867 64.9356 509.2C65.6023 510.267 65.9356 511.4 65.9356 512.6ZM88.7034 511.28C88.7034 513.627 87.9301 515.613 86.3834 517.24C84.8368 518.867 82.8901 519.68 80.5434 519.68C78.1968 519.68 76.2368 518.88 74.6634 517.28C73.1168 515.653 72.3434 513.653 72.3434 511.28V495.84C72.3434 495.307 72.6368 495.04 73.2234 495.04C73.7834 495.04 74.0634 495.32 74.0634 495.88L74.0234 511.28C74.0234 513.12 74.6368 514.693 75.8634 516C77.0901 517.307 78.6368 517.96 80.5034 517.96C82.2901 517.96 83.8101 517.307 85.0634 516C86.3168 514.667 86.9434 513.093 86.9434 511.28V495.88C86.9434 495.32 87.2368 495.04 87.8234 495.04C88.4101 495.04 88.7034 495.32 88.7034 495.88V511.28ZM113.711 519.16C113.738 519.373 113.511 519.48 113.031 519.48C112.418 519.48 112.045 519.307 111.911 518.96L109.071 511.12H97.9913L95.0713 519C94.9379 519.347 94.5913 519.52 94.0313 519.52C93.5513 519.52 93.3113 519.387 93.3113 519.12C93.3113 519.013 96.2579 511.107 102.151 495.4C102.338 494.92 102.791 494.68 103.511 494.68C104.258 494.68 104.725 494.933 104.911 495.44L113.671 518.96C113.698 519.013 113.711 519.08 113.711 519.16ZM108.511 509.36L103.831 497.16H103.191L98.5913 509.36H108.511ZM134.159 518.12C134.159 518.707 133.986 519 133.639 519H120.079C119.359 519 118.999 518.693 118.999 518.08L118.919 495.88C118.919 495.32 119.212 495.04 119.799 495.04C120.386 495.04 120.679 495.32 120.679 495.88V517.24L133.599 517.28C133.972 517.28 134.159 517.56 134.159 518.12ZM180.975 512.6C180.975 514.84 180.121 516.613 178.415 517.92C176.868 519.093 174.935 519.68 172.615 519.68C170.508 519.68 168.615 519.12 166.935 518C165.068 516.72 164.135 515.08 164.135 513.08C164.135 512.28 164.401 511.88 164.935 511.88C165.175 511.88 165.335 511.973 165.415 512.16C165.495 512.24 165.641 512.773 165.855 513.76C166.095 514.72 166.655 515.587 167.535 516.36C168.708 517.4 170.401 517.933 172.615 517.96C174.375 517.987 175.908 517.533 177.215 516.6C178.655 515.56 179.375 514.2 179.375 512.52C179.375 510.707 178.561 509.4 176.935 508.6C176.188 508.227 174.601 507.827 172.175 507.4C167.375 506.547 164.988 504.413 165.015 501C165.015 499 165.775 497.387 167.295 496.16C168.708 495.013 170.428 494.44 172.455 494.44C174.241 494.44 175.921 495 177.495 496.12C179.201 497.32 180.055 498.773 180.055 500.48C180.055 501.253 179.801 501.64 179.295 501.64C178.975 501.64 178.761 501.547 178.655 501.36C178.628 501.333 178.521 500.867 178.335 499.96C178.148 499.053 177.615 498.24 176.735 497.52C175.588 496.587 174.201 496.12 172.575 496.12C171.001 496.12 169.641 496.547 168.495 497.4C167.241 498.333 166.615 499.56 166.615 501.08C166.615 501.72 166.761 502.32 167.055 502.88C167.695 504.08 168.935 504.92 170.775 505.4C172.455 505.747 174.135 506.08 175.815 506.4C177.761 506.933 179.148 507.867 179.975 509.2C180.641 510.267 180.975 511.4 180.975 512.6ZM205.543 496.28C205.543 496.867 205.369 497.16 205.023 497.16H196.463V518.28C196.463 518.84 196.169 519.12 195.583 519.12C194.996 519.12 194.703 518.84 194.703 518.28V497.16H186.103C185.756 497.16 185.583 496.88 185.583 496.32C185.583 495.733 185.756 495.44 186.103 495.44H204.983C205.276 495.44 205.463 495.72 205.543 496.28ZM226.75 511.28C226.75 513.627 225.977 515.613 224.43 517.24C222.884 518.867 220.937 519.68 218.59 519.68C216.244 519.68 214.284 518.88 212.71 517.28C211.164 515.653 210.39 513.653 210.39 511.28V495.84C210.39 495.307 210.684 495.04 211.27 495.04C211.83 495.04 212.11 495.32 212.11 495.88L212.07 511.28C212.07 513.12 212.684 514.693 213.91 516C215.137 517.307 216.684 517.96 218.55 517.96C220.337 517.96 221.857 517.307 223.11 516C224.364 514.667 224.99 513.093 224.99 511.28V495.88C224.99 495.32 225.284 495.04 225.87 495.04C226.457 495.04 226.75 495.32 226.75 495.88V511.28ZM250.358 508.48C250.358 511.173 249.411 513.6 247.518 515.76C245.625 517.92 243.331 519 240.638 519H234.078C233.731 519 233.411 518.947 233.118 518.84C232.905 518.413 232.798 518.16 232.798 518.08L232.878 501.04C232.851 499.413 232.838 497.733 232.838 496C232.971 495.467 233.358 495.2 233.998 495.2H240.558C243.305 495.2 245.625 496.267 247.518 498.4C249.411 500.507 250.358 502.947 250.358 505.72V508.48ZM248.598 508.64L248.638 505.48C248.665 503.32 247.905 501.36 246.358 499.6C244.811 497.813 242.958 496.92 240.798 496.92H234.598L234.518 517.2C235.211 517.2 236.251 517.2 237.638 517.2C239.025 517.227 240.065 517.24 240.758 517.24C242.838 517.24 244.678 516.32 246.278 514.48C247.798 512.72 248.571 510.773 248.598 508.64ZM272.046 518.08C272.046 518.693 271.673 519 270.926 519H258.206C257.486 519 257.126 518.68 257.126 518.04C257.126 517.507 257.486 517.24 258.206 517.24H263.766V497.16L258.206 497.2C257.486 497.2 257.126 496.88 257.126 496.24C257.126 495.707 257.486 495.44 258.206 495.44H270.966C271.686 495.44 272.046 495.707 272.046 496.24C272.046 496.853 271.673 497.16 270.926 497.16H265.526V517.24H270.926C271.673 517.24 272.046 517.52 272.046 518.08ZM297.454 507.28C297.454 510.48 296.627 513.267 294.974 515.64C293.107 518.307 290.64 519.64 287.574 519.64C284.587 519.64 282.16 518.28 280.294 515.56C278.614 513.16 277.774 510.4 277.774 507.28C277.774 504.107 278.6 501.333 280.254 498.96C282.12 496.267 284.587 494.92 287.654 494.92C290.587 494.92 293 496.28 294.894 499C296.6 501.427 297.454 504.187 297.454 507.28ZM295.774 507.28C295.774 504.56 295.107 502.173 293.774 500.12C292.227 497.72 290.174 496.52 287.614 496.52C285.107 496.52 283.08 497.72 281.534 500.12C280.12 502.253 279.427 504.64 279.454 507.28C279.48 510.427 280.307 513 281.934 515C283.587 517 285.48 518 287.614 518C290.12 518 292.147 516.813 293.694 514.44C295.08 512.333 295.774 509.947 295.774 507.28ZM343.029 514.48C343.029 514.747 342.736 515.24 342.149 515.96C341.269 517.053 340.136 517.947 338.749 518.64C337.389 519.333 336.016 519.68 334.629 519.68C331.669 519.68 329.163 518.413 327.109 515.88C325.189 513.507 324.229 510.813 324.229 507.8C324.229 504.44 324.976 501.52 326.469 499.04C328.256 496.107 330.723 494.64 333.869 494.64C336.563 494.64 338.856 495.6 340.749 497.52C340.749 496.56 340.749 496.08 340.749 496.08C340.829 495.493 341.109 495.2 341.589 495.2C342.149 495.2 342.429 495.587 342.429 496.36V501.12C342.429 501.36 342.336 501.6 342.149 501.84C341.989 502.08 341.803 502.2 341.589 502.2C341.056 502.2 340.776 501.853 340.749 501.16C340.723 500.04 340.149 499.027 339.029 498.12C337.589 496.947 335.869 496.36 333.869 496.36C331.149 496.36 329.056 497.6 327.589 500.08C326.389 502.107 325.789 504.587 325.789 507.52C325.789 510 326.616 512.307 328.269 514.44C330.056 516.76 332.149 517.92 334.549 517.92C336.069 517.92 337.429 517.547 338.629 516.8C339.323 516.373 340.083 515.693 340.909 514.76C341.576 514.013 342.016 513.64 342.229 513.64C342.469 513.64 342.656 513.707 342.789 513.84C342.949 513.947 343.029 514.16 343.029 514.48ZM366.477 507.28C366.477 510.48 365.651 513.267 363.997 515.64C362.131 518.307 359.664 519.64 356.597 519.64C353.611 519.64 351.184 518.28 349.317 515.56C347.637 513.16 346.797 510.4 346.797 507.28C346.797 504.107 347.624 501.333 349.277 498.96C351.144 496.267 353.611 494.92 356.677 494.92C359.611 494.92 362.024 496.28 363.917 499C365.624 501.427 366.477 504.187 366.477 507.28ZM364.797 507.28C364.797 504.56 364.131 502.173 362.797 500.12C361.251 497.72 359.197 496.52 356.637 496.52C354.131 496.52 352.104 497.72 350.557 500.12C349.144 502.253 348.451 504.64 348.477 507.28C348.504 510.427 349.331 513 350.957 515C352.611 517 354.504 518 356.637 518C359.144 518 361.171 516.813 362.717 514.44C364.104 512.333 364.797 509.947 364.797 507.28ZM388.405 508.48C388.405 511.173 387.458 513.6 385.565 515.76C383.672 517.92 381.378 519 378.685 519H372.125C371.778 519 371.458 518.947 371.165 518.84C370.952 518.413 370.845 518.16 370.845 518.08L370.925 501.04C370.898 499.413 370.885 497.733 370.885 496C371.018 495.467 371.405 495.2 372.045 495.2H378.605C381.352 495.2 383.672 496.267 385.565 498.4C387.458 500.507 388.405 502.947 388.405 505.72V508.48ZM386.645 508.64L386.685 505.48C386.712 503.32 385.952 501.36 384.405 499.6C382.858 497.813 381.005 496.92 378.845 496.92H372.645L372.565 517.2C373.258 517.2 374.298 517.2 375.685 517.2C377.072 517.227 378.112 517.24 378.805 517.24C380.885 517.24 382.725 516.32 384.325 514.48C385.845 512.72 386.618 510.773 386.645 508.64ZM410.653 518.12C410.653 518.707 410.479 519 410.133 519H395.653C394.959 519 394.613 518.693 394.613 518.08V496.28C394.613 495.72 394.946 495.44 395.613 495.44H410.133C410.479 495.44 410.653 495.72 410.653 496.28C410.653 496.867 410.479 497.16 410.133 497.16H396.293V505.88H404.053C404.346 505.88 404.533 506.173 404.613 506.76C404.613 507.347 404.439 507.64 404.093 507.64H396.293V517.24L410.133 517.28C410.479 517.28 410.653 517.56 410.653 518.12Z" fill="#9B0823"/>
<line x1="518" y1="502" x2="604.027" y2="502" stroke="#BF0A2B" stroke-width="10" stroke-linecap="round"/>
<line x1="1005" y1="502" x2="1091.03" y2="502" stroke="#BF0A2B" stroke-opacity="0.15" stroke-width="10" stroke-linecap="round"/>
<line x1="880" y1="502" x2="966.027" y2="502" stroke="#BF0A2B" stroke-opacity="0.15" stroke-width="10" stroke-linecap="round"/>
<line x1="760" y1="502" x2="846.027" y2="502" stroke="#BF0A2B" stroke-opacity="0.15" stroke-width="10" stroke-linecap="round"/>
<line x1="643" y1="502" x2="729.027" y2="502" stroke="#BF0A2B" stroke-width="10" stroke-linecap="round"/>
</svg>
