<svg width="219" height="343" viewBox="0 0 219 343" fill="none" xmlns="http://www.w3.org/2000/svg">
<path d="M185.785 102.949C185.785 85.1409 193.036 68.19 200.464 52.5072C203.567 45.9576 205.435 35.8635 205.001 28.4872C204.732 23.9131 186.464 20.0802 182.783 20.0802C172.799 20.0802 165.661 19.1187 157.562 25.418C149.298 31.8457 145.506 42.5566 140.081 51.3729C131.887 64.6868 121.964 76.152 113.125 89.071C106.343 98.9833 102.681 112.312 94.5093 120.964C90.4519 125.26 87.8995 131.442 82.4993 134.442C79.172 136.291 76.1407 140.917 74.0923 144.05C68.5264 152.563 65.064 161.922 59.6802 170.472C57.6779 173.652 58.3895 177.741 57.0113 181.014C55.4368 184.754 53.558 188.731 51.5401 192.224C47.9454 198.445 43.6608 205.72 41.3983 212.507C37.8543 223.14 31.2483 232.689 26.6527 242.799C18.7389 260.21 16.6154 279.424 9.50507 296.311C7.56216 300.925 8.03718 309.387 8.03718 314.326C8.03718 318.448 7.47058 323.192 10.4392 326.336C17.1302 333.42 20.1935 338.346 30.2557 338.346C36.1918 338.346 40.4642 326.676 40.4642 322.132C40.4642 313.542 47.6014 310.787 39.797 302.983C27.8503 291.036 5.36632 299.949 4.43417 316.728C3.98278 324.853 1.10772 333.151 7.77029 339.813C12.2534 344.297 25.3174 334.776 29.6552 332.607C36.2741 329.298 45.7752 327.62 51.2732 322.733C58.2495 316.531 64.5186 310.673 69.8888 302.916C75.5991 294.668 81.783 286.551 86.7028 277.695C89.2525 273.106 91.1847 268.647 95.1765 265.018C101.804 258.993 105.66 251.73 111.257 244.734C114.76 240.355 119.354 233.673 120.865 228.387C121.62 225.743 123.083 218.686 125.135 217.044C127.526 215.131 129.053 208.403 131.207 205.635C134.711 201.129 138.457 196.327 140.414 190.889C143.552 182.174 156.971 174.929 158.162 165.401C158.33 164.06 161.199 157.102 162.032 156.06C164.565 152.895 165.572 147.096 167.77 143.25C171.539 136.654 177.378 127.07 177.378 119.163C177.378 111.339 184.934 105.2 182.182 96.9443" stroke="#1F232E" stroke-width="3" stroke-linecap="round"/>
<path d="M164.167 81.3312C152.374 81.3312 126.779 85.7269 117.595 77.4613C115.271 75.3694 111.031 74.9132 110.189 71.1227C109.387 67.5123 113.106 62.8195 114.66 59.7132C117.699 53.6341 122.611 48.961 124.801 42.6323C127.24 35.5882 129.919 27.3727 135.077 22.2153C139.957 17.3352 143.756 15.6071 149.755 12.6072C163.271 5.84926 181.882 3.23236 195.994 11.0726C202.538 14.7081 209.31 19.1884 212.808 25.4846C216.053 31.3261 217.012 42.0699 217.012 48.3704C217.012 57.5813 218.589 70.084 214.009 78.3287C211.874 82.1723 210.673 86.7355 208.338 90.9392C206.28 94.6434 202.25 97.8221 199.664 101.148C195.509 106.489 192.243 112.893 188.187 117.962C182.634 124.904 180.547 123.724 174.976 116.761C173.121 114.442 170.488 112.966 169.238 110.155C167.768 106.846 168.689 103.461 167.704 100.013C166.352 95.2809 160.065 84.9342 154.559 84.9342" stroke="#1F232E" stroke-width="3" stroke-linecap="round"/>
<path d="M173.776 64.5172C173.776 57.2974 167.771 53.1693 167.771 45.9016C167.771 38.506 175.059 35.0382 180.381 39.2961C184.377 42.4931 194.128 47.6675 188.454 52.774C186.466 54.5634 182.477 56.0428 180.982 57.9116C178.994 60.3959 177.791 62.6405 174.977 64.5172" stroke="#1F232E" stroke-width="3" stroke-linecap="round"/>
<path d="M121.315 76.3055C119.762 75.1805 118.198 73.5234 117.073 71.9607C116.635 71.3525 116.208 70.7178 115.823 70.0752C115.79 70.0207 115.326 69.0912 115.238 69.3988C115.06 70.0252 115.228 70.9481 115.228 71.5918C115.228 71.8996 115.428 73.5421 114.952 72.8009C114.5 72.099 114.097 71.3528 113.609 70.6695C113.465 70.4674 113.022 69.578 113.343 70.2186C113.6 70.7323 113.812 71.5941 114.163 72.0221C114.42 72.337 113.7 71.2975 113.568 71.0999C111.861 68.5394 113.746 66.422 114.316 63.8551C114.537 62.8628 115.371 61.8274 115.782 60.9038C116.223 59.9111 116.657 58.8954 117.175 57.9321C117.601 57.1405 119.528 53.6499 119.471 56.0569C119.438 57.4268 118.528 58.8831 117.954 60.0738C117.502 61.011 117.055 61.9999 116.519 62.8816C115.215 65.0298 115.044 67.6892 115.044 70.1264C115.044 70.4497 115.075 70.2205 115.136 70.0239C115.417 69.1249 115.773 68.3382 116.171 67.4723C117.093 65.4686 118.267 63.5247 119.061 61.4674C119.131 61.286 119.839 59.4916 119.839 59.8894C119.839 60.676 119.304 61.6813 119.061 62.4102C118.313 64.6518 117.442 66.9563 117.442 69.3373C117.442 70.099 116.961 73.379 118.22 73.0264C118.463 72.9584 119.193 74.9414 119.553 75.3013C120.138 75.8872 120.66 76.1576 121.407 76.49C122.234 76.8574 123.25 76.6504 124.123 76.8998C125.255 77.2233 126.335 77.5838 127.443 77.9246C128.1 78.1267 128.866 78.4185 129.544 78.5189C130.903 78.7203 132.2 78.7549 133.561 78.8981C135.286 79.0797 137.007 79.8101 138.756 79.8101C140.925 79.8101 142.942 80.7323 145.109 80.7323C146.59 80.7323 148.088 81.3675 149.577 81.4701C151.168 81.5798 152.726 82.0235 154.332 82.0235C156.329 82.0235 159.561 81.7428 160.378 84.0115C160.586 84.591 161.914 85.9128 161.433 85.5281C160.941 85.134 160.631 84.2137 160.327 83.6733C159.766 82.6777 159.352 81.5705 158.841 80.5479C158.723 80.3134 157.894 78.891 158.677 79.8306C160.004 81.4232 161.464 83.09 163.073 84.4009C163.665 84.8833 165.317 86.4183 164.907 85.774C163.952 84.2731 162.694 83.008 161.443 81.7571C160.12 80.4335 158.598 79.3712 157.242 78.109C156.955 77.8416 156.518 77.6503 156.289 77.3302C156.191 77.1932 157.353 77.8698 157.447 77.9451C158.952 79.1454 160.455 80.3344 161.71 81.798C161.965 82.0955 162.277 82.3854 162.55 82.6588C162.887 82.9957 162.31 81.3525 162.263 81.2447C161.204 78.7932 160.163 76.2646 159.343 73.7232C159.064 72.8593 158.645 72.043 158.349 71.1819C158.238 70.8595 159.107 72.0939 159.24 72.2578C160.576 73.8956 161.796 75.8181 163.288 77.3097C163.481 77.5024 163.621 77.7657 163.78 77.9246C163.934 78.0791 163.505 76.6107 163.452 76.5002C162.26 74.0024 160.804 71.625 159.906 68.9889C159.571 68.0034 159.233 66.8587 159.138 65.8123C159.086 65.2469 159.116 65.0092 159.128 65.7918C159.163 68.1943 159.496 70.5951 159.496 73.0059C159.496 73.5463 159.296 74.5398 159.507 75.0656C159.543 75.1563 159.635 74.9163 159.681 74.8299C159.976 74.2697 160.286 73.7175 160.603 73.1698C161.978 70.7994 163.537 68.5294 164.661 66.0172C164.864 65.5634 165.067 65.103 165.204 64.6236C165.334 64.1686 164.856 65.5039 164.661 65.9353C163.522 68.4592 162.473 70.8581 161.669 73.5182C161.466 74.1879 161.056 74.9637 160.982 75.6599C160.909 76.3531 160.778 76.0934 160.788 75.5062C160.831 72.7647 162.602 69.7695 163.565 67.2572C163.983 66.1649 164.357 65.0112 164.846 63.9473C164.892 63.8471 165.136 63.1212 165.204 63.5989C165.499 65.664 164.54 68.0674 164.21 70.0956C164.049 71.0841 163.923 72.0572 163.923 73.0571C163.923 73.6473 164.053 71.865 164.292 71.3253C164.969 69.7982 165.421 68.1695 165.932 66.5808C166.317 65.3815 166.542 64.1443 166.885 62.943C166.913 62.8451 167.409 63.9092 167.52 64.1317C167.953 64.9971 168.702 65.7524 169.088 66.6218C169.464 67.4685 169.457 65.9826 169.457 65.7918C169.457 64.8234 169.489 63.849 169.457 62.8816C169.411 61.5172 168.819 60.2099 168.391 58.9261C168.193 58.3321 167.981 57.832 167.981 57.2046C167.981 56.8227 168.323 57.8877 168.494 58.2293C168.802 58.8468 169.405 59.7041 169.867 60.2173C170.351 60.7552 170.932 61.6585 170.932 62.3794C170.932 63.1451 170.555 62.7221 170.266 62.3692C168.397 60.0841 166.936 57.4783 165.419 54.9502C164.018 52.614 162.423 50.2671 160.706 48.146C160.086 47.3803 160.05 47.5989 160.05 48.4841C160.05 50.4276 160.356 52.3444 160.562 54.2738C161.224 60.4779 162.58 66.6097 163.145 72.8214C163.201 73.4446 163.472 75.3021 163.36 74.6864C162.93 72.3216 161.929 69.9971 161.198 67.7183C159.455 62.2873 158.139 56.7594 156.853 51.2099C156.67 50.4228 156.473 49.6298 156.217 48.8633C156.144 48.6435 156.176 50.3977 156.176 50.6975C156.176 55.2687 157.224 59.7721 158.574 64.1215C158.919 65.2327 159.338 67.3847 159.527 65.054C159.931 60.0773 160.958 55.1453 161.341 50.1647C161.371 49.7751 161.421 48.3505 161.71 49.4576C162.105 50.9737 162.645 52.4244 163.185 53.8947C163.985 56.068 164.977 58.1445 165.768 60.3197C165.797 60.3987 165.258 59.0566 165.122 58.6802C164.724 57.5745 164.19 55.9588 163.37 55.0936C163.052 54.7579 163.185 55.8645 163.185 56.0056C163.185 57.3538 163.608 58.6723 163.923 59.9713C164.606 62.779 165.153 65.6145 165.768 68.4356C165.898 69.0337 166.129 69.5007 165.655 68.702C164.906 67.4404 164.519 65.9756 163.964 64.6236C161.491 58.5998 159.976 51.8678 160.747 45.3177C160.884 44.1542 160.404 42.7231 161.382 41.8541C161.47 41.7757 161.758 43.4444 161.802 43.6577C162.13 45.2293 162.821 46.7127 162.991 48.3304C163.131 49.6663 163.232 51.6615 163.841 52.8802C164.45 54.0982 165.1 55.2986 165.768 56.4668C166.855 58.3693 164.689 52.2021 164.477 50.0212C164.383 49.0563 163.012 40.579 163.923 40.522C164.282 40.4996 164.815 44.5537 164.887 45.0308C165.096 46.4155 165.214 47.8981 165.214 49.2937C165.214 50.6799 165.521 51.8646 165.758 53.1671C165.944 54.195 166.261 55.4471 167.059 56.2003C167.381 56.5046 168.805 57.6161 168.309 56.5692C167.611 55.0956 167.243 53.2141 167.243 51.5891C167.243 51.1612 167.269 50.7249 167.243 50.2979C167.236 50.1771 166.518 49.8409 166.362 49.5601C165.477 47.9674 164.596 46.7477 163.196 45.5227C162.263 44.7065 161.921 45.8528 161.7 46.5576C160.38 50.7644 158.856 55.0048 158.031 59.336C157.475 62.2533 157.48 65.2914 157.468 68.2511C157.456 71.0514 157.413 73.7938 158.123 76.5207C158.577 78.263 158.953 80.0397 159.496 81.7571C159.663 82.2829 159.865 82.8269 159.865 83.3864C159.865 83.6702 159.884 82.8133 159.824 82.5359C159.459 80.841 158.833 79.1395 158.318 77.4839C157.186 73.8415 155.907 70.276 154.598 66.6936C153.954 64.9292 153.469 62.9841 152.713 61.283C151.797 59.2226 154.799 65.2847 155.705 67.3494C157.476 71.3851 159.751 75.346 160.562 79.7281C160.844 81.2493 160.458 80.4881 159.21 79.7486C156.236 77.9873 153.441 75.8494 150.971 73.4158C150.474 72.9264 148.711 70.6651 149.987 72.555C151.767 75.1912 153.676 77.7871 155.889 80.0765C156.406 80.6111 157.836 81.5823 157.836 82.3924C157.836 83.392 158.316 84.3199 158.666 85.2309C158.768 85.4943 159.232 86.0152 159.025 85.897C158.357 85.5153 157.843 84.8696 157.201 84.4418C156.157 83.7455 155.153 82.7717 154.188 81.9825C153.183 81.1596 151.496 80.4276 150.315 79.8921C147.047 78.4105 143.439 77.314 139.934 76.5924C137.72 76.1366 135.297 76.0485 133.13 75.4652C132.91 75.4059 132.398 75.0084 132.382 75.4242C132.364 75.922 132.262 76.3702 132.208 76.8589C132.145 77.4252 132.198 78.0309 132.198 78.6009C132.198 79.7082 132.651 80.0221 133.571 80.5479C134.217 80.9171 131.628 80.6337 133.304 80.7323C133.388 80.7373 134.325 80.9129 134.37 80.9578C134.471 81.0587 133.312 80.743 133.12 80.7323C131.96 80.6679 130.665 80.1332 129.615 79.6666C128.794 79.3016 127.854 79.2935 127.033 78.9288C125.435 78.2187 123.5 78.3599 121.961 77.5044C121.234 77.1008 120.517 76.8319 119.747 76.49C118.811 76.0737 118.082 75.4127 117.185 75.0143C116.245 74.5966 116.228 73.5202 116.478 72.6575C116.827 71.4561 117.147 70.2389 117.483 69.0299C117.547 68.7987 117.891 67.5683 118.22 68.1897C119.294 70.2173 121.681 71.4426 123.088 73.2826C124.599 75.2585 126.253 76.6515 128.591 77.5864C128.837 77.6851 129.701 77.9656 129.615 77.9656C128.672 77.9656 127.462 76.8372 126.623 76.449C123.854 75.1675 121.561 73.4396 119.245 71.5098C119.133 71.4163 117.707 69.9116 118.364 70.2596C119.503 70.8625 120.682 71.6165 121.93 72.1451C124.399 73.1915 126.937 73.9616 129.615 74.2355C131.103 74.3877 132.955 74.1561 134.268 75.0143C137.593 77.1887 127.024 71.6986 123.641 69.614C121.731 68.437 120.043 66.9284 118.559 65.2589C117.919 64.5396 118.493 64.7486 118.938 65.1565C119.616 65.7778 120.608 66.1598 121.397 66.6116C123.025 67.5436 124.637 68.4949 126.152 69.6038C128.388 71.2412 130.252 73.4089 132.567 74.9221C132.927 75.1578 134.302 76.3306 134.852 76.1108C135.138 75.9965 132.779 74.3625 132.638 74.256C129.894 72.1795 127.392 69.7473 124.738 67.5543C123.086 66.1901 121.752 64.6572 120.803 62.7586C120.593 62.3395 120.071 61.1832 120.946 61.7749C121.947 62.4508 123.21 62.733 124.318 63.1992C126.011 63.9121 127.562 64.8659 129.144 65.7918C131.727 67.3039 134.023 68.8458 136.153 70.9359C137.155 71.9192 138.156 72.8181 139.391 73.4977C140.083 73.878 137.969 72.436 137.731 72.2886C134.899 70.5334 131.621 69.0469 129.042 66.9395C127.88 65.9902 126.631 65.0228 125.66 63.8755C125.159 63.2833 126.353 64.4815 126.49 64.5929C130.092 67.5192 133.584 70.6063 137.096 73.6412C138.928 75.2247 140.786 77.1705 142.793 78.5087C145.88 80.5665 136.808 74.1207 133.735 72.0426C132.109 70.943 130.43 69.4323 128.55 68.784C127.491 68.4189 128.685 68.8548 129.083 69.1324C131.674 70.942 134.318 72.6891 136.84 74.5942C137.241 74.8977 138.56 75.5413 138.059 75.4857C137.551 75.4293 136.633 74.5284 136.225 74.256C132.841 71.9999 129.446 69.6632 126.152 67.2776C124.713 66.2358 123.552 64.9214 122.002 64.06C121.367 63.7075 123.316 64.6848 123.928 65.0745C126.564 66.7518 129.03 68.3269 130.917 70.9052C131.922 72.2786 132.408 73.8877 133.212 75.373C133.4 75.7201 134.206 76.5714 134.206 76.9511C134.206 77.1329 129.636 76.6744 129.39 76.6744C128.663 76.6744 129.029 76.6217 128.509 76.3465C128.301 76.2364 127.509 75.7709 128.181 75.9776C129.642 76.4271 131.235 76.6621 132.751 76.8998C134.204 77.1278 135.873 77.3585 137.321 77.4122C140.419 77.5269 143.223 76.121 146.318 76.121C147.645 76.121 148.979 76.0761 150.305 76.1313C150.765 76.1505 155.072 76.0535 155.234 76.4182C155.553 77.1364 155.735 77.8885 156.269 78.5292C156.599 78.926 156.657 79.2567 156.084 79.2567C154.384 79.2567 153.045 77.8604 151.34 77.7811C150.76 77.7541 150.353 77.4947 149.813 77.3302C149.557 77.2525 148.876 77.2321 149.065 77.0433C149.371 76.7375 151.053 77.6687 151.278 77.7811C152.355 78.3193 153.966 78.9213 154.865 79.7076C155.656 80.4002 154.126 79.4437 153.871 79.308C149.648 77.0644 145.026 75.6272 140.785 73.3953C139.727 72.8384 138.553 72.1312 137.752 71.2228C137.249 70.6531 136.777 70.6162 136.04 70.2903C134.722 69.7074 132.456 69.0808 131.542 67.8617C131.484 67.7847 133.535 68.6069 133.94 68.743C139.338 70.5602 143.981 73.8092 149.085 76.2235C149.305 76.3276 152.104 77.3251 152.262 77.1868C152.311 77.1435 148.242 74.5073 148.122 74.4405C144.815 72.603 141.233 71.1642 138.141 68.9685C137.788 68.7176 135.501 66.5296 135.518 66.5296C135.668 66.5296 135.835 66.7275 135.969 66.796C137.204 67.4306 138.523 67.8258 139.822 68.3126C143.642 69.7452 147.665 71.3171 151.258 73.2518C151.72 73.5009 152.566 74.0921 153.133 74.0921C153.412 74.0921 152.411 73.5721 152.098 73.344C148.602 70.8014 145.532 67.8485 142.199 65.136C141.268 64.3783 141.56 64.5028 142.465 64.9105C145.385 66.2244 148.36 68.0104 150.991 69.8087C152.617 70.9198 153.849 72.8813 155.531 73.8154C155.72 73.9208 156.448 74.7961 156.176 74.1843C156.007 73.8026 155.529 73.579 155.295 73.2108C154.742 72.3416 154.148 71.5278 153.533 70.7002C152.111 68.7889 150.984 66.3777 150.182 64.1317C149.881 63.2905 149.827 63.551 150.294 64.1522C151.874 66.183 153.588 68.1096 155.223 70.0956C155.389 70.2966 157.204 72.7632 157.099 72.0631C157.029 71.6015 156.376 70.9511 156.135 70.5363C155.445 69.3435 154.689 68.2227 154.045 67.001C151.906 62.9463 149.536 59.2969 149.536 54.5813C149.536 54.3307 149.393 53.2875 149.628 53.7102C150.382 55.067 151.299 56.3333 152.047 57.7067C153.444 60.2751 154.91 62.7506 156.043 65.4536C156.169 65.7542 156.87 67.7256 156.719 66.5193C156.061 61.2549 153.594 56.2705 153.594 50.9332C153.594 49.7074 153.757 48.3761 153.584 47.1622C153.575 47.1006 153.405 46.5105 153.266 46.6499C152.889 47.0269 153.225 49.739 153.225 50.1339C153.225 53.0596 153.533 56.1949 153.041 59.0901C152.807 60.4629 152.823 61.9295 151.75 62.943C150.966 63.6829 149.995 61.3839 149.864 61.119C148.022 57.3872 147.185 52.9747 147.138 48.8428C147.132 48.2665 147.123 47.6672 146.913 47.1212C146.811 46.8578 146.585 46.6911 146.585 47.07C146.585 49.2645 146.991 51.3581 147.702 53.4438C148.97 57.1626 150.734 60.8141 151.647 64.6339C151.709 64.8932 152.153 67.1144 151.934 66.6218C151.624 65.9245 150.731 65.3513 150.233 64.7876C148.835 63.2048 147.566 61.3899 146.605 59.5102C145.096 56.5569 143.619 53.14 143.459 49.7855C143.366 47.8175 143.449 50.6489 143.449 51.1484C143.449 53.7469 143.939 56.1904 144.556 58.7007C145.008 60.5426 145.429 62.3963 145.888 64.2342C146.081 65.0051 146.247 64.7307 145.991 64.0907C144.811 61.1427 142.75 58.4007 141.174 55.6675C140.513 54.521 140.042 53.2099 139.227 52.1629C138.951 51.8073 139.006 51.8393 139.022 52.2859C139.04 52.7481 139.371 53.2078 139.617 53.577C140.525 54.9398 141.542 56.2265 142.445 57.594C144.45 60.6311 146.099 63.9113 148.02 67.001C148.449 67.6915 149.237 68.4324 149.577 69.1119C149.798 69.5539 148.751 68.6869 148.686 68.6303C147.428 67.5354 146.146 66.484 144.843 65.4434C141.565 62.8247 132.669 53.8957 135.815 56.6717C136.731 57.48 137.794 58.14 138.776 58.8646C140.585 60.199 142.277 61.6868 144.044 63.0763C145.364 64.1152 146.694 65.1351 148.04 66.1402C148.127 66.2049 149.485 67.2566 149.526 67.1547C149.838 66.3744 145.948 58.8824 146.073 58.8646C146.234 58.8415 148.377 62.109 148.573 62.4307C148.797 62.7994 150.318 65.5271 149.864 65.9353C149.532 66.2344 148.518 65.4663 148.306 65.3409C145.993 63.9695 143.808 62.6823 141.748 60.9141C139.575 59.0486 137.718 57.0926 136.502 54.4788C135.991 53.3814 135.322 52.1973 135.159 50.9742C135.127 50.7315 135.184 50.7054 135.292 50.9332C135.684 51.7563 136.13 52.437 136.655 53.1979C137.614 54.5855 138.541 55.9424 139.412 57.389C139.903 58.2052 140.204 59.1865 140.764 59.9508C141.524 60.9868 140.234 59.0658 139.945 58.8134C139.649 58.5552 134.227 54.722 134.227 56.0159C134.227 57.1051 135.055 58.1252 135.62 58.9876C136.857 60.8737 138.287 62.5817 139.699 64.3367C140.402 65.2111 141.177 66.0003 141.892 66.8575C141.983 66.9675 142.448 67.5105 142.332 66.9907C142.033 65.6457 139.949 63.968 138.981 63.2095C137.895 62.3579 136.703 61.5973 135.549 60.8424C135.039 60.5092 133.592 59.3891 132.936 59.5205C132.67 59.5736 133.27 59.9502 133.468 60.1353C134.27 60.8839 135.082 61.6231 135.876 62.3794C137.013 63.4607 138.108 64.591 139.207 65.7098C139.641 66.1519 139.925 66.8788 140.385 67.2469C140.753 67.541 139.579 66.756 139.207 66.4681C136.552 64.4166 133.958 62.121 131.583 59.7459C131.533 59.6962 130.743 58.8719 130.743 58.8954C130.743 59.1942 131.43 59.671 131.603 59.8484C133.183 61.4634 134.41 63.4258 135.805 65.1974C136.634 66.2502 136.56 66.5501 135.292 65.8328C132.882 64.4692 130.414 62.9464 128.345 61.0985C126.922 59.828 128.446 61.2327 128.898 61.7544C130.379 63.4633 132.003 65.1331 133.202 67.0522C134.357 68.9004 133.102 67.2053 132.167 66.6013C129.894 65.1333 127.879 63.5018 125.967 61.5904C125.506 61.1291 125.477 61.7035 124.604 61.3547C122.256 60.4154 119.574 59.9027 117.39 58.6084C117.068 58.4172 115.652 57.3256 116.612 57.1123C117.322 56.9544 118.318 55.339 118.835 54.8067C119.337 54.2897 119.704 53.52 120.024 52.8802C120.703 51.5216 121.561 49.3943 122.75 48.4534C123.725 47.6812 124.499 46.1415 125.271 45.1538C126.025 44.1876 127.035 42.9145 127.402 41.7209C127.678 40.8225 128.509 39.5178 128.509 38.6058C128.509 38.0919 128.338 39.6229 128.181 40.1121C127.73 41.5159 127.427 42.9815 126.992 44.3955C126.014 47.5757 125.31 50.8684 123.303 53.618C122.449 54.7878 121.607 56.2172 121.131 57.594C120.885 58.3023 120.437 59.3209 120.393 60.0738C120.292 61.7903 120.75 56.629 121.274 54.9912C121.909 53.0053 122.847 51.0956 123.713 49.2014C124.159 48.2247 124.44 47.0048 125.004 46.0965C125.249 45.7015 125.796 45.319 126.111 44.9591C127.587 43.2718 129.394 41.5828 131.224 40.2863C132.209 39.5891 131.282 42.3014 131.183 42.6432C130.145 46.2371 128.567 49.9998 126.715 53.2286C125.642 55.1007 124.598 56.9937 123.529 58.8646C123.355 59.1687 123.363 58.6004 123.385 58.5162C123.584 57.7426 124.031 56.979 124.379 56.2721C125.676 53.6382 127.367 51.144 128.919 48.6583C129.991 46.9399 131.06 45.1031 132.351 43.5347C133.109 42.6153 133.874 42.0081 133.376 43.6679C132.796 45.6026 131.613 47.6631 130.722 49.4781C129.503 51.9619 128.928 54.6094 127.914 57.1636C127.668 57.7836 127.402 58.4822 127.402 59.1516C127.402 59.4177 127.408 58.894 127.422 58.8339C127.792 57.2655 129.117 55.8041 129.984 54.4993C132.172 51.2089 134.445 47.9998 136.768 44.8054C138.041 43.0551 137.558 45.5451 137.219 46.4244C135.834 50.0168 133.408 53.3649 131.419 56.6512C130.584 58.0311 129.97 59.5459 129.287 60.9961C128.673 62.3016 131.199 58.8297 132.239 57.8297C134.425 55.7272 136.434 53.5811 138.356 51.2407C138.372 51.2213 139.038 50.3517 139.022 50.6668C138.959 51.9414 137.562 53.3435 136.829 54.2124C135.116 56.2456 133.066 58.37 130.917 59.9816C130.344 60.4113 130.452 59.6966 130.312 59.1106C130.115 58.2845 129.54 56.8357 128.652 56.5282C127.433 56.1063 126.649 56.8004 125.701 57.5325C125.435 57.7376 122.855 59.687 123.16 59.7049C124.215 59.767 125.188 59.3365 126.111 58.8749C126.664 58.5982 127.972 58.294 128.13 57.5837C128.321 56.7237 128.14 55.6385 128.14 54.7657C128.14 52.2951 128.096 49.8341 127.955 47.3672C127.844 45.4153 127.166 42.5258 128.14 40.7167C128.393 40.2468 128.645 39.7271 128.96 39.3231C129.373 38.7917 129.676 39.4006 130.2 39.61C132.296 40.4485 134.949 39.8915 137.178 40.358C140.426 41.0379 145.458 44.6641 145.458 48.5046C145.458 50.6276 143.209 52.7161 142.158 54.3968C141.842 54.9029 140.887 55.9766 140.887 56.6307C140.887 56.7748 141.148 56.4999 141.256 56.4053C142.018 55.7419 142.703 55.0106 143.347 54.2329C146.054 50.9628 148.331 47.3387 151.073 44.1085C151.148 44.0201 152.264 42.9584 152.323 43.4322C152.404 44.0812 151.883 45.1379 151.668 45.6866C151.05 47.2618 150.253 48.7507 149.413 50.2159C148.774 51.3305 148.175 52.4674 147.528 53.577C147.317 53.9374 147.376 53.7264 147.487 53.4336C147.94 52.2364 148.525 51.0931 149.208 50.011C151.124 46.9755 153.053 43.9541 154.926 40.8909C155.409 40.1018 156.217 38.0785 157.099 37.6118C157.431 37.436 157.253 39.0345 157.242 39.1181C156.988 41.0258 155.898 42.6604 154.926 44.2725C154.401 45.1441 153.882 46.3003 153.153 47.029C152.342 47.8405 154.44 45.1269 155.131 44.211C156.817 41.9787 158.442 39.7071 160.173 37.5093C160.542 37.0399 162.265 35.006 161.31 36.7715C159.499 40.1229 157.547 43.399 155.736 46.7523C155.649 46.9122 154.962 48.169 155.008 48.146C155.447 47.9264 155.854 47.3971 156.166 47.0598C157.221 45.9209 158.232 44.7414 159.292 43.6064C160.506 42.3054 161.825 41.1242 163.022 39.8047C163.251 39.5519 163.631 38.9782 163.749 39.5075C164.004 40.6558 163.727 41.1833 162.94 42.223C162.617 42.6488 161.953 43.2887 161.894 43.8421C161.875 44.0258 163.209 42.8787 163.349 42.7457C164.168 41.9724 165.685 40.4794 165.942 39.3231C166.022 38.9652 166.921 37.9602 167.325 37.9602C167.668 37.9602 166.658 42.3606 166.362 42.9199C166.18 43.2637 165.937 43.5882 165.952 43.0223C165.992 41.6077 167.12 40.0482 167.981 39.0054C168.925 37.8627 169.966 36.6931 171.014 35.6443C171.838 34.8204 172.885 34.5287 173.966 34.1687C174.252 34.0733 174.51 34.0662 174.806 34.0662C174.976 34.0662 173.876 34.5685 173.74 34.6401C169.263 37.0056 164.742 39.3818 161.157 43.0326C159.246 44.978 157.316 47.6264 156.217 50.1544C155.885 50.9198 155.627 51.7254 155.346 52.5113C155.091 53.2261 155.837 51.5528 155.889 51.4661C157.775 48.3327 159.613 45.2579 161.341 42.0386C162.548 39.7896 164.127 37.7962 165.768 35.8492C166.102 35.4528 167.307 33.7793 167.94 33.7793C168.072 33.7793 167.92 34.0474 167.869 34.1687C167.53 34.9587 166.762 35.7061 166.26 36.3718C164.412 38.8206 162.493 41.2817 160.993 43.9651C159.687 46.2986 157.961 49.4619 157.652 52.1424C157.325 54.9746 159.296 46.6825 160.091 43.9446C161.089 40.5081 161.971 36.9937 163.185 33.6256C163.669 32.2843 164.069 31.5991 165.235 30.8076C166.107 30.2157 167.02 29.681 167.94 29.168C168.467 28.8743 169.265 28.6356 168.463 29.4139C164.381 33.376 160.411 37.4468 156.596 41.6697C153.595 44.9931 150.594 48.7467 148.798 52.8905C148.347 53.9311 147.717 55.0001 147.692 56.1593C147.682 56.5858 147.689 56.9372 148.081 56.436C150.071 53.8936 151.391 50.8105 152.825 47.941C152.918 47.7555 153.778 45.4695 153.778 46.7114C153.778 48.9818 151.618 51.0429 150.756 53.0339C150.737 53.0766 150.432 53.894 150.458 53.618C150.749 50.6123 152.15 47.6613 153.287 44.9078C155.831 38.7422 158.336 32.4274 161.956 26.8111C162.144 26.5188 162.344 26.4368 162.243 26.8931C161.919 28.3477 160.139 29.7201 159.21 30.7461C157.319 32.8329 155.39 34.8866 153.574 37.0379C151.962 38.9459 150.106 40.6377 148.511 42.551C147.638 43.5993 146.776 44.6555 145.857 45.6661C144.054 47.6498 149.333 41.583 151.114 39.5792C152.723 37.7691 154.285 35.9129 155.828 34.0457C156.12 33.6923 156.262 33.6692 156.053 34.2712C154.651 38.3217 151.147 41.443 149.208 45.2357C149.035 45.5747 148.798 46.6821 148.798 46.3015C148.798 45.9624 149.184 45.4694 149.331 45.2562C150.365 43.7605 151.574 42.3993 152.672 40.9524C154.039 39.1512 155.21 37.1961 156.607 35.4188C157.162 34.7124 155.521 36.8543 154.906 37.5093C151.883 40.7288 149.06 44.0802 146.513 47.6951C146.295 48.0048 145.294 49.7347 145.294 49.4576C145.294 48.5847 145.448 47.6735 145.806 46.8753C145.874 46.7235 146.219 45.9543 146.175 46.0043C144.447 47.9486 142.693 49.6602 141.236 51.8452C140.364 53.1534 140.615 52.6658 140.457 51.4251C140.059 48.2881 139.842 45.1338 141.338 42.2025C143.006 38.9354 145.655 35.9735 149.188 34.7015C149.8 34.4813 150.411 34.2769 150.007 35.2856C148.723 38.4963 145.962 41.4239 143.9 44.1495C142.807 45.594 141.756 47.1519 140.447 48.4124C140.169 48.6798 139.297 49.6865 140.15 48.8018C142.076 46.8021 143.88 44.6391 145.724 42.5612C147.901 40.108 150.067 37.4944 151.832 34.722C152.182 34.1713 151.933 34.8806 151.77 35.1114C149.88 37.7834 146.773 39.9574 144.238 41.9566C142.741 43.1372 141.15 44.105 139.596 45.1948C139.064 45.5681 138.564 45.9797 138.192 46.5167C137.941 46.88 137.745 47.3068 138.387 46.9573C140.196 45.9728 141.875 44.768 143.541 43.5654C145.066 42.4654 146.647 41.3967 148.061 40.1531C148.484 39.7807 147.309 40.9931 146.933 41.4135C144.225 44.4465 141.701 47.6989 138.879 50.6258C138.487 51.0322 138.125 51.4386 137.547 51.4046C136.886 51.3657 136.654 47.0655 136.625 46.6499C136.6 46.3069 135.97 46.3532 135.702 46.2195C135.113 45.9251 134.399 45.3347 133.94 44.8668C133.249 44.1628 132.491 42.5342 133.243 41.6287C134.051 40.655 136.678 39.4141 137.977 40.0096C138.396 40.2014 133.823 44.2328 133.038 44.8873C132.047 45.7131 135.122 43.3672 136.153 42.5919C137.706 41.424 139.594 39.5696 141.502 38.9337C142.295 38.6693 140.155 39.9251 139.453 40.3785C139.088 40.6141 137.567 41.321 137.567 41.8951C137.567 42.0545 142.4 40.5047 143.142 40.7167C143.316 40.7665 142.901 40.9918 142.752 41.0958C141.904 41.6908 141.022 42.2384 140.15 42.7969C140.025 42.8766 138.515 43.847 138.93 43.4835C140.565 42.0526 142.125 40.5075 143.716 39.0259C144.561 38.2391 145.553 37.4072 146.175 36.4231C147.733 33.9562 149.63 31.2297 152.354 29.9161C153.502 29.3626 157.287 28.6354 156.043 28.9118C154.861 29.1745 153.73 30.4762 152.713 31.0945C150.762 32.2804 148.766 33.4209 146.769 34.5273C145.506 35.2274 144.312 36.022 143.111 36.8227C142.865 36.9867 141.433 38.4154 141.174 38.3291C140.895 38.2358 141.563 37.8847 141.779 37.6835C143.139 36.414 144.47 35.115 145.816 33.8305C148.366 31.3974 150.912 28.9194 153.574 26.6062C153.608 26.5763 155.189 25.1588 155.316 25.2433C155.478 25.3518 155.062 25.546 154.906 25.6634C153.609 26.636 152.247 27.5374 150.909 28.4507C147.648 30.6766 144.219 32.6267 140.795 34.5888C139.548 35.3037 138.346 35.9513 137.321 36.9764C137.087 37.2103 136.399 37.8781 136.707 37.7552C138.195 37.1596 139.672 35.807 141.021 34.9577C144.836 32.5545 149.068 30.5882 152.569 27.7231C157.251 23.893 143.381 35.6098 139.104 39.8867C138.327 40.6645 139.725 38.9102 139.945 38.6775C141.051 37.5036 139.608 38.1683 138.94 38.493C137.77 39.0619 136.537 39.6166 135.333 40.1121C134.96 40.266 135.396 39.4767 135.436 39.405C135.857 38.6395 136.527 38.0201 137.075 37.3453C137.574 36.7314 138.779 36.0609 137.547 36.0952C136.267 36.1307 134.523 36.8812 133.427 37.5708C129.865 39.8135 139.736 31.9644 143.203 29.5779C143.816 29.1562 144.428 28.7405 145.079 28.379C145.282 28.2658 146.074 28.0012 146.185 27.7231C146.224 27.6252 145.994 27.8146 145.909 27.8769C145.07 28.4897 144.162 29.0021 143.285 29.5574C141.635 30.6031 139.903 31.6271 138.387 32.8673C137.958 33.2182 137.634 33.3284 137.086 33.3284C136.197 33.3284 135.458 34.2009 134.79 34.7015C133.967 35.3191 133.139 35.6468 132.28 36.1976C131.844 36.477 128.188 38.9105 129.841 37.1711C131.705 35.2084 133.677 33.3331 135.928 31.8323C137.796 30.5869 139.514 29.2202 141.256 27.7949C143.381 26.0565 145.623 24.6478 147.917 23.1631C149.159 22.3598 150.494 21.7663 151.709 20.9087C153.864 19.3869 155.777 17.5973 158.021 16.195C160.088 14.9029 161.802 13.684 163.534 11.9526C165.61 9.87604 167.656 7.75028 169.949 5.90668C170.72 5.28618 171.484 4.78856 172.388 4.39008C173.054 4.09615 173.885 3.84207 174.376 3.26288C174.457 3.16603 175.209 1.80843 174.867 2.38162C173.913 3.9851 172.229 5.59812 170.973 6.99289C170.551 7.46178 170.201 8.21581 169.867 8.75543C168.858 10.3846 166.4 10.4518 164.743 11.0508C163.83 11.3811 162.866 12.1828 161.894 12.2907C160.903 12.4008 159.856 12.294 158.861 12.301C156.346 12.3186 154.26 12.8166 151.934 13.5921" stroke="#1F232E" stroke-width="3" stroke-linecap="round"/>
<path d="M159.682 11.3785C160.495 11.3785 161.316 11.1941 162.079 11.1941C162.525 11.1941 163.899 10.8252 162.633 10.8252C160.933 10.8252 159.408 11.9319 157.745 11.9319C156.126 11.9319 154.126 12.536 152.58 13.2231C151.734 13.599 151.082 14.5596 150.193 14.8831C149.369 15.1824 148.645 15.891 147.877 16.3177C146.917 16.8509 146.145 17.7292 145.253 18.3467C144.826 18.6428 143.986 18.7328 143.491 18.9001C142.553 19.2167 141.747 19.6642 140.878 20.1297C140.255 20.4632 139.37 20.6817 138.839 21.1545C137.584 22.27 136.044 23.0064 134.863 24.1876C133.943 25.1077 132.747 26.0982 132.198 27.3336C131.83 28.1629 131.269 28.9168 130.907 29.7314C130.54 30.5565 130.395 31.3975 130.128 32.2625C129.664 33.7734 130.409 32.574 130.907 32.2625C131.936 31.6198 131.088 32.4075 130.764 32.9593C130.426 33.5334 129.878 34.117 129.432 34.6194C129.335 34.7285 128.888 35.561 129.063 35.2547C129.285 34.8654 129.574 34.4774 129.893 34.1583C130.426 33.6255 131.006 33.0375 131.461 32.447C131.763 32.0532 132.376 31.3228 132.844 31.1148C133.483 30.8306 134.553 29.8671 135.057 29.3625C135.597 28.8224 136.654 27.8129 137.363 27.6102C138.172 27.379 138.839 26.3186 139.576 25.9092C140.49 25.4018 141.222 24.5671 142.118 24.0032C142.921 23.4977 143.588 22.6815 144.372 22.2202C145.148 21.7638 145.751 20.897 146.627 20.5601C147.809 20.1052 149.185 19.2673 150.182 18.4799C151.026 17.8141 152.464 17.153 153.502 16.9223C153.956 16.8214 154.973 16.4346 155.255 16.0821C155.812 15.386 157.924 14.5142 158.759 14.5142" stroke="#1F232E" stroke-width="3" stroke-linecap="round"/>
<path d="M159.497 13.4075C158.13 13.4075 155.638 13.0296 154.557 14.0019C154.207 14.317 153.386 14.7204 152.938 14.8831C152.028 15.2142 151.374 16.0088 150.602 16.5432C149.408 17.37 148.597 18.568 147.323 19.269C145.657 20.1853 144.18 21.574 142.568 22.6301C141.188 23.5341 139.706 24.7196 138.51 25.8067C137.954 26.3122 139.221 24.4965 139.473 24.1979C139.964 23.6179 140.653 23.1736 141.092 22.6711C141.923 21.7215 138.816 23.7705 137.629 24.1979C136.619 24.5616 135.684 24.9644 134.924 25.7247C134.473 26.1757 132.995 29.2703 133.95 29.2703C136.225 29.2703 138.466 29.4548 140.754 29.4548C143.246 29.4548 145.569 27.8569 147.784 26.9544C149.191 26.3811 150.696 25.2151 151.893 24.2901C152.657 23.7002 154.398 22.5834 152.846 24.2901C150.893 26.4382 148.552 28.5196 146.175 30.1926C146.002 30.3144 145.04 31.2788 144.833 31.2788C144.597 31.2788 144.915 30.6145 144.925 30.5205C145.037 29.4749 146.13 28.6745 146.769 27.9382C148.021 26.4981 149.378 24.9706 151.032 23.993C152.362 23.2073 153.763 22.4618 155.254 22.0357C155.973 21.8302 157.884 20.7178 157.355 21.2467C156.629 21.9725 155.297 22.1895 154.475 22.8145C153.327 23.6883 151.554 24.7091 150.756 25.9502C149.998 27.1287 149.639 27.8074 149.721 29.2703C149.753 29.8437 150.797 31.5837 151.391 31.6579C152.815 31.8359 154.32 32.2923 155.767 32.5494C158.329 33.005 159.328 30.5332 160.788 28.9014C161.795 27.7756 160.332 30.0833 160.132 30.3873C159.051 32.0305 158.082 34.2945 156.73 35.7261C156.102 36.3906 153.24 39.814 152.528 38.124C152.292 37.5616 152.303 36.6655 152.303 36.0642C152.303 34.3623 152.17 32.6198 152.672 30.9713C153.156 29.3806 153.632 27.9603 155.152 27.2004C156.514 26.5191 158.132 26.1107 159.415 25.2944C160.772 24.4306 160.435 26.0425 160.419 26.9749C160.365 30.0224 158.38 33.3125 156.73 35.7876C156.193 36.5933 155.636 36.8328 156.955 36.8328C158.836 36.8328 159.937 36.3712 161.239 34.8961C162.374 33.6096 163.226 31.5319 163.821 29.9159C163.858 29.8151 164.188 29.2263 164.067 29.4548C163.608 30.3212 162.948 31.0522 162.366 31.8321C161.669 32.7656 160.605 35.0272 159.415 35.3674C157.867 35.8095 158.39 29.6064 158.39 28.5325C158.39 28.2161 158.01 23.0629 159.23 23.8392C160.378 24.5699 162.181 26.0439 162.263 27.5283C162.346 29.0217 161.296 29.4276 160.06 29.9979C158.987 30.4932 158.351 30.2412 157.919 29.2088C157.413 28.0009 156.762 26.4165 157.129 25.0689C157.287 24.4899 157.811 24.7716 157.837 25.2124C157.89 26.1541 158.112 27.0152 157.98 27.9791C157.816 29.1785 157.078 30.3536 156.351 31.2993C155.949 31.8212 155.55 32.7333 154.978 33.0515C153.858 33.6733 154.332 28.2554 154.332 27.8152C154.332 25.7339 154.227 23.622 154.342 21.5439C154.378 20.8993 154.619 20.0193 155.162 19.5969C155.572 19.2778 156.75 19.3796 157.283 19.1665C158.13 18.8279 159.14 18.3877 160.06 18.3877C160.615 18.3877 161.982 18.2637 161.444 19.3099C160.745 20.6682 159.3 22.2735 158.205 23.3679" stroke="#1F232E" stroke-width="3" stroke-linecap="round"/>
<path d="M143.266 15.2522C144.256 15.2522 144.701 14.0119 145.561 13.7663C146.27 13.5637 146.921 12.683 147.59 12.3009C148.225 11.938 148.972 10.9902 149.537 10.4564C149.85 10.1612 150.33 9.82152 150.726 9.70838C151.029 9.62184 151.284 9.10589 151.566 8.93984C152.026 8.66933 152.523 8.10537 152.898 7.73066C153.217 7.41142 153.687 7.32104 154.056 7.03384C154.797 6.45767 156.263 5.69278 157.192 5.4865C158.49 5.19806 159.96 5.11159 161.157 4.51301C161.933 4.12515 163.224 3.54557 164.109 3.44729C165.131 3.33375 166.151 2.70949 167.152 2.70949C168.079 2.70949 169.127 2.34059 170.103 2.34059C172.476 2.34059 174.866 2.14474 177.02 3.22185C177.538 3.48068 178.728 4.05989 179.049 4.46177C179.464 4.97987 180.747 5.10567 181.355 5.57873C182.265 6.28639 183.08 6.93808 183.886 7.83313C184.669 8.70344 185.241 9.7751 186.058 10.6409C186.949 11.5841 186.475 12.4255 186.888 13.4999C187.702 15.6153 189.302 17.4229 190.762 19.2076C191.062 19.5746 191.455 20.1634 191.674 20.6012C191.867 20.988 192.464 21.4633 192.514 21.8924C192.612 22.7284 193.426 23.8197 193.713 24.6489C194.152 25.9167 194.371 27.1397 194.768 28.4302C196.572 34.2913 198.859 40.5297 196.664 46.6088C196.317 47.5709 196.055 49.468 195.424 50.2569C194.987 50.8035 194.779 49.4605 194.717 49.1502C194.155 46.3387 193.944 43.3876 193.17 40.6244C192.985 39.9637 192.807 39.3675 192.33 38.8619C191.659 38.1522 190.952 37.634 190.137 37.1096C188.715 36.1954 189.992 37.667 190.526 38.3495C191.895 40.1004 193.419 41.8231 194.912 43.4732C196.093 44.7789 193.903 43.7526 193.344 43.3912C192.317 42.7267 191.269 42.143 190.26 41.4442C189.951 41.2302 189.101 40.1339 189.471 40.7986C189.572 40.9813 190.227 42.0581 189.829 42.1718C189.164 42.3619 187.289 40.5864 186.837 40.235C185.552 39.2355 182.639 35.3598 183.332 36.8329C183.891 38.0193 184.998 40.119 186.14 40.8806C186.299 40.9867 185.712 40.8491 185.597 40.6962C185.246 40.2286 184.665 39.8311 184.214 39.4562C182.695 38.1951 181.152 36.6398 179.521 35.552C178.545 34.9018 177.198 33.966 176.467 33.0517C175.983 32.4465 177.855 33.3169 178.024 33.3694C181.917 34.5742 186.008 36.0609 189.624 37.9396C191.118 38.7155 193.214 39.6164 194.277 40.9831C195.065 41.9961 193.936 40.7679 193.477 40.481C190.818 38.8187 188.52 36.5608 185.925 34.7937C183.916 33.4261 181.707 32.2975 179.971 30.5616C179.406 29.9964 180.028 30.3579 180.381 30.6026C181.535 31.4025 182.756 32.0841 183.927 32.857C185.384 33.8194 186.83 34.8028 188.313 35.7262C189.387 36.3955 190.372 37.2663 191.489 37.8474C192.318 38.2784 193.262 39.3079 191.961 38.0421C189.822 35.9608 187.706 33.7179 185.392 31.8323C184.755 31.3132 184.144 30.7779 183.486 30.2849C182.677 29.6779 185.251 31.2808 186.079 31.863C189.064 33.9634 192.207 35.9283 195.014 38.2676C195.247 38.4613 195.822 38.7863 195.978 39.0463C196.057 39.1785 195.116 38.3289 194.953 38.1856C193.598 36.9951 191.986 36.1529 190.608 34.9884C188.91 33.5537 187.275 32.0493 185.566 30.6231C184.65 29.8581 182.028 27.5093 183.107 28.0203C183.816 28.3563 184.508 29.1012 185.075 29.6188C186.446 30.872 187.84 32.0718 189.245 33.2874C189.793 33.7613 190.212 34.3216 190.834 34.7015C190.963 34.7804 191.787 35.5858 191.366 35.1319C189.554 33.1749 188.148 30.8269 186.263 28.9425C185.733 28.4125 185.215 27.8742 184.685 27.344C184.167 26.8262 185.42 27.7222 185.515 27.8051C188.584 30.465 191.892 32.8291 194.83 35.6442C195.038 35.8438 197.207 37.8595 196.377 37.0994C194.005 34.9249 191.625 32.727 189.235 30.5616C187.421 28.918 184.941 27.4151 183.476 25.438C183.437 25.3852 182.864 24.907 183.332 25.0691C184.266 25.3921 185.172 26.3561 185.956 26.9238C188.696 28.908 191.537 30.7475 194.277 32.734C194.585 32.9579 194.941 33.1372 195.24 33.3694C195.759 33.7734 194.436 32.3125 193.928 31.8937C191.611 29.982 189.409 27.9453 187.083 26.0425C185.867 25.0479 189.728 27.7436 190.977 28.6966C193.618 30.7124 196.303 32.772 198.785 34.9782C198.869 35.0523 199.725 35.7742 199.226 35.4291C198.186 34.7087 197.282 33.859 196.285 33.0824C193.542 30.9468 190.282 29.5387 187.8 27.057C187.261 26.5178 186.738 25.9065 186.284 25.2945C185.749 24.574 186.721 25.0122 187.022 25.2433C189.777 27.3632 198.32 33.3512 195.455 31.3814C193.469 30.0157 191.622 28.2547 189.86 26.6061C189.363 26.1415 186.898 24.1808 188.846 25.4789C192.425 27.8653 196.023 30.3309 199.687 32.5701C200.875 33.2958 201.804 34.1583 200.077 32.6315C197.591 30.4341 195.144 28.1758 192.78 25.8479C192.457 25.5289 191.37 24.7223 191.776 24.9256C192.243 25.159 192.77 25.7462 193.201 26.0733C194.495 27.0573 195.789 28.0382 197.033 29.086C198.043 29.9362 199.261 30.5453 200.22 31.4429C200.735 31.925 200.411 31.7054 200.036 31.4019C198.66 30.2894 197.461 29.1152 196.285 27.7948C195.185 26.5598 193.906 25.4689 192.873 24.1775C192.468 23.671 192.072 23.1601 191.633 22.6814C191.521 22.5591 191.17 22.2818 191.336 22.2818C192.068 22.2818 193.182 23.4983 193.672 23.8906C195.356 25.2378 197.152 26.4513 198.929 27.6719C200.272 28.5945 201.614 29.4784 202.905 30.4796C203.119 30.6458 203.646 31.0801 203.202 30.5616C200.883 27.8565 197.576 25.7906 194.83 23.573C194.019 22.9183 193.225 22.2997 192.371 21.7079C191.913 21.3912 192.853 21.7173 192.965 21.7899C195.49 23.424 198.094 24.9352 200.609 26.5857C201.156 26.944 201.684 27.2928 202.198 27.6924C202.635 28.0325 201.692 26.9838 201.614 26.8931C199.725 24.7108 197.537 22.9063 195.752 20.6217C195.509 20.3102 194.785 19.7096 194.922 19.2281C194.99 18.9921 196.371 19.9808 196.47 20.0376C199.427 21.7463 202.176 23.7975 204.872 25.8683C205.04 25.9974 206.456 26.8201 206.266 27.2005C206.217 27.2992 204.384 25.3823 204.288 25.274C201.938 22.6146 199.196 20.3071 196.756 17.732C194.476 15.3251 201.642 22.2565 204.401 24.0956C204.815 24.3719 203.696 23.3874 203.397 22.9889C202.484 21.7718 201.574 20.6236 200.568 19.474C199.919 18.7322 199.299 17.9788 198.601 17.2811C198.449 17.1287 197.733 16.5581 198.242 16.7278C199.862 17.2678 201.516 19.2446 202.802 20.2733C203.466 20.8042 204.782 20.6739 205.282 21.5235C205.885 22.5485 206.616 23.6173 207.27 24.6182C207.734 25.3272 208.2 25.9362 208.387 26.7804C208.506 27.3152 208.646 28.2913 208.93 28.7171" stroke="#1F232E" stroke-width="3" stroke-linecap="round"/>
<path d="M163.002 35.7263C161.219 35.7263 166.568 35.7263 168.351 35.7263C169.542 35.7263 171.101 35.6018 172.224 36.003C172.735 36.1854 173.431 36.2796 173.977 36.2796C174.991 36.2796 176.006 36.2796 177.02 36.2796C177.437 36.2796 177.98 36.3367 177.471 35.9005C176.131 34.7522 174.654 34.0914 173.085 33.2464C172.057 32.6928 170.664 31.7319 169.458 31.6684C168.894 31.6387 169.477 31.6684 169.724 31.6684C170.858 31.6684 172.018 31.7431 173.147 31.6274C175.615 31.3742 178.215 30.9305 180.699 30.9305C183.012 30.9305 178.687 30.9983 178.291 31.033C173.271 31.4722 168.196 32.4303 163.268 33.4719C162.289 33.6788 161.225 33.7786 160.276 34.1072C158.913 34.5789 163.168 34.1495 164.6 33.9842C169.995 33.3618 175.479 33.0332 180.832 32.1192C181.658 31.9782 184.171 31.8528 183.332 31.8528C182.326 31.8528 181.359 31.8893 180.361 32.0577C176.135 32.7705 171.961 33.6806 167.695 34.1072C167.087 34.168 165.288 34.528 165.892 34.4351C166.41 34.3554 166.915 34.0898 167.388 33.8818C168.834 33.2453 170.301 32.68 171.794 32.1602C175.252 30.9563 178.812 30.0417 182.256 28.8196C186.582 27.2846 173.089 29.8435 168.679 31.115C167.663 31.4078 166.66 31.7403 165.646 32.0373C164.99 32.2292 163.076 32.5044 163.719 32.7341C164.295 32.9398 165.321 32.6526 165.892 32.5906C167.566 32.4088 169.232 32.1807 170.892 31.8938C175.941 31.0212 180.959 29.93 186.017 29.127C186.15 29.106 187.304 28.9127 186.581 28.8094C183.616 28.3858 180.287 28.6538 177.327 28.9323C171.939 29.4395 166.72 30.8548 161.372 31.4839C161.151 31.51 160.151 31.8593 160.768 31.5454C162.982 30.4183 165.229 29.4247 167.552 28.5327C170.568 27.3744 173.656 26.4163 176.692 25.315C177.523 25.0137 178.346 24.5856 179.233 24.4748C180.743 24.286 176.182 24.4786 174.673 24.6797C171.777 25.0659 168.902 25.7666 166.076 26.5037C164.771 26.8442 163.382 27.0628 162.11 27.508C161.238 27.8134 162.276 27.6168 162.725 27.6002C165.652 27.4918 168.576 26.8664 171.466 26.4217C173.975 26.0358 176.505 25.8141 179.008 25.397C180.066 25.2206 181.172 25.0515 182.246 25.0281C183.103 25.0095 180.195 25.0762 179.93 25.1101C175.429 25.6871 171.267 27.8933 166.906 28.9836C166.833 29.0018 165.108 29.497 165.174 29.6291C165.465 30.2111 170.573 29.0628 170.984 28.9938C174.601 28.3866 178.318 27.6774 182 27.6104C182.151 27.6077 182.834 27.6104 182.779 27.6104C180.016 27.6104 177.279 27.9238 174.55 28.3482C172.461 28.6733 170.387 29.1425 168.289 29.414C167.313 29.5404 166.203 29.61 165.256 29.8648C160.784 31.0688 174.071 26.9684 178.598 25.9914C180.088 25.6697 181.593 25.4257 183.086 25.1203C183.174 25.1024 184.217 24.8739 183.968 24.8539C182.862 24.7655 181.714 24.8437 180.607 24.8437C173.638 24.8437 166.807 25.029 159.897 25.9504C159.711 25.9752 158.809 26.1466 159.518 26.1348C161.302 26.1051 162.991 25.4376 164.723 25.0691C167.672 24.4416 170.575 23.6045 173.495 22.8557C174.663 22.5561 176.118 22.4696 177.205 21.8924C179.974 20.4213 171.059 23.2065 168.084 24.1981C166.347 24.7771 164.56 25.2595 162.858 25.9401C162.01 26.2793 160.526 26.7191 162.51 26.0323C167.397 24.3406 172.439 22.8814 177.225 20.9292C177.952 20.6326 178.818 20.146 179.602 20.0479C180.816 19.8962 177.147 19.9757 175.934 20.1299C171.027 20.7534 166.087 22.022 161.29 23.2656C161.212 23.2861 160.336 23.6052 160.665 23.532C161.656 23.3119 162.618 22.7116 163.565 22.3433C164.462 21.9945 165.38 21.6459 166.26 21.2571C166.85 20.9967 168.646 20.4526 168.002 20.4168C166.621 20.3401 165.436 20.9182 164.17 21.4006C161.248 22.5136 158.272 23.4849 155.357 24.6182C154.28 25.0371 153.255 25.6689 152.129 25.9504C151.423 26.127 153.181 25.8897 153.369 25.8377C157.328 24.7428 161.531 23.2732 165.215 21.4313C165.879 21.0994 166.515 20.815 167.203 20.5603C167.495 20.4522 167.945 20.2324 167.408 20.2324C165.928 20.2324 164.911 20.6549 163.514 21.1751C161.512 21.9208 159.42 22.4438 157.448 23.2656C156.901 23.4934 156.055 23.5293 155.573 23.8189C154.483 24.4727 157.799 22.5931 158.903 21.9642C162.088 20.1497 165.316 18.4106 168.525 16.6458C168.809 16.4896 169.605 16.4037 169.376 16.1745C168.937 15.7357 166.286 16.6159 165.81 16.7688C164.329 17.2439 162.899 17.8886 161.424 18.3879C160.568 18.6774 159.658 19.2044 158.759 19.3101C158.021 19.397 160.166 18.8311 160.87 18.5928C163.889 17.5713 166.894 16.4777 169.929 15.5084C171.381 15.0446 172.797 14.6085 174.223 14.0738C174.609 13.9289 175.201 13.9611 174.417 13.9611C172.046 13.9611 169.609 15.3251 167.367 15.949C166.187 16.2774 166.064 16.5288 167.06 16.031C168.274 15.4237 167.025 15.6012 166.24 15.7133C164.229 16.0007 162.063 16.5865 160.153 17.2812C158.088 18.0322 164.172 15.4972 166.137 14.5144" stroke="#1F232E" stroke-width="3" stroke-linecap="round"/>
<path d="M168.535 4.36938C167.336 4.36938 166.137 4.36938 164.939 4.36938C163.861 4.36938 162.83 4.95633 161.782 5.11744C159.922 5.40367 157.995 6.63872 156.362 7.54604C155.979 7.75853 154.18 8.80802 154.804 9.43154C155.304 9.93195 156.417 10.0883 157.038 10.4563C157.739 10.8716 158.81 10.8252 159.6 10.8252C161.717 10.8252 163.835 10.8252 165.953 10.8252C166.705 10.8252 167.287 10.0846 167.244 9.34956C167.2 8.59349 164.63 9.57248 164.375 9.71847C163.384 10.2846 163.181 11.5874 163.832 12.3828C164.521 13.2249 166.033 13.7873 166.968 14.3297C167.872 14.8548 169.493 15.6863 170.564 15.8054C171.804 15.9431 173.074 16.0842 173.843 14.6986C174.863 12.8638 169.892 12.7146 168.904 12.5775C168.133 12.4703 167.365 12.4852 166.588 12.4852C166.55 12.4852 165.823 12.4579 165.994 12.6287C166.406 13.0407 168.369 11.2846 168.617 11.0199C169.619 9.95101 170.811 9.20971 171.128 7.78173C171.397 6.56864 173.073 6.4825 173.69 5.76302C174.029 5.3667 175.208 5.10719 175.729 5.10719C176.566 5.10719 177.788 5.10148 178.455 5.70153C179.597 6.72985 181.04 7.79927 182.287 8.71423C183.778 9.80714 184.685 10.9699 185.792 12.393C186.377 13.145 187.004 13.6396 187.442 14.5142C188.005 15.6414 188.316 16.7353 188.784 17.8958C189.228 18.997 189.352 20.2247 189.839 21.3081C189.872 21.3798 190.387 22.5833 190.157 22.4046C189.089 21.5736 187.915 19.9698 187.308 18.7566C186.571 17.281 188.784 21.7078 189.522 23.1834C189.847 23.8333 189.765 23.9958 189.153 23.5523C187.898 22.6435 186.636 21.3891 185.515 20.3244C185.15 19.9772 184.764 19.6568 184.398 19.3099C184.256 19.1753 183.694 18.9846 183.886 19.023C184.9 19.2259 186.198 20.9878 186.97 21.6156C187.684 22.1957 188.468 23.0212 188.917 23.829C189.461 24.8086 188.28 23.6959 187.841 23.4703C185.951 22.498 183.873 21.7369 182.082 20.5908C181.569 20.2624 181.137 20.0128 180.566 19.8223C179.855 19.5853 181.034 20.3722 181.221 20.5601C182.846 22.1841 184.386 23.8008 186.161 25.2738C186.34 25.4228 187.806 26.7849 187.237 26.3908C183.617 23.8851 179.728 21.7549 176.118 19.2279C175.216 18.5962 177.739 20.7231 178.496 21.5233C178.957 22.0114 179.41 22.5315 179.777 23.0809C180.681 24.437 177.275 20.9892 176.077 19.8838C174.804 18.7086 173.578 17.4531 172.511 16.082C171.877 15.2671 173.739 17.8343 172.737 17.8343C171.715 17.8343 170.335 16.725 169.488 16.2665C169.115 16.0642 168.766 15.8251 168.392 15.6209C167.671 15.2276 169.528 16.807 170.113 17.3834C170.861 18.1206 172.016 18.9508 172.552 19.8633C172.781 20.2527 171.069 19.5296 170.657 19.5046C170.213 19.4777 168.244 19.3099 168.494 19.3099C169.998 19.3099 171.528 19.4944 173.054 19.4944C174.346 19.4944 175.637 19.4944 176.928 19.4944C177.371 19.4944 176.782 19.4944 176.651 19.4944C175.933 19.4944 175.191 19.552 174.479 19.4534C173.787 19.3577 171.703 19.1252 171.343 18.3159C171.268 18.1472 172.175 18.2032 172.265 18.2032C173.379 18.2032 174.493 18.1873 175.606 18.2032C177.765 18.2341 179.438 18.8898 181.447 19.3919C182.049 19.5423 182.868 19.8295 183.476 19.8633C183.72 19.8768 184.783 19.9867 184.306 19.6686C182.87 18.711 181.227 18.1804 179.602 17.5576C177.934 16.9182 176.051 16.6376 174.479 15.7644C173.698 15.3305 172.347 14.4594 172.409 13.4075C172.432 13.0146 177.032 14.6017 177.666 14.8831C179.157 15.5458 180.463 16.7446 182.092 17.1068C182.786 17.2609 184.581 17.4644 185.095 17.8753C185.544 18.2342 184.683 17.3543 184.572 17.1887C184.019 16.358 183.259 15.4494 182.636 14.6372C182.194 14.0612 181.435 13.1247 181.273 12.393C181.112 11.6708 182.323 13.0914 182.41 13.182C183.509 14.3236 184.58 15.6981 185.279 17.0965C185.562 17.6616 187.367 18.7842 186.519 17.4654C185.652 16.1161 184.744 14.7612 183.763 13.4997C183.229 12.8128 182.644 12.3361 181.959 11.7884C181.365 11.3131 180.396 11.2385 179.828 10.7842C179.15 10.2418 178.542 10.1918 177.942 9.44179C177.434 8.80682 176 8.79621 175.268 8.79621C173.772 8.79621 172.04 9.56575 172.04 11.2863C172.04 13.4348 177.12 12.7145 178.639 13.182C180.027 13.6092 181.498 13.9651 182.646 14.8831C183.843 15.8412 179.727 13.7957 178.516 12.8541C177.787 12.2868 176.749 11.7196 175.831 11.5527C175.509 11.4941 174.722 11.1875 174.479 10.9686C173.325 9.93017 175.026 10.0874 175.729 10.0874C176.761 10.0874 177.507 9.92042 177.573 8.79621C177.612 8.14515 178.865 6.98398 178.865 8.24286" stroke="#1F232E" stroke-width="3" stroke-linecap="round"/>
<path d="M179.233 8.61193C179.257 8.44407 181.693 10.7022 182 11.0098" stroke="#1F232E" stroke-width="3" stroke-linecap="round"/>
<path d="M146.032 52.88C146.032 53.7681 146.032 54.6562 146.032 55.5443C146.032 55.8226 145.959 56.2308 146.073 56.4871C146.256 56.898 146.286 56.3789 146.176 56.2411C145.741 55.6981 145.447 54.856 145.202 54.1712C144.943 53.4457 144.372 52.3584 144.372 51.5889" stroke="#1F232E" stroke-width="3" stroke-linecap="round"/>
<path d="M166.322 60.6269C166.901 60.7557 167.654 62.0172 168.023 62.4715C168.579 63.157 169.063 63.9 169.601 64.6029C169.701 64.734 170.332 65.4781 169.867 65.0128C169.302 64.4473 168.76 64.0357 168.074 63.5782C167.157 62.967 166.396 62.1592 165.481 61.5492C165.313 61.4371 163.668 60.1065 164.293 60.0736C165.789 59.9948 167.249 60.4425 168.719 60.4425C169.55 60.4425 169.273 59.6442 169.273 58.9669C169.273 58.6061 169.463 57.348 169.181 57.1224C169.113 57.0687 169.527 58.2483 169.683 58.598C169.959 59.2205 170.147 59.95 170.472 60.5347C171.3 62.0249 172.688 63.2029 173.29 64.8283C173.976 66.6813 174.652 68.8037 175.544 70.5873C176.601 72.7018 178.071 74.5172 179.643 76.2643C179.869 76.5157 179.923 76.3578 180.196 76.4487C181.152 76.7672 182.162 77.6425 182.861 78.365C184.52 80.0817 186.144 81.7957 187.759 83.5399C188.477 84.3157 189.305 85.3478 189.788 86.2656C189.918 86.5139 190.152 86.9369 190.341 87.1469C190.493 87.3152 190.558 88.0232 190.474 87.813C190.189 87.1006 189.181 86.5359 188.62 86.0607C187.171 84.8353 185.542 83.8247 184.07 82.6176C181.201 80.2654 178.368 77.7674 175.903 74.9936C174.976 73.9508 174.134 72.8657 173.146 71.8785C172.427 71.1596 172.385 70.3615 171.947 69.5728C171.658 69.0515 171.685 68.2516 171.302 67.8205C170.867 67.3314 170.462 66.6679 170.195 66.0683C170.052 65.7457 169.778 65.4807 169.652 65.1665C169.545 64.9005 169.959 65.6708 170.195 65.8326C170.897 66.3132 171.367 67.3522 171.896 68.005C173.041 69.4174 174.093 70.8436 175.093 72.3601C177.656 76.2449 179.357 80.6347 182.092 84.4211C183.506 86.3782 184.821 87.6807 186.714 89.2579C187.32 89.763 187.868 90.371 188.415 90.9179C188.818 91.3213 187.6 90.1164 187.154 89.76C183.307 86.682 179.102 83.9552 175.626 80.4452C172.138 76.9231 168.978 73.0771 165.871 69.2244C165.069 68.2301 164.402 67.0743 163.934 65.9043C163.848 65.6907 164.203 66.2857 164.385 66.4269C165.323 67.1563 166.445 67.5267 167.449 68.1485C169.99 69.7236 172.679 71.2646 174.909 73.2823C175.836 74.1216 176.497 75.3242 177.204 76.3463C177.398 76.6268 177.735 77.0558 177.757 77.412C177.772 77.6433 177.083 76.8293 176.999 76.7562C174.523 74.5892 172.644 72.0987 170.605 69.5626C170.408 69.3176 169.688 68.3609 169.724 68.4149C170.746 69.9491 171.703 71.4823 172.849 72.9442C174.732 75.3461 177.261 77.7914 178.639 80.5477C178.655 80.5809 177.842 79.7118 177.655 79.4819C176.399 77.9393 174.846 76.6732 173.556 75.1576C172.443 73.849 171.238 72.39 170.318 70.9357C170.119 70.6215 169.503 69.5532 170.011 70.5053C171.649 73.5777 174.224 76.3346 176.384 79.0516C177.326 80.2353 178.702 82.2817 180.063 83.0378C182.26 84.2584 183.902 86.5896 185.966 88.0179C186.136 88.1361 187.573 89.3371 186.796 88.9914C184.787 88.0988 182.575 88.3474 180.463 87.8335C178.545 87.3671 176.766 86.7294 175.349 85.3126C173.679 83.6423 172.189 81.6819 170.923 79.6869C169.403 77.2936 168.177 74.8425 166.793 72.3908C166.071 71.1124 162.964 67.9951 164.139 68.876C168.199 71.9211 172.03 75.5469 175.503 79.2565C177.198 81.0671 178.946 82.9575 180.258 85.077C180.84 86.0173 181.698 86.9767 182.082 88.0179C182.106 88.0842 182.478 88.8362 182.266 88.7455C181.518 88.4246 180.65 87.8185 180.012 87.3314C178.714 86.3408 177.41 85.3498 176.159 84.2982C174.834 83.184 173.163 82.1592 172.05 80.8141C171.433 80.0694 170.934 79.2488 170.4 78.447C169.842 77.6103 169.713 76.9737 170.707 77.9244C172.93 80.048 175.884 81.8641 177.635 84.4109C177.758 84.5907 178.281 85.3058 178.024 85.1589C176.71 84.4081 175.296 82.9783 174.191 81.9823C171.418 79.4811 168.844 76.5206 166.465 73.641C165.471 72.438 164.142 71.1184 163.37 69.7675C162.379 68.0336 165.722 73.0038 166.731 74.7272C167.638 76.2748 168.585 77.8672 169.232 79.5434C169.343 79.8327 169.99 80.7299 169.99 81.0088C169.99 81.4862 168.853 80.0676 168.812 80.0046C168.372 79.3279 167.933 78.626 167.469 77.9653C167.375 77.8319 166.794 76.8103 167.244 77.3095C168.688 78.9142 169.817 80.9948 171.107 82.7406C172.067 84.0395 173.178 85.2102 174.14 86.5116C174.417 86.8867 175.035 87.4569 174.95 87.9667C174.604 90.0388 174.253 91.9856 174.253 94.0946C174.253 94.7832 174.114 95.5896 174.396 96.226C174.515 96.4933 174.675 96.8759 174.335 96.5847C173.698 96.039 173.174 95.0944 172.665 94.443C171.462 92.9043 170.142 91.4595 168.76 90.0776C167.533 88.8499 166.382 87.5423 165.317 86.1734C165.159 85.9705 164.244 84.4703 164.293 85.3434C164.319 85.8156 164.86 86.1803 164.989 86.6345C165.226 87.4643 165.471 88.2537 165.86 89.0324C166.241 89.7942 166.516 90.8249 167.018 91.4713C167.526 92.1235 165.891 90.2622 165.307 89.678C164.777 89.148 163.919 87.9257 163.094 87.9257C162.125 87.9257 162.362 87.1692 163.001 87.7413C164.369 88.9653 165.733 90.1335 166.967 91.5123C167.903 92.5586 169.455 93.7396 169.97 95.0783C170.288 95.9058 171.005 96.619 171.302 97.4352C171.71 98.5572 172.179 99.7756 172.777 100.796C173.043 101.25 173.696 103.006 173.146 101.493C172.529 99.7965 171.016 98.134 170.011 96.6359C169.249 95.5017 168.435 94.1991 167.469 93.2338C167.108 92.8721 167.746 94.4008 167.889 94.6582C168.62 95.973 168.904 97.816 168.904 99.2694C168.904 102.681 170.284 105.981 171.117 109.312C171.445 110.625 172.181 112.849 173.433 113.564C174.087 113.938 176.227 116.073 175.903 114.128C175.791 113.46 175.326 112.603 175.134 111.904C174.53 109.708 174.007 107.476 173.515 105.264C173.194 103.818 172.641 102.452 172.265 101.022C171.839 99.4043 171.747 97.7541 171.384 96.144C171.135 95.0416 170.748 91.6835 170.748 92.8137C170.748 95.2271 171.445 97.4385 171.855 99.8125C172.11 101.288 172.63 102.66 172.921 104.116C173.041 104.717 173.118 105.36 173.423 105.91C173.698 106.405 173.797 107.007 174.109 107.437C174.63 108.152 174.598 109.363 175.093 110.142C175.67 111.049 175.457 110.881 174.847 110.203C174.078 109.349 173.443 108.297 172.706 107.396C172.444 107.075 171.716 106.225 171.671 105.817C171.557 104.793 170.901 103.741 170.707 102.682C170.59 102.042 170.479 101.386 170.338 100.755C169.927 98.9026 169.516 96.9292 169.273 95.0476C169.172 94.2693 168.855 93.3058 168.617 92.5575C168.148 91.0838 167.728 89.5698 167.1 88.1511C166.323 86.3929 165.727 84.5746 165.573 82.6586C165.448 81.0854 164.904 79.4903 164.846 77.9244C164.814 77.0724 165.033 77.9795 165.215 78.3342C166.581 80.9987 168.818 83.3318 170.636 85.6918C172.139 87.644 173.2 89.7866 174.448 91.8914C174.585 92.124 175.281 93.797 175.688 93.7462C175.71 93.7434 174.158 91.8578 174.068 91.7582C172.249 89.7371 170.14 87.9794 168.187 86.0914C166.251 84.2206 164.272 82.4144 162.305 80.5784C161.707 80.0208 160.752 79.5071 160.337 78.8159C159.913 78.1085 161.573 79.9089 162.182 80.4657C164.625 82.7013 167.314 84.7398 170.113 86.5116C170.859 86.9837 171.699 87.2908 172.449 87.7413C173.3 88.2517 171.494 85.4666 171.435 85.3844C169.31 82.419 166.812 79.8287 164.252 77.2685C163.974 76.9911 164.696 77.9151 164.928 78.2318C165.913 79.5786 166.914 81.0696 168.156 82.1872C168.552 82.5438 169.598 83.6718 169.416 83.171C168.734 81.2941 167.004 79.2343 165.85 77.6169C164.985 76.404 163.699 75.3852 162.96 74.0919C162.667 73.578 162.853 73.6429 163.288 74.0201C164.295 74.8925 165.288 75.8248 166.229 76.7664C166.551 77.0885 166.925 77.3598 167.244 77.6784C167.419 77.8535 167.961 78.2216 167.715 78.2523C167.601 78.2665 166.598 77.3283 166.363 77.2275C165.773 76.975 165.16 76.63 164.498 76.9611C163.83 77.2949 163.929 79.1203 163.842 79.7074C163.649 80.9991 163.739 82.3397 163.739 83.6423C163.739 83.9176 163.792 84.7734 163.37 84.1957C162.682 83.2539 162.401 82.3714 162.182 81.2137C162.039 80.4604 161.921 79.3902 162.089 78.6314C162.203 78.12 163.688 79.1901 163.739 79.2155C166.444 80.5678 169.282 81.6083 171.876 83.1915C172.391 83.5058 173.918 84.2511 174.058 84.8823C174.168 85.376 174.321 85.8617 174.437 86.3579C174.579 86.9579 175.152 87.5429 175.175 88.1511C175.213 89.1238 175.415 89.986 175.821 90.8872C176.302 91.9567 176.563 93.7988 177.757 94.197" stroke="#1F232E" stroke-width="3" stroke-linecap="round"/>
<path d="M174.622 68.0051C174.669 67.5751 175.523 67.13 175.81 66.7755C176.545 65.8678 177.278 64.9726 177.849 63.9575C178.499 62.8026 178.973 61.7467 180.247 61.1805C181.928 60.4333 183.127 59.282 184.623 58.2292C187.453 56.2378 189.534 53.2402 192.237 51.1381C192.727 50.7569 192.833 51.158 192.585 51.5992C191.334 53.8225 189.295 55.8006 187.718 57.7784C185.472 60.5942 183.035 63.2291 180.616 65.8942C178.438 68.2935 176.921 71.0566 175.134 73.7231C174.39 74.8336 173.665 76.0286 173.146 77.2687C172.96 77.7124 172.522 78.9744 172.767 77.8733C172.973 76.945 173.556 76.0816 173.996 75.25C175.345 72.7026 176.746 70.1938 178.188 67.6977C180.66 63.4174 183.399 59.3229 186.519 55.483C187.378 54.4248 188.178 53.408 189.275 52.624C189.484 52.4745 188.662 54.4718 188.599 54.5812C187.024 57.3045 184.51 59.6125 182.379 61.908C180.774 63.6359 179.208 65.7095 177.327 67.1444C176.892 67.476 175.292 68.669 175.298 68.661C178.553 64.5076 183.321 61.4024 187.297 58.0038C190.224 55.5027 193.099 53.1959 196.448 51.3431C198.017 50.4752 195.499 53.726 195.352 53.9254C191.099 59.69 185.733 64.5751 181.559 70.3825C178.543 74.5782 187.396 61.7912 190.997 58.0858C191.267 57.8081 193.452 55.3087 193.046 56.2208C192.741 56.9082 192.061 57.535 191.55 58.0755C190.467 59.2226 189.395 60.364 188.353 61.5494C185.921 64.3145 183.195 66.8225 180.872 69.6857C180.102 70.6355 179.362 71.6645 178.403 72.432C178.258 72.5481 178.795 71.8898 178.864 71.7864C179.883 70.2576 181.127 68.9042 182.389 67.5748C185.213 64.6 188.236 61.841 191.366 59.1925C192.336 58.3714 193.34 57.6094 194.378 56.8766C194.388 56.8695 195.444 56.0365 195.444 56.3028C195.444 56.6145 194.863 57.147 194.676 57.348C193.408 58.7061 191.981 59.9547 190.587 61.1805C188.148 63.3251 185.787 65.5683 183.557 67.9334C182.78 68.7578 181.829 69.6997 181.364 70.7617C181.336 70.826 181.098 71.1736 181.098 71.2228C181.098 71.3978 181.384 71.0186 181.508 70.8949C182.251 70.1521 182.944 69.3661 183.639 68.579C187.065 64.698 190.924 61.3075 194.522 57.6042C194.672 57.4495 196.93 55.5476 196.264 56.4667C190.332 64.6479 183.89 72.5063 178.618 81.1524C178.464 81.4056 177.508 83.1703 177.757 82.9457C181.041 79.9903 184.321 77.0441 187.482 73.9486C189.259 72.208 191.001 70.4596 192.606 68.5585C192.929 68.1751 193.828 66.9752 193.579 67.4108C192.963 68.4884 191.702 69.4696 190.894 70.403C188.137 73.5905 185.295 76.7254 182.481 79.8612C181.942 80.4625 181.296 80.9766 180.821 81.634C179.932 82.8654 180.981 80.2162 181.077 80.015C183.571 74.79 187.042 69.9316 189.972 64.9515C190.645 63.8077 191.264 62.6657 192.021 61.5699C193.198 59.8668 192.436 61.0806 191.673 62.0105C188.475 65.9069 184.815 69.4028 181.344 73.0468C180.385 74.0532 179.417 75.0396 178.495 76.08C178.072 76.5577 177.646 77.2938 177.122 77.6683C172.633 80.8748 185.54 70.4986 190.126 67.4313C193.691 65.0464 197.383 62.9406 201.06 60.7501C201.233 60.647 201.828 60.3155 201.469 60.7501C200.244 62.2332 198.597 63.3187 197.196 64.6235C193.542 68.0288 189.856 71.3999 186.324 74.9323C185.992 75.2641 185.383 75.6817 185.176 76.121C184.721 77.0893 186.882 74.8258 187.697 74.133C191.038 71.2951 194.576 68.5825 197.739 65.5458C199.243 64.1019 197.937 65.915 197.248 66.673C194.591 69.595 191.76 72.3887 189.193 75.3832" stroke="#1F232E" stroke-width="3" stroke-linecap="round"/>
<path d="M184.214 113.011C183.79 113.964 184.029 115.316 184.029 116.342C184.029 117.105 183.655 118.294 183.855 118.996C183.991 119.471 185.821 116.956 185.884 116.885C187.006 115.622 188.463 114.401 189.286 112.919C190.192 111.289 191.156 109.737 192.053 108.123C192.428 107.449 192.881 106.918 193.252 106.268C193.483 105.864 193.789 105.52 194.082 105.162C194.922 104.135 195.138 102.668 195.885 101.575C195.978 101.44 195.348 102.847 195.189 103.153C194.31 104.844 192.977 106.229 191.858 107.754C190.777 109.229 189.544 110.587 188.466 112.068C187.976 112.743 187.537 113.347 186.888 113.851C186.4 114.231 185.32 115.808 185.32 114.579C185.32 113.804 185.984 112.801 186.345 112.15C187.297 110.437 188.269 108.737 189.266 107.047C190.406 105.114 191.977 103.596 193.334 101.852C193.592 101.52 194.396 100.477 194.369 100.571C194.139 101.376 193.373 102.028 192.791 102.61C191.199 104.202 189.733 105.912 188.19 107.549C186.738 109.089 185.319 110.702 183.691 112.058C183.232 112.441 182.651 113.043 182.103 113.278C181.92 113.356 182.048 111.952 182.123 111.781C183.013 109.759 184.465 107.747 185.689 105.91C186.915 104.071 188.308 102.534 189.727 100.858C190.323 100.153 191.04 99.0806 191.858 98.6342C192.074 98.5164 192.603 97.8977 192.524 98.1731C192.288 99.0003 191.215 99.6712 190.639 100.305C188.852 102.27 186.99 104.32 184.982 106.064C184.236 106.712 183.233 107.616 182.738 108.482C182.406 109.064 183.898 107.425 184.091 107.232C186.691 104.632 189.67 102.497 192.432 100.089C193.123 99.4867 195.116 97.6343 194.594 98.3883C193.6 99.825 192.186 101.036 191.018 102.334C189.458 104.067 187.85 105.792 186.345 107.57C186.019 107.955 185.413 108.742 186.089 107.795C189.071 103.62 192.039 99.3737 195.219 95.3449C195.307 95.2339 196.086 94.034 196.101 94.0435C196.3 94.1762 194.994 95.5062 194.973 95.5293C192.481 98.3777 189.676 101.045 186.888 103.604C184.911 105.419 183.027 107.348 181.017 109.117C180.892 109.227 179.804 110.437 180.166 109.773C180.571 109.03 181.433 108.426 182.011 107.826C183.364 106.421 184.621 104.926 185.966 103.512C188.239 101.12 190.491 98.7126 192.688 96.2569C192.977 95.934 194.898 94.0269 193.59 95.3346C191.998 96.9269 190.349 98.4505 188.723 100.007C187.16 101.503 185.451 102.954 183.773 104.321C183.363 104.655 182.554 105.865 182.554 105.336C182.554 103.986 184.177 102.571 184.982 101.637C187.518 98.6936 190.257 96.0027 193.129 93.3979C193.901 92.6977 196.253 90.6422 195.517 91.3792C193.89 93.0062 192.129 94.6031 190.311 96.0109C187.984 97.8126 185.691 99.6573 183.507 101.637C182.615 102.445 181.645 103.701 180.637 104.321C180.56 104.369 180.269 104.555 180.381 104.301C180.793 103.374 182.144 102.42 182.861 101.76C186.147 98.7333 190.133 96.3667 193.785 93.8078C194.719 93.1535 195.71 92.626 196.674 92.0247C196.934 91.8629 197.759 91.2369 197.043 91.8403C194.931 93.6211 192.718 95.1009 190.465 96.6975C188.192 98.3084 185.896 99.9143 183.66 101.575C182.818 102.201 181.733 103.262 180.709 103.563C180.251 103.698 180.947 102.455 180.976 102.415C181.871 101.206 183.029 100.175 184.07 99.0954C186.262 96.8231 188.778 94.7193 191.305 92.824C191.724 92.5097 194.01 90.8429 192.391 92.0247C189.595 94.0666 186.757 96.0112 183.886 97.9477C182.192 99.0898 180.623 100.386 178.967 101.575C178.618 101.826 176.097 103.819 177.389 102.436C180.658 98.9373 184.897 96.159 188.723 93.3569C190.897 91.7642 193.082 89.7914 195.465 88.5202C197.481 87.4454 191.619 90.9851 189.665 92.1682C186.067 94.3473 182.608 96.664 179.131 99.0134C178.332 99.5537 177.512 100.038 176.733 100.612C176.584 100.722 176.282 101.126 176.282 100.94C176.282 100.563 176.742 100.082 176.959 99.8332C177.938 98.7119 179.072 97.6995 180.238 96.7795C183.394 94.2896 186.608 91.9113 189.87 89.5654C190.642 89.0105 192.371 87.9062 190.547 89.1145C188.175 90.6854 185.828 92.3067 183.537 93.9922C182.482 94.7687 181.169 95.4026 180.197 96.2671C179.02 97.3135 182.321 93.936 183.476 92.865C185.496 90.9912 187.597 89.3903 189.809 87.7619C190.049 87.5851 191.529 86.6153 191.305 86.8396C190.335 87.8099 189.166 88.6013 188.087 89.4424C184.95 91.8877 181.574 94.167 178.27 96.3696C176.911 97.2758 179.923 93.5078 181.078 92.3527C182.649 90.7814 184.404 89.3593 186.243 88.1103C186.443 87.9741 187.881 86.9167 187.124 87.5979C185.427 89.1249 183.062 90.0503 181.201 91.3894C179.306 92.7534 177.341 93.9297 175.36 95.1604C175.2 95.2596 173.997 96.0575 174.11 95.8162C174.644 94.6725 175.894 93.7348 176.815 92.9265C178.29 91.6333 179.654 90.1972 181.283 89.094C183.057 87.8924 185.136 85.9658 187.267 85.3845C188.191 85.1326 185.658 86.4234 184.829 86.9011C182.541 88.2182 180.327 89.7793 178.127 91.2459C177.915 91.3875 175.987 92.7398 176.549 92.0452C177.783 90.521 179.612 89.3583 181.201 88.2332C182.659 87.2009 184.396 86.2034 185.689 84.9746C186.575 84.133 184.44 85.5454 184.275 85.6509C182.243 86.9556 180.182 88.2585 178.27 89.7293C177.754 90.1262 176.269 91.5329 175.586 91.5329C175.521 91.5329 175.929 90.9098 175.954 90.877C176.85 89.7376 177.912 88.6684 178.967 87.6799C181.488 85.319 184.213 83.1485 187.022 81.1421C187.976 80.4605 189.23 79.7479 187.636 81.1421C185.091 83.3693 182.498 85.6322 179.746 87.5979C179.081 88.073 178.368 88.4854 177.758 89.0325C177.716 89.0705 177.029 89.5746 177.02 89.4219C176.991 88.9029 177.352 88.4387 177.615 88.0283C178.554 86.5582 179.706 85.2259 180.771 83.8474C182.572 81.515 184.344 79.1822 186.284 76.9612C186.409 76.8175 188.036 74.8734 187.083 75.6086C185.1 77.1383 183.414 79.135 181.529 80.7937C180.905 81.3432 180.279 81.9075 179.603 82.3923C179.307 82.6043 178.627 83.427 178.762 83.0891C179.037 82.403 180.492 81.6793 181.058 81.2651C182.138 80.474 183.229 79.6911 184.357 78.9697C185.215 78.4215 186.077 77.738 186.981 77.2687C187.053 77.231 187.989 76.7533 187.862 77.0842C187.619 77.7151 186.732 78.3157 186.284 78.8057C185.521 79.6391 184.658 80.3746 183.886 81.2036C183.681 81.4232 181.811 83.3286 182.267 83.0071C185.136 80.9819 187.964 78.9774 191.059 77.2891C193.354 76.0374 191.771 77.7691 190.875 78.6828C189.012 80.5803 187.138 82.4605 185.279 84.3598C184.755 84.8955 183.978 85.6583 185.177 84.9336C186.682 84.0245 188.082 82.9491 189.604 82.0644C192.092 80.6179 189.777 84.7119 189.194 85.528" stroke="#1F232E" stroke-width="3" stroke-linecap="round"/>
<path d="M193.805 62.8405C192.499 64.1968 191.707 66.0936 190.956 67.8104C189.896 70.2339 192.443 62.7245 193.426 60.2684C193.679 59.6336 193.724 58.9271 194.081 58.3317C194.548 57.554 194.095 58.7639 193.948 59.008C191.751 62.6498 189.306 66.1119 186.98 69.6651C186.7 70.0935 185.687 71.1115 186.181 70.9768C186.538 70.8795 187.053 70.1455 187.287 69.9111C188.307 68.8916 189.334 67.8786 190.341 66.8471C193.421 63.6936 196.213 60.2476 199.328 57.1327C201.167 55.2938 198.799 60.426 198.682 60.668C196.965 64.2429 195.173 68.0002 193.917 71.7658C193.816 72.0692 193.62 72.9976 193.62 72.6778C193.62 72.21 193.898 71.7345 194.112 71.3457C195.307 69.1725 196.812 67.1796 198.15 65.0949C199.572 62.8783 200.711 60.5255 202.074 58.2804C202.371 57.7924 202.68 57.3063 202.915 56.7843C202.975 56.6503 203.101 56.2963 203.171 56.4257C203.633 57.2842 202.2 59.4361 201.818 60.1352C200.379 62.7687 198.777 65.3139 197.35 67.9539C196.042 70.3743 194.244 73.5637 193.999 76.3771C193.914 77.3569 193.156 78.2913 192.667 79.1131C191.13 81.6982 189.379 84.1452 187.82 86.7166C187.005 88.0619 186.168 89.4096 185.422 90.795C185.156 91.2907 184.767 91.953 184.767 92.5371C184.767 93.1483 184.912 92.4067 184.941 92.1784C185.126 90.6986 185.96 89.1139 186.488 87.7414C188.009 83.7877 189.128 79.5316 190.997 75.7315C192.073 73.5445 193.38 71.5316 194.532 69.4192C194.814 68.9029 194.911 69.7452 194.911 69.8906C194.911 71.4973 195.213 73.1019 195.034 74.7068C194.582 78.7812 193.128 82.788 191.919 86.6756C191.126 89.2289 190.408 91.9047 189.48 94.4226C189.359 94.751 189.349 95.0305 189.378 94.4841C189.465 92.8225 190.569 91.0596 191.335 89.6473C192.777 86.9883 194.028 84.244 195.321 81.511C196.018 80.0389 196.769 78.5588 197.268 77.0022C197.445 76.4514 197.658 74.733 197.658 75.3114C197.658 76.1901 196.959 77.3874 196.756 78.2729C196.318 80.1768 196.026 82.0586 195.834 84.0011C195.602 86.3369 195.28 88.7851 195.28 91.1332C195.28 91.6833 195.276 90.0317 195.321 89.4834C195.471 87.6561 196.152 85.9782 196.582 84.206C197.318 81.1675 198.26 78.2185 199.154 75.2397C199.767 73.195 199.781 74.8869 199.297 76.0799C197.55 80.3849 195.442 84.4712 193.477 88.6739C192.958 89.7844 192.434 90.946 191.776 91.9837C191.574 92.3014 191.222 93.3437 191.222 92.9675C191.222 89.8963 193.478 86.6989 194.87 84.0728C195.763 82.39 196.741 80.7566 197.555 79.0312C197.827 78.455 198.356 77.0218 198.969 76.7153C199.282 76.5592 199.154 78.2228 199.154 78.3753C199.154 80.5117 198.804 82.644 198.6 84.7696C198.23 88.6418 197.931 92.7794 196.756 96.513C196.325 97.8815 196.571 96.508 196.571 95.8367C196.571 94.6255 197.022 93.5481 197.35 92.3936C197.877 90.5396 198.551 88.7084 199.215 86.9011C199.678 85.6433 200.187 84.405 200.629 83.1403C200.794 82.6697 200.97 82.1543 201.326 81.7979C201.423 81.7011 201.135 82.7212 201.091 82.8636C200.647 84.292 200.043 85.6486 199.564 87.065C198.635 89.8078 197.68 92.52 196.848 95.2936C196.588 96.1615 196.018 97.2653 196.018 98.1628C196.018 98.6857 195.166 101.356 195.752 101.022C197.552 99.9931 198.729 98.0784 200.353 96.7795C201.063 96.2114 201.285 95.3699 201.88 94.7095C202.479 94.0437 203.11 92.98 203.54 92.1682C203.985 91.3267 204.841 90.4176 205.046 89.4936C205.143 89.0548 205.302 88.5875 205.569 88.2537C205.855 87.8958 205.708 87.0648 206.019 86.6756C206.336 86.28 206.306 85.6736 206.634 85.2513C207.515 84.1195 205.842 86.4138 205.61 86.7371C204.406 88.4091 202.714 89.5959 201.377 91.1332C200.339 92.3276 199.163 93.4506 198.037 94.5763C197.73 94.8827 195.911 96.6236 196.387 95.4473C197.359 93.0457 198.771 90.7179 200.015 88.4382C201.159 86.3399 202.429 84.2172 203.755 82.2283C203.791 82.1737 204.268 81.317 204.318 81.3675C204.538 81.5871 204.105 82.5059 204.031 82.6997C203.012 85.3879 201.748 88.02 200.998 90.795C200.818 91.4619 200.58 92.3118 200.179 92.8855C200.048 93.0722 200.219 91.5783 200.301 91.3484C201.687 87.4677 203.714 83.874 204.933 79.9124C205.342 78.5839 205.823 77.2827 206.245 75.957C206.393 75.4927 206.445 75.0521 206.716 74.6453" stroke="#1F232E" stroke-width="3" stroke-linecap="round"/>
<path d="M197.494 72.2474C197.494 69.5365 198.91 67.0743 200.066 64.6951C200.759 63.2674 201.382 61.8089 202.074 60.381C202.389 59.7325 202.949 58.7525 203.027 58.0446C203.032 57.9991 203.077 57.7954 203.171 57.9012C203.378 58.1346 202.812 59.2082 202.802 59.2333C201.422 62.5121 199.588 65.5541 197.965 68.712C196.514 71.5351 195.141 74.4336 193.661 77.2275C191.87 80.6111 196.965 70.32 198.662 66.888C199.945 64.2924 201.37 61.7806 202.566 59.1411C203.04 58.0959 203.414 57.0112 203.991 56.0157C204.334 55.4228 204.319 56.6281 204.319 56.7535C204.319 58.632 204.332 60.5111 204.308 62.3895C204.27 65.4647 203.326 74.6239 203.212 71.5505C203.135 69.4666 203.991 67.4105 204.687 65.4944C205.747 62.58 206.627 59.6027 207.608 56.6612C207.884 55.832 208.499 54.3118 207.639 56.0157C205.517 60.2179 202.588 63.9746 200.64 68.2714C199.611 70.5401 198.229 73.2508 198.047 75.7929C198.03 76.0392 197.863 76.7571 197.863 76.5102C197.863 75.7011 197.936 74.9742 198.139 74.1841C199.191 70.094 200.634 66.2182 202.146 62.287C202.405 61.6138 202.668 60.5852 203.212 60.0736C203.44 59.8587 203.396 61.8842 203.396 62.1026C203.396 65.5389 203.597 69.0152 202.843 72.3908C202.813 72.5254 201.98 76.2992 201.593 75.5675C201.324 75.0597 201.552 73.9617 201.552 73.4155C201.552 70.8354 201.925 68.2991 202.484 65.7813C202.749 64.5897 203.022 63.3908 203.304 62.205C203.532 61.2473 203.372 62.7742 203.314 63.0043C202.43 66.5396 200.15 69.8206 198.713 73.1594C198.668 73.2652 197.1 78.4367 196.94 78.4367C196.696 78.4367 198.075 76.4248 198.088 76.4078C199.595 74.4114 201.225 72.4989 202.638 70.4336C203.038 69.8486 203.641 69.141 204.206 68.7018C204.247 68.6695 204.323 70.5268 204.319 70.7718C204.299 71.8873 203.88 72.9109 203.581 73.9689C203.153 75.4789 202.913 77.0632 202.372 78.5392C202.03 79.4713 201.105 82.3016 201.378 81.3469C201.561 80.7047 201.859 80.1175 202.197 79.5434C203.345 77.5968 204.366 75.6152 205.384 73.6C206.143 72.0992 206.844 70.5548 207.639 69.0707C207.921 68.5429 208.09 67.7319 208.469 67.2774C208.668 67.0382 208.561 67.4963 208.561 67.6566C208.561 68.9134 208.409 70.0732 208.151 71.3046C207.701 73.4521 206.901 75.9367 206.901 78.1498C206.901 78.3308 206.854 78.8722 206.911 78.3855C207.063 77.0936 207.752 75.8172 208.192 74.6042C209.01 72.3479 209.781 69.9163 210.211 67.5541C210.449 66.2428 209.947 70.2158 209.627 71.5096C209.156 73.4094 208.376 75.6429 208.376 77.5964" stroke="#1F232E" stroke-width="3" stroke-linecap="round"/>
<path d="M213.357 71.5098C213.357 74.047 211.749 76.0278 210.395 78.0578C209.509 79.3879 208.794 80.7499 208.008 82.1259C207.249 83.454 206.584 84.9016 205.938 86.2659C205.486 87.2189 205.269 88.2532 204.831 89.2171C204.557 89.8212 204.171 90.7686 204.134 91.4305C204.066 92.6561 204.219 91.5474 204.596 91.246C204.887 91.013 205.135 90.2196 205.333 89.8626C206.052 88.5682 207.603 87.6365 208.018 86.1839C208.15 85.7239 208.686 85.2636 208.746 84.7902C208.804 84.3251 209.143 83.5738 209.34 83.1302C209.892 81.8885 210.152 80.1735 211 79.1132C211.384 78.6328 211.812 78.0764 212.066 77.5044C212.215 77.168 212.333 76.8162 212.476 76.4899C212.501 76.4323 211.978 77.0092 211.697 77.2277C208.936 79.3751 205.951 81.352 203.765 84.1447C203.222 84.8394 201.549 86.861 201.962 86.0814C203.162 83.8154 205.017 81.8667 206.43 79.7281C206.859 79.0779 207.189 78.4284 207.454 77.6991C207.704 77.0143 207.123 77.2309 206.717 77.5967C205.22 78.9439 203.064 80.6547 201.183 81.4291C200.973 81.5157 200.999 78.3139 200.999 77.9758C200.999 77.4701 200.969 75.4708 200.64 76.9511C199.967 79.9798 199.463 83.2618 198.775 86.3581C198.27 88.6296 197.494 90.6948 197.494 93.0905C197.494 93.8021 197.533 94.8517 198.232 95.263C198.978 95.7018 199.068 95.2549 199.708 94.935" stroke="#1F232E" stroke-width="3" stroke-linecap="round"/>
<path d="M182.554 120.943C180.871 120.943 179.49 118.688 179.008 117.295C178.674 116.33 178.68 115.415 178.68 114.395C178.68 113.928 179.579 112.62 180.156 113.052C181.341 113.941 180.589 115.312 180.904 116.413C181.078 117.024 181.46 117.582 181.775 118.176C181.948 118.503 182.663 119.296 182.646 119.262C180.557 115.085 180.081 109.917 179.336 105.377C179.277 105.015 178.107 94.5866 178.035 94.5866C177.644 94.5866 179.971 105.339 179.971 106.648C179.971 107.242 179.922 106.844 179.643 106.514C178.967 105.715 178.716 104.499 178.311 103.563C177.669 102.077 176.923 100.618 176.375 99.0954C176.213 98.6455 175.729 97.3363 175.729 97.8145C175.729 98.3832 176.077 98.8778 176.282 99.4028C176.917 101.024 177.406 102.686 177.942 104.342C178.421 105.821 179.026 107.402 179.377 108.912C179.432 109.151 179.829 109.97 179.643 109.281C178.526 105.132 176.929 101.096 175.565 97.0049C175.13 95.6994 174.177 91.7165 174.253 93.0905C174.279 93.5486 174.785 94.2133 175.032 94.5661C176.035 95.9988 176.552 97.6952 177.215 99.3003C177.878 100.907 178.788 102.846 179.029 104.588C179.059 104.811 179.673 107.136 179.234 107.109C178.984 107.093 178.413 105.411 178.311 105.172C177.714 103.765 177.266 102.29 176.559 100.93C176.429 100.68 175.913 99.4795 175.913 99.5463C175.913 100.349 175.954 101.107 176.057 101.903C176.365 104.292 176.651 106.818 176.651 109.23C176.651 109.541 176.077 108.154 175.913 107.826C174.861 105.722 174.216 103.46 173.413 101.258C173.009 100.15 172.409 98.8216 172.409 97.5993C172.409 97.1319 172.611 98.5152 172.778 98.9519C173.498 100.842 174.433 102.668 175.073 104.588C175.612 106.206 175.934 107.75 176.323 109.404C176.501 110.158 176.836 111.052 176.836 111.812C176.836 112.068 177.019 114.003 176.877 113.892C176.397 113.519 175.938 113.123 175.452 112.745C174.89 112.307 174.209 112.017 173.659 111.577C173.555 111.493 171.577 111.214 172.409 110.798" stroke="#1F232E" stroke-width="3" stroke-linecap="round"/>
<path d="M195.649 45.6866C195.044 45.4216 195.281 46.4695 195.281 46.8855C195.281 48.3028 193.299 46.0463 193.088 45.7891C191.278 43.5841 189.89 41.1704 188.497 38.7185C187.875 37.6238 188.39 38.4433 188.599 39.1283C188.994 40.4215 189.652 41.6325 190.034 42.9506C190.584 44.8497 191.094 46.7622 191.407 48.7198C191.576 49.7762 192.047 50.8303 192.34 51.8555C192.552 52.5985 191.899 50.374 191.684 49.6318C190.747 46.4063 189.757 42.9014 188.128 39.9686C187.973 39.6903 187.37 38.8093 187.82 39.5177C188.93 41.2614 190.015 43.021 191.12 44.7746C192.265 46.5912 193.067 48.6178 194.174 50.4413C194.78 51.4405 194.408 49.8119 194.317 49.4576C194.088 48.565 193.814 47.6805 193.559 46.7933C193.462 46.4561 193.218 45.3628 192.883 45.1742C192.524 44.9724 192.834 46.2319 192.883 46.3424C193.266 47.2216 193.613 48.0981 194.071 48.9452C196.213 52.902 198.146 57.0262 200.445 60.8936C200.825 61.5319 202.251 64.0974 201.624 61.7953C200.58 57.97 199.637 54.1212 198.826 50.2364C198.282 47.6296 197.708 44.8011 196.613 42.3665C195.133 39.0787 200.06 48.8488 200.63 52.4088C200.834 53.6876 201.206 53.7091 200.886 52.2859C199.981 48.2664 199.869 44.1158 199.062 40.0813C198.772 38.6322 198.232 34.2484 198.232 35.7262C198.232 37.4531 198.602 39.3617 198.97 41.0343C199.378 42.8905 199.576 44.7734 200.076 46.6089C200.383 47.7335 200.757 48.9258 200.958 50.0724C200.965 50.1175 201.245 51.3859 201.326 51.2816C201.525 51.0257 200.674 49.5708 200.589 49.2936C199.73 46.4966 198.902 43.7591 197.494 41.1778C197.347 40.9085 196.018 38.2869 196.018 39.2411C196.018 40.2041 196.24 41.0767 196.49 42.0078C197.062 44.1438 197.63 46.332 198.406 48.4021C199.407 51.0722 200.153 53.8475 201.275 56.4667C203.438 61.5131 199.222 45.6364 197.391 40.4605C196.923 39.1349 196.424 37.8263 195.947 36.505C195.826 36.171 195.368 35.4653 195.475 35.0909C195.527 34.91 196.791 36.6388 196.941 36.8227C197.93 38.0402 198.756 39.4802 199.42 40.9011C200.632 43.4913 202.084 46.3617 202.618 49.1912C202.709 49.6772 202.75 50.2226 202.986 50.6668C203.173 51.0166 203.035 49.8745 203.027 49.4781C203.001 48.0495 202.455 46.6984 202.331 45.2767C202.152 43.2345 201.812 41.2229 201.552 39.1898C201.364 37.7185 201.267 36.2506 201.039 34.7835C200.952 34.2192 201.013 33.5749 200.773 33.0415C200.619 32.6992 200.615 33.0775 200.64 33.2362C200.772 34.0937 201.404 34.9511 201.736 35.7365C203.026 38.7855 204.881 41.67 205.876 44.8361C205.98 45.1662 206.864 48.0526 206.901 46.7933C206.967 44.5489 206.007 42.0283 205.466 39.8866C205.005 38.0583 204.482 36.2076 204.144 34.3531C203.969 33.3906 204.421 35.4395 204.513 35.675C205.613 38.493 206.294 41.5128 207.444 44.293C207.641 44.7701 207.616 45.5138 207.915 45.9325C207.967 46.0052 207.714 45.2661 207.628 45.123C206.941 43.9773 206.639 42.622 206.163 41.3827C205.507 39.6731 204.605 38.023 203.827 36.3616C203.16 34.9386 202.391 33.5825 201.921 32.0782C201.811 31.7285 201.552 31.3823 201.552 31.0125C201.552 30.7507 201.612 31.5529 201.757 31.7708C202.183 32.4105 202.684 33.0328 203.15 33.6461C204.456 35.3643 205.673 37.2044 206.798 39.0464C206.897 39.2082 207.218 39.7199 207.188 39.9276C207.133 40.3091 206.743 39.2965 206.491 39.0054C205.902 38.3259 205.596 37.2658 205.2 36.4641C204.573 35.197 203.972 33.8709 203.519 32.5291C203.281 31.822 203.087 31.0745 202.986 30.3362C202.837 29.2368 203.183 30.0957 203.437 30.5616C203.909 31.4267 204.607 32.2181 205.097 33.1029C205.713 34.2133 206.214 35.3959 206.901 36.4641C207.295 37.0774 207.542 37.7431 207.905 38.37C207.94 38.4294 208.358 39.3142 208.448 39.1693C208.828 38.5623 207.43 35.6453 207.27 35.0909C206.924 33.8945 206.613 32.6857 206.255 31.4941C206.045 30.7927 205.778 30.0737 205.62 29.3627C205.517 28.8997 205.661 29.6314 205.712 29.7418C206.515 31.4628 207.66 33.2636 208.745 34.8142C209.097 35.3163 209.996 36.5866 210.037 37.2019C210.092 38.0378 209.906 35.5121 209.627 34.722C209.12 33.2867 208.878 31.7482 208.52 30.2747C208.417 29.8517 208.561 28.4416 208.561 29.2705" stroke="#1F232E" stroke-width="3" stroke-linecap="round"/>
<path d="M186.242 9.71851C187.397 9.71851 188.297 11.4279 189.378 11.563C189.799 11.6156 190.721 12.378 191.14 12.5877C191.681 12.8581 192.287 13.3375 192.882 13.4075C193.251 13.4509 193.859 13.9126 194.133 14.1863C194.458 14.5121 195.109 14.7094 195.506 15.0266C196.346 15.699 197.589 15.808 198.508 16.5432C199.541 17.3693 201.012 17.5071 202.013 18.2852C202.745 18.8546 204.087 19.2054 204.687 19.9555C205.146 20.5288 206.017 20.6871 206.347 21.4311C206.709 22.2446 205.953 21.3302 205.794 21.052C205.494 20.5266 204.705 20.1332 204.226 19.7608C203.465 19.1688 202.748 18.4777 202.064 17.7934C200.708 16.4373 199.052 15.4426 197.678 14.1453C196.808 13.324 195.621 13.1902 194.542 12.7107C193.592 12.2883 192.09 11.437 191.038 11.3786C189.913 11.3161 190.333 11.1488 191.079 12.1164C192.281 13.674 193.523 15.1546 194.922 16.5534C195.518 17.1497 196.09 17.7988 196.766 18.3057C196.981 18.4671 198.376 20.0098 197.832 19.8121C196.93 19.4842 196.103 18.6245 195.291 18.1315C193.767 17.2067 192.288 16.1877 190.741 15.3033C189.821 14.7776 187.269 12.8818 188.189 13.4075C188.609 13.6472 189.039 14.3291 189.368 14.6987C190.273 15.7173 191.106 16.8896 191.868 18.0188C192.554 19.0354 193.212 20.0015 193.979 20.9598C194.219 21.2595 194.542 22.3479 194.542 21.964C194.542 21.4691 193.976 20.8392 193.794 20.3859C193.257 19.0432 192.539 17.6917 191.776 16.4612C191.452 15.9391 191.101 14.9943 190.587 14.627C190.559 14.6067 191.191 16.009 191.304 16.246C192.812 19.3979 195.05 22.1973 197.678 24.4746" stroke="#1F232E" stroke-width="3" stroke-linecap="round"/>
<path d="M207.454 21.7078C207.454 23.0993 208.771 24.3029 209.299 25.489C209.672 26.3289 210.141 27.1123 210.59 27.8971C210.935 28.5014 211.475 29.5228 211.512 30.1925C211.562 31.0881 212.25 31.9025 212.25 32.7748C212.25 33.9378 213.103 34.9079 213.346 36.0027C213.535 36.8509 213.705 37.709 213.9 38.585C214.256 40.1898 214.463 42.1142 214.463 43.8419C214.463 45.8539 214.648 47.792 214.648 49.8263C214.648 50.7691 214.648 51.7118 214.648 52.6546C214.648 53.4921 214.953 55.0522 214.607 55.8312C213.872 57.4854 214.662 59.8699 214.269 61.6414C213.848 63.5321 214.279 65.4693 214.279 67.3594C214.279 68.0828 214.531 69.3752 214.238 70.0339C213.972 70.6316 213.577 71.8218 213.541 72.4318C213.498 73.1671 213.541 72.6984 213.541 72.2474C213.541 71.6774 213.594 71.2252 213.715 70.6795C214.067 69.0949 214.576 67.4849 214.822 65.8838C214.972 64.9087 215.201 63.8327 215.201 62.8404C215.201 62.6629 215.201 61.5458 215.201 62.0103C215.201 63.0337 214.95 63.7432 214.648 64.7258C213.813 67.4396 212.463 70.1449 211.43 72.8007C211.054 73.7687 210.539 74.8582 210.262 75.8544C210.216 76.0212 209.56 77.3582 209.493 77.1251C209.29 76.4118 209.487 75.3114 209.575 74.6042C209.931 71.7585 210.788 69.0069 211.471 66.222C211.798 64.89 212.016 63.541 212.25 62.1948C212.424 61.1959 212.934 60.1468 212.988 59.1513C213.031 58.3421 213.357 57.5585 213.357 56.7535C213.357 55.0523 213.244 60.171 212.895 61.8361C212.281 64.7721 211.745 68.3697 210.303 71.0484C210.155 71.3232 209.742 72.1591 209.391 72.2371C208.867 72.3535 209.114 70.1544 209.114 69.87C209.114 65.5914 208.795 61.1123 210.077 56.9789C210.357 56.0775 210.732 55.2494 211.051 54.3556C211.153 54.0693 211.512 52.9606 211.512 53.8432C211.512 55.529 211.012 56.8326 210.498 58.4443C209.634 61.1484 208.933 63.9592 207.864 66.5909C207.396 67.7431 206.989 68.9191 206.532 70.0749C206.329 70.5875 205.979 72.1346 205.979 70.7717C205.979 70.0204 205.971 69.2686 205.979 68.5173C205.995 67.0084 206.618 65.6611 207.044 64.234C207.563 62.5004 208.378 60.5029 208.551 58.6902C208.62 57.9656 208.93 57.1976 208.93 56.487C208.93 55.1803 209.173 56.2136 209.073 57.0404C208.834 59.0119 207.794 60.7512 207.28 62.6354C207.142 63.1406 206.347 64.8736 206.347 64.8283C206.347 62.6009 206.224 60.2967 205.979 58.0856C205.602 54.6976 205.379 51.0762 204.318 47.8178C204.232 47.5535 203.581 45.1803 203.581 46.6496C203.581 49.2695 203.581 51.8894 203.581 54.5093C203.581 55.302 203.86 56.708 203.406 57.3888C203.397 57.4033 203.196 56.9725 203.171 56.8969C202.98 56.3241 202.807 55.6861 202.699 55.0934C202.504 54.0204 202.309 52.9426 202.115 51.8758C202.033 51.4219 202.246 52.0208 202.331 52.1422C202.837 52.8722 203.388 53.5518 203.909 54.2736C204.603 55.2364 205.428 56.0782 206.142 57.0199C206.525 57.5235 206.804 58.2042 207.311 58.598C207.667 58.8749 207.823 59.1879 207.823 58.5775C207.823 57.368 207.684 56.3863 207.352 55.2164C206.452 52.0469 206.018 48.7798 205.241 45.5839C205.111 45.0513 205.096 44.0386 204.78 43.596C204.662 43.432 204.787 44.382 204.8 44.426C205.124 45.5065 205.711 46.5582 206.122 47.6129C206.829 49.4268 207.516 51.2361 208.161 53.0747C208.254 53.3388 209.441 56.3456 209.442 56.3436C209.702 55.9864 209.483 54.7732 209.483 54.3556C209.483 52.9316 209.425 51.5448 209.206 50.1337C208.834 47.734 208.757 45.2999 208.048 42.9606C207.665 41.6953 207.798 42.8535 207.823 43.555C207.941 46.9173 209.224 50.4274 209.944 53.71C210.015 54.0342 210.747 57.2464 210.774 55.8312C210.826 53.1825 209.57 50.6084 209.473 47.9306C209.368 45.0411 208.941 42.1146 208.602 39.2511C208.342 37.06 208.497 40.7422 208.571 41.3108C208.913 43.9332 209.691 46.5072 210.405 49.0475C210.451 49.2115 211.143 51.5587 211.143 50.7383C211.143 47.2665 210.26 43.8398 210.036 40.3783C210.015 40.0432 209.852 38.7683 209.852 39.784C209.852 40.866 210.327 42.0876 210.672 43.1041C210.748 43.3276 211.276 45.2355 211.656 45.2355C212.007 45.2355 211.25 43.0489 211.235 43.0016C210.638 41.0754 209.852 39.3352 209.852 37.2939C209.852 35.9083 210.781 37.6424 211.143 38.1649C211.879 39.2277 212.25 39.9931 212.25 41.2596C212.25 43.8042 212.988 46.3523 212.988 48.904C212.988 50.9338 213.172 52.9214 213.172 54.909C213.172 56.8312 212.065 58.516 212.065 60.3503C212.065 60.7077 211.876 61.3173 211.697 61.6312C211.273 62.3715 210.587 60.604 210.508 60.4425C208.764 56.8631 208.368 52.2971 208.007 48.3814C207.761 45.6979 207.454 43.0343 207.454 40.3373C207.454 40.0814 207.458 38.7678 207.628 39.702C207.847 40.903 207.639 42.3403 207.639 43.555C207.639 49.02 206.716 54.4131 206.716 59.8891" stroke="#1F232E" stroke-width="3" stroke-linecap="round"/>
<path d="M206.163 91.0615C206.163 91.2561 206.163 90.4812 206.163 90.3237" stroke="#1F232E" stroke-width="3" stroke-linecap="round"/>
<path d="M155.07 84.9746C154.455 84.9746 153.84 84.9746 153.225 84.9746C152.712 84.9746 152.329 84.5192 151.842 84.411C150.665 84.1495 149.567 83.499 148.286 83.499C146.486 83.499 144.595 82.5767 142.722 82.5767C140.372 82.5767 138.142 81.6754 135.897 81.0089C133.395 80.2661 130.792 79.7102 128.324 78.8877" stroke="#1F232E" stroke-width="3" stroke-linecap="round"/>
<path d="M109.634 72.2993C109.634 75.5846 107.917 78.2577 107.283 81.4292C106.768 84.0021 105.876 86.6593 104.823 89.0284C103.642 91.6848 103.62 96.17 101.761 98.377C100.821 99.4941 101.028 100.794 100.285 101.931C98.7577 104.267 97.4348 106.72 95.9663 109.092C92.5641 114.588 89.6856 120.248 86.0163 125.548C83.6893 128.909 81.8993 132.584 80.112 136.263C76.9955 142.68 73.2523 148.241 69.0413 154.004C62.4944 162.963 57.8934 173.322 53.3509 183.416C49.2194 192.598 44.8433 202.109 40.0114 210.806C35.1297 219.593 28.3519 227.633 24.2937 236.856C23.0544 239.673 22.2965 242.637 21.2869 245.522C20.2187 248.574 18.4522 251.464 17.624 254.57C17.1905 256.195 15.9267 257.567 15.6832 259.271C15.3766 261.418 14.668 263.612 13.9337 265.668C13.4362 267.061 13.5038 268.42 12.977 269.85C12.0126 272.468 10.5848 275.071 9.86082 277.75C8.73391 281.919 7.02521 285.977 6.79929 290.269C6.67933 292.549 5.81523 294.823 5.81523 297.158C5.81523 300.274 5.81523 303.39 5.81523 306.506C5.81523 308.638 5.81523 310.771 5.81523 312.903C5.81523 315.225 4.44541 317.344 4.33914 319.682C4.22097 322.281 3.05867 325.301 4.44848 327.664C5.51781 329.481 17.1267 329.538 18.7174 328.265C19.863 327.348 23.9946 327.255 25.4965 327.172C28.3344 327.014 31.3173 325.359 34.107 324.739C37.2551 324.039 41.4732 322.562 42.2529 319.053C42.8649 316.299 44.2054 313.633 44.6584 310.689C45.0692 308.018 44.6857 305.032 44.6857 302.324C44.6857 300.088 41.0502 297.391 39.0547 296.666C34.0576 294.848 30.7253 291.745 25.2505 291.745C18.5613 291.745 13.5755 297.301 8.38473 301.094C4.3566 304.038 0.332699 312.981 2.7537 317.823C5.26352 322.843 12.7458 323.627 17.5146 325.094C21.2618 326.247 25.0387 326.188 28.9407 326.188C31.7122 326.188 34.5598 326.749 37.4692 326.68C39.9211 326.621 43.0574 324.501 45.0684 323.235C48.8805 320.835 51.749 318.687 54.7997 315.636C57.0983 313.338 58.831 310.645 60.8954 308.064C64.9224 303.031 70.4475 299.18 73.9616 293.713C78.1798 287.152 85.4753 283.004 89.7613 276.41C92.7852 271.758 97.0489 267.045 99.3012 261.977C100.203 259.949 101.666 257.25 102.964 255.581C104.055 254.178 104.623 252.528 105.944 251.207C107.163 249.988 108.761 248.772 109.634 247.244C110.623 245.513 112.063 243.641 113.679 242.542C115.417 241.361 116.712 238.179 117.506 236.255C118.757 233.226 120.851 230.618 122.427 227.781C123.7 225.49 125.554 221.807 127.347 219.909C129.625 217.496 130.919 213.314 132.759 210.451C135.233 206.603 138.184 203.694 141.124 200.118C143.469 197.267 145.052 194.557 146.646 191.371C147.589 189.484 149.228 187.186 149.488 184.975C149.852 181.885 152.973 179.402 154.409 176.61C156.539 172.468 158.126 167.683 161.078 164.036C162.994 161.67 163.162 158.448 164.987 156.218C166.948 153.822 169.048 150.895 170.154 147.853C170.989 145.556 171.683 143.056 172.86 140.938C173.543 139.708 174.792 135.878 175.839 135.279C177.189 134.508 178.707 130.985 179.502 129.594C180.538 127.781 182.382 125.57 182.919 123.689C183.648 121.139 185.907 120.504 187.129 118.304C187.985 116.764 188.737 113.933 190.327 113.138" stroke="#1F232E" stroke-width="3" stroke-linecap="round"/>
</svg>
