<svg width="27" height="43" viewBox="0 0 27 43" fill="none" xmlns="http://www.w3.org/2000/svg">
<path d="M2.7025 1.01287C7.78492 1.06333 10.6454 5.52866 12.3157 11.1436C12.9199 13.1749 15.2246 17.7195 16.525 19.0433C18.3128 20.8633 18.1702 25.3126 18.1435 28.0059C18.1034 32.0394 17.5937 25.3677 17.4986 24.1653C17.3098 21.7766 17.2629 18.4751 16.8581 16.0644C15.7815 9.65239 11.5705 7.63116 8.28577 4.28718C7.33658 3.32087 3.95852 1.61187 5.08384 1.9359C7.14629 2.52978 9.00463 4.3645 10.8535 5.54342C14.7974 8.05815 17.6071 13.2429 17.5536 18.6275C17.5264 21.3691 16.8256 23.165 16.7988 25.8624C16.7618 29.5861 10.7802 26.6547 8.97453 26.6368C6.90539 26.6163 4.69884 25.7423 2.45719 25.72C-1.52818 25.6805 4.76531 25.9506 6.01703 26.4181C9.39699 27.6804 13.1713 27.2772 16.3935 28.4619C17.9454 29.0325 19.8686 30.0375 21.537 30.1698C22.6182 30.2555 23.4309 31.0406 24.6017 31.0522C26.2191 31.0683 23.776 31.8377 23.2227 32.364C21.2358 34.254 19.1424 37.1862 17.0513 38.6458C16.291 39.1764 13.5267 41.8084 12.7026 40.9694C11.1786 39.4179 10.1442 37.3286 8.80936 35.6291C7.60086 34.0904 6.47824 32.3506 5.29181 30.6712C4.64975 29.7623 0.882294 22.9361 2.98648 25.9146C4.78965 28.4671 7.47114 37.2202 10.534 37.729C12.0796 37.9858 13.3226 40.3129 14.9476 40.329C17.6207 40.3555 17.8504 38.8388 19.762 36.9686C21.4856 35.2822 21.1246 32.2674 22.3698 30.3674C24.6123 26.9458 20.0999 27.5993 18.4892 27.5833C15.59 27.5545 5.17523 29.2068 3.82305 25.7336" stroke="#9B0823" stroke-width="2" stroke-linecap="round"/>
</svg>
