<svg width="31" height="40" viewBox="0 0 31 40" fill="none" xmlns="http://www.w3.org/2000/svg">
<path d="M1.48917 37.9903C7.28724 38.4394 10.9261 34.4967 13.3054 29.3504C14.1661 27.4888 17.1781 23.4167 18.7725 22.292C20.9646 20.7458 21.1787 16.5246 21.3762 13.9752C21.672 10.1572 20.5262 16.4161 20.316 17.5438C19.8985 19.7841 19.5656 22.9014 18.9002 25.1414C17.1301 31.0994 12.1586 32.599 8.13108 35.4399C6.96723 36.2609 2.97169 37.5467 4.28195 37.3503C6.68335 36.9903 8.9571 35.4371 11.1646 34.503C15.8733 32.5107 19.5151 27.8826 19.9099 22.7858C20.111 20.1907 19.4641 18.4239 19.6618 15.8706C19.9349 12.3459 12.8679 14.533 10.808 14.3734C8.44749 14.1906 5.85811 14.8013 3.30081 14.6032C-1.24574 14.251 5.95152 14.6108 7.41801 14.2911C11.3779 13.428 15.6464 14.1781 19.4199 13.3729C21.2373 12.9851 23.5147 12.2228 25.4279 12.2608C26.6677 12.2854 27.6605 11.6224 28.9963 11.7259C30.8413 11.8688 28.1214 10.9024 27.5353 10.3507C25.4301 8.36929 23.292 5.39193 21.0317 3.80733C20.21 3.23121 17.2815 0.472195 16.271 1.18496C14.4023 2.50306 13.0464 4.37758 11.3808 5.85419C9.87293 7.19103 8.44593 8.72641 6.95127 10.1985C6.14242 10.9952 1.26984 17.0818 3.92066 14.4709C6.19227 12.2336 9.98997 4.21881 13.5246 4.03709C15.3082 3.94539 16.9222 1.86641 18.7761 2.01002C21.8255 2.24624 21.9591 3.70289 23.9799 5.65829C25.802 7.42144 25.1353 10.237 26.394 12.1553C28.6607 15.61 23.5721 14.5509 21.7345 14.4086C18.4271 14.1524 6.69443 11.5718 4.859 14.7239" stroke="#9B0823" stroke-width="2" stroke-linecap="round"/>
</svg>
