<svg width="42" height="58" viewBox="0 0 42 58" fill="none" xmlns="http://www.w3.org/2000/svg">
<path d="M4.24427 1.84866C-0.651737 8.1917 1.66526 15.7649 6.45674 22.9004C8.19006 25.4817 11.1394 32.4377 11.3855 35.2434C11.7237 39.1006 16.9494 42.9383 20.0547 45.3352C24.705 48.9247 17.5743 42.2736 16.2923 41.071C13.7455 38.6818 10.0167 35.6451 7.65511 32.9685C1.37381 25.8494 3.16733 18.808 2.54582 11.721C2.36623 9.67299 3.70488 3.9454 2.97852 5.63211C1.64727 8.72346 1.93357 12.6814 1.47933 16.036C0.510394 23.1916 3.69942 31.3509 9.90751 36.1428C13.0684 38.5826 15.8047 39.3345 18.9148 41.7351C23.208 45.0489 25.6868 34.9923 27.4262 32.7389C29.4194 30.1565 30.5709 26.6339 32.7304 23.8362C36.5696 18.8623 30.7443 26.9042 30.0587 28.877C28.2075 34.2038 24.0679 38.5168 22.2817 43.5782C21.4214 46.0159 20.6959 49.3056 19.221 51.4923C18.2651 52.9094 18.3707 54.6247 17.2428 56.086C15.6848 58.1044 18.9457 55.7714 20.0865 55.5607C24.184 54.8039 29.5766 54.8556 33.2835 53.5815C34.6312 53.1182 40.3345 52.0676 40.1786 50.2895C39.8903 47.0013 38.5098 43.8347 37.8678 40.6473C37.2865 37.7616 36.3917 34.8009 35.628 31.8156C35.2147 30.2 31.0825 19.373 32.4369 24.6676C33.5976 29.2048 40.9912 40.4247 38.5876 44.6788C37.3747 46.8256 38.8237 50.4654 37.2582 52.4935C34.6832 55.8296 32.7253 54.7458 28.7239 55.427C25.1159 56.0412 22.0211 52.8738 18.6352 52.7025C12.5377 52.394 17.6829 47.3925 19.2346 45.3823C22.0274 41.764 34.0675 30.3499 31.4146 25.5409" stroke="#9B0823" stroke-width="2" stroke-linecap="round"/>
</svg>
