<svg width="64" height="40" viewBox="0 0 64 40" fill="none" xmlns="http://www.w3.org/2000/svg">
<path d="M1.83349 7.27062C8.97388 1.17618 17.2494 2.60801 24.967 6.73983C27.7588 8.23452 35.3349 10.4258 38.4194 10.3029C42.6602 10.1341 46.7299 15.182 49.2765 18.1657C53.0902 22.634 45.9782 15.94 44.692 14.7375C42.1367 12.3485 38.904 8.78746 36.0264 6.63561C28.3725 0.912101 20.5574 3.79255 12.7657 4.10281C10.5141 4.19246 4.1608 6.40721 6.04194 5.40065C9.48963 3.55584 13.8429 3.31771 17.5539 2.3724C25.4697 0.355977 34.3646 2.63763 39.4558 8.60264C42.0481 11.6398 42.7931 14.4558 45.3437 17.444C48.8645 21.5691 37.7054 25.5948 35.1686 27.7599C32.2617 30.2411 28.3442 31.9533 25.1948 34.6414C19.5957 39.4203 28.6368 32.1012 30.8319 31.0988C36.7593 28.3923 41.6392 23.3836 47.2721 20.7829C49.9849 19.5303 53.6327 18.3045 56.0877 16.4307C57.6787 15.2163 59.5659 15.0934 61.2109 13.6894C63.4831 11.75 60.8122 15.5493 60.5451 16.7954C59.5857 21.2707 59.4778 27.0167 57.9601 31.1463C57.4084 32.6478 56.076 38.8767 54.1212 38.9546C50.5061 39.0985 47.0584 38.0606 43.5652 37.8135C40.4027 37.5897 37.1671 37.0416 33.9003 36.6369C32.1324 36.4178 20.3263 33.4963 26.1201 34.2142C31.085 34.8293 43.2243 41.1762 47.9863 38.0278C50.3894 36.4389 54.3565 37.4849 56.6396 35.5362C60.395 32.3309 59.2605 30.3909 60.1336 26.0285C60.9208 22.095 57.5247 19.2282 57.4394 15.6395C57.2859 9.17679 51.6164 15.3529 49.3534 17.2844C45.2804 20.7608 32.3327 35.1733 27.1138 33.0035" stroke="#9B0823" stroke-width="2" stroke-linecap="round"/>
</svg>
