<svg width="50" height="59" viewBox="0 0 50 59" fill="none" xmlns="http://www.w3.org/2000/svg">
<path d="M48.2049 2.10529C39.0411 0.964254 33.0057 6.72419 28.8866 14.4272C27.3965 17.2138 22.3464 23.2209 19.7425 24.8205C16.1625 27.0196 15.5389 33.4737 15.0542 37.3663C14.3283 43.1958 16.5664 33.6908 16.9755 31.9786C17.7883 28.577 18.5259 23.8244 19.7318 20.4426C22.9394 11.4477 30.9236 9.53698 37.5012 5.4964C39.402 4.32878 45.8242 2.66962 43.7333 2.86841C39.9012 3.23275 36.1912 5.43627 32.628 6.69579C25.0274 9.38243 18.9411 16.1926 17.9721 23.9748C17.4787 27.9372 18.3856 30.696 17.9002 34.5946C17.2301 39.9764 28.5834 37.1753 31.839 37.5807C35.5697 38.0452 39.7167 37.3111 43.7585 37.8144C50.9443 38.7091 39.5558 37.5959 37.2089 37.9714C30.8716 38.9855 24.1536 37.5024 18.1158 38.4422C15.2079 38.8949 11.5453 39.8857 8.51415 39.6781C6.54983 39.5436 4.93088 40.4824 2.81976 40.2195C-0.0963064 39.8564 4.15166 41.5501 5.04395 42.4416C8.24869 45.6432 11.4389 50.3742 14.9163 52.9797C16.1806 53.9269 20.6387 58.3849 22.2889 57.3711C25.3407 55.4964 27.617 52.7288 30.3574 50.5953C32.8384 48.6637 35.2045 46.4214 37.6736 44.2815C39.0098 43.1234 47.1458 34.1735 42.7667 37.9688C39.0141 41.2211 32.4528 53.2107 26.8358 53.2134C24.0013 53.2147 21.3021 56.2757 18.3721 55.9108C13.5525 55.3107 13.4388 53.0674 10.3659 49.9122C7.5952 47.0672 8.8419 42.8033 6.9751 39.7643C3.61327 34.2916 11.611 36.3124 14.5152 36.674C19.7424 37.3249 38.1733 42.1964 41.2958 37.5077" stroke="#9B0823" stroke-width="2" stroke-linecap="round"/>
</svg>
