<svg width="48" height="58" viewBox="0 0 48 58" fill="none" xmlns="http://www.w3.org/2000/svg">
<path d="M3.01067 56.9582C-1.01455 48.9755 2.45462 41.5042 8.36763 35.1227C10.5067 32.8142 14.5256 26.1589 15.1901 23.2366C16.1036 19.2188 21.9689 16.4549 25.4716 14.6887C30.717 12.0438 22.5041 17.3196 21.0266 18.2755C18.0912 20.1744 13.8618 22.4639 11.0718 24.7152C3.65086 30.7033 4.42754 38.646 2.74913 46.0281C2.26412 48.1613 2.774 54.5917 2.28713 52.6142C1.3948 48.9899 2.27051 44.8519 2.30622 41.1689C2.3824 33.3127 6.82231 25.4379 13.8248 21.9069C17.3901 20.1091 20.2754 19.9996 23.7834 18.2307C28.6259 15.7889 29.6513 27.1119 31.0814 29.9479C32.7201 33.1978 33.3664 37.2354 35.1418 40.7563C38.2981 47.0159 33.5822 36.9916 33.1789 34.7202C32.0901 28.5866 28.5314 22.9543 27.4693 17.1195C26.9578 14.3095 26.7089 10.627 25.5371 7.92878C24.7777 6.18022 25.1384 4.38222 24.2111 2.54319C22.9302 0.00296116 25.891 3.30742 27.0164 3.81941C31.0584 5.65826 36.533 6.96388 40.1024 9.25451C41.4002 10.0873 47.0268 12.6439 46.6057 14.496C45.8269 17.921 43.959 20.9412 42.8367 24.1698C41.8206 27.0928 40.4755 30.0164 39.2597 32.9994C38.6017 34.6136 32.811 45.0882 34.9673 39.7978C36.8151 35.2643 45.9702 25.1947 44.1628 20.0629C43.2508 17.4733 45.2581 13.967 43.971 11.4147C41.854 7.21625 39.7088 7.87507 35.753 6.14089C32.1862 4.57721 28.5802 7.16566 25.1222 6.49362C18.8951 5.28337 23.3714 11.9018 24.6471 14.4317C26.9432 18.9853 37.4608 34.1647 34.06 38.611" stroke="#9B0823" stroke-width="2" stroke-linecap="round"/>
</svg>
