<svg width="53" height="74" viewBox="0 0 53 74" fill="none" xmlns="http://www.w3.org/2000/svg">
<path d="M47.755 1.59716C53.7199 11.7118 50.6733 21.2994 44.5534 29.5377C42.3395 32.5179 38.5181 41.0738 38.1522 44.8124C37.6492 49.9523 31.0582 53.5756 27.1391 55.8868C21.27 59.3481 30.2938 52.4816 31.9163 51.2377C35.1396 48.7667 39.8489 45.7757 42.8475 42.8576C50.823 35.0959 48.7377 24.9779 49.6619 15.5341C49.929 12.8051 48.3825 4.61165 49.2517 7.12581C50.8447 11.7337 50.4043 17.0263 50.8992 21.7246C51.9549 31.7464 47.8095 41.8649 39.9744 46.4855C35.9851 48.8382 32.5604 49.026 28.6353 51.3408C23.2169 54.5362 20.3417 40.1109 18.2226 36.5175C15.7941 32.3996 14.4342 27.2604 11.8033 22.7992C7.12582 14.8678 14.2125 27.575 15.0248 30.4655C17.2183 38.2706 22.2839 45.3952 24.402 52.8197C25.4221 56.3954 26.2563 61.0882 28.0474 64.5102C29.2082 66.7278 29.0404 69.0272 30.4146 71.3574C32.3127 74.576 28.2998 70.4106 26.8831 69.7764C21.7947 67.4984 15.0757 65.9245 10.4849 63.0625C8.81578 62.0219 1.73303 58.8549 1.9649 56.4855C2.3937 52.1039 4.18043 48.2205 5.04764 44.0837C5.83277 40.3385 7.01017 36.587 8.02468 32.7619C8.5737 30.6919 13.9504 17.2349 12.1512 24.0188C10.6093 29.8322 1.16138 42.8288 4.06557 49.3442C5.53113 52.632 3.6491 57.1377 5.55635 60.3718C8.69359 65.6915 11.1556 64.8154 16.1259 66.9612C20.6075 68.8961 24.53 65.5344 28.7516 66.3338C36.354 67.7735 30.0501 59.4064 28.1597 56.2008C24.7571 50.4311 9.99974 31.2455 13.4063 25.5175" stroke="#9B0823" stroke-width="2" stroke-linecap="round"/>
</svg>
