<svg width="34" height="31" viewBox="0 0 34 31" fill="none" xmlns="http://www.w3.org/2000/svg">
<path d="M32.9969 2.35507C28.0326 0.487866 23.889 2.89437 20.5548 6.64322C19.3486 7.99937 15.7221 10.6762 14.0532 11.2199C11.7588 11.9675 10.5443 15.488 9.75114 17.5968C8.56331 20.7548 11.0889 15.7472 11.5472 14.8459C12.4577 13.0554 13.5075 10.5004 14.6349 8.77369C17.6335 4.18109 22.3487 4.1857 26.5643 2.81213C27.7825 2.41521 31.5917 2.35068 30.3973 2.18104C28.2084 1.87014 25.8408 2.60272 23.6819 2.82782C19.0767 3.30797 14.7638 6.29415 13.1781 10.51C12.3707 12.6566 12.5069 14.319 11.7125 16.431C10.6159 19.3465 17.3321 19.3061 19.0958 19.9694C21.1168 20.7296 23.5312 20.8763 25.7208 21.6999C29.6135 23.164 23.4031 21.0137 22.0421 20.9084C18.367 20.6241 14.8144 18.8942 11.3165 18.6086C9.63182 18.4711 7.45346 18.5328 5.78858 18.01C4.70967 17.6712 3.67957 17.9781 2.53591 17.548C0.956178 16.9538 3.10109 18.4698 3.47974 19.0874C4.83967 21.3056 5.98619 24.3757 7.57842 26.2975C8.15732 26.9962 10.0486 30.0841 11.1062 29.7395C13.0621 29.1022 14.7048 27.8621 16.5215 27.0385C18.1663 26.2928 19.7886 25.3583 21.4547 24.4946C22.3563 24.0273 28.1011 20.1213 25.1462 21.6529C22.614 22.9655 17.3406 28.7804 14.2035 28.0279C12.6204 27.6482 10.7022 28.9953 9.11487 28.3983C6.50394 27.4162 6.74155 26.1482 5.44904 23.9737C4.2836 22.013 5.55214 19.7992 4.91753 17.8515C3.7747 14.3441 7.96974 16.5461 9.54306 17.1378C12.3748 18.2029 22.0136 23.3973 24.3867 21.1981" stroke="#9B0823" stroke-width="2" stroke-linecap="round"/>
</svg>
