<svg width="38" height="71" viewBox="0 0 38 71" fill="none" xmlns="http://www.w3.org/2000/svg">
<path d="M27.1929 0.998555C34.3824 5.91547 34.1991 15.0012 31.2248 24.5894C30.1489 28.058 29.0985 36.7267 29.6883 39.8515C30.4992 44.1476 26.0547 50.3477 23.4491 54.1576C19.547 59.8632 25.1812 49.8765 26.192 48.0736C28.2002 44.492 31.2808 39.7458 33.0025 35.927C37.5819 25.7698 33.5121 18.8771 32.0223 10.9838C31.5918 8.7029 28.4105 3.04892 29.7041 4.58312C32.075 7.39495 32.9723 11.7792 34.4813 15.2206C37.7002 22.5613 36.7587 32.6231 31.5495 40.24C28.8972 44.1182 26.1871 46.0075 23.5775 49.8233C19.9751 55.0907 14.2515 45.214 11.6973 43.4672C8.77033 41.4654 6.46126 38.1174 3.29027 35.9487C-2.34733 32.0931 6.35732 38.4774 7.69418 40.3363C11.3041 45.356 17.0631 48.3799 20.5223 53.1387C22.1883 55.4306 23.969 58.6951 26.2188 60.474C27.6768 61.6269 28.0855 63.5196 29.7418 64.6523C32.0296 66.217 27.8171 64.9837 26.5276 65.2057C21.8963 66.0029 16.12 68.1829 11.7508 68.268C10.1623 68.2989 3.71666 69.4117 3.34288 67.4313C2.65167 63.7691 3.17044 59.8078 2.88974 56.1151C2.63562 52.7719 2.69549 49.2242 2.60698 45.7015C2.55908 43.7952 3.70151 30.4829 3.85849 36.7304C3.99302 42.0842 -0.532741 57.1052 3.34378 60.7495C5.3 62.5886 4.85172 67.0874 7.15048 68.6596C10.9317 71.2456 12.7047 69.3048 17.2098 68.4637C21.272 67.7054 23.6319 63.068 27.2164 61.5494C33.6715 58.8146 26.6227 55.4437 24.3442 53.8854C20.2431 51.0806 3.83695 43.5051 5.22239 37.2701" stroke="#9B0823" stroke-width="2" stroke-linecap="round"/>
</svg>
