<svg width="34" height="62" viewBox="0 0 34 62" fill="none" xmlns="http://www.w3.org/2000/svg">
<path d="M24.9249 60.0889C31.3018 55.237 31.0336 47.3219 28.2623 39.1859C27.2597 36.2427 26.2205 28.7591 26.7124 25.986C27.3887 22.1734 23.3406 17.109 20.9654 13.9871C17.4083 9.31195 22.5644 17.5883 23.4896 19.0829C25.3276 22.0521 28.1386 25.954 29.723 29.1525C33.9371 37.66 30.3745 43.9928 29.1318 50.9977C28.7728 53.022 25.9909 58.2045 27.1308 56.7647C29.2201 54.1258 29.9728 50.2295 31.2836 47.1084C34.0798 40.4509 33.122 31.743 28.3734 25.5018C25.9556 22.324 23.5089 20.8864 21.13 17.7598C17.8461 13.4437 12.8377 22.5098 10.5722 24.2335C7.97606 26.2088 5.94825 29.3108 3.13565 31.4508C-1.86477 35.2554 5.85111 29.0047 7.02606 27.2781C10.1987 22.6158 15.3174 19.5275 18.3582 15.1046C19.8226 12.9745 21.3786 9.98655 23.3714 8.25857C24.6628 7.13876 25.0068 5.45503 26.4759 4.33727C28.5052 2.79332 24.7498 4.1982 23.5934 4.10503C19.4401 3.7704 14.2464 2.31832 10.3358 2.58483C8.91396 2.68172 3.13356 2.21327 2.8218 3.97074C2.24527 7.22077 2.75489 10.6375 2.54606 13.8821C2.35699 16.8197 2.45124 19.9112 2.41242 22.9924C2.39141 24.6599 3.5663 36.1889 3.63515 30.7243C3.69414 26.0414 -0.527797 13.285 2.89921 9.8021C4.62859 8.04453 4.17588 4.15319 6.21483 2.60186C9.5687 0.0500734 11.1775 1.60562 15.2184 1.98828C18.8619 2.33332 21.0268 6.19648 24.2517 7.24229C30.0592 9.12562 23.7905 12.6172 21.7695 14.1549C18.1319 16.9225 3.5382 24.8134 4.8494 30.1469" stroke="#9B0823" stroke-width="2" stroke-linecap="round"/>
</svg>
