<svg width="59" height="37" viewBox="0 0 59 37" fill="none" xmlns="http://www.w3.org/2000/svg">
<path d="M57.5117 6.27514C51.8285 0.626598 44.0256 1.98145 36.3484 5.84602C33.5711 7.24404 26.3017 9.30326 23.4873 9.19763C19.618 9.05241 15.1588 13.7589 12.3935 16.5412C8.25229 20.7078 15.7404 14.4618 17.0934 13.3397C19.7815 11.1106 23.2594 7.78943 26.2094 5.77995C34.056 0.435119 40.8189 3.09244 47.9282 3.35926C49.9826 3.43636 55.4986 5.47858 53.9156 4.54762C51.0143 2.84138 47.0515 2.63204 43.7797 1.76316C36.8008 -0.0902364 28.3075 2.05676 22.7792 7.61907C19.9643 10.4512 18.8771 13.0724 16.1076 15.8589C12.2845 19.7055 21.9536 23.4187 23.9726 25.4254C26.2864 27.725 29.6379 29.3067 32.1446 31.798C36.6011 36.2273 29.3481 29.445 27.4762 28.5189C22.4217 26.018 18.6584 21.373 13.8591 18.9698C11.5477 17.8124 8.37411 16.6824 6.38833 14.9464C5.10147 13.8214 3.3864 13.7123 2.07711 12.411C0.268607 10.6135 2.1769 14.1398 2.24375 15.298C2.48385 19.4578 1.76032 24.802 2.56244 28.6387C2.85407 30.0337 3.18553 35.8236 4.96918 35.8905C8.26763 36.0143 11.5817 35.0393 14.8242 34.7997C17.7598 34.5827 20.809 34.0639 23.8662 33.6784C25.5207 33.4697 36.7784 30.7195 31.3562 31.4033C26.7098 31.9893 14.6557 37.9265 10.7344 35.0114C8.75557 33.5403 4.96355 34.5242 3.1464 32.7181C0.157354 29.7473 1.47671 27.9398 1.29966 23.8847C1.14001 20.2283 4.66851 17.5524 5.26058 14.2143C6.3268 8.20285 10.6478 13.9314 12.449 15.7216C15.6909 18.9437 25.515 32.3127 30.6173 30.28" stroke="#9B0823" stroke-width="2" stroke-linecap="round"/>
</svg>
