<svg width="60" height="47" viewBox="0 0 60 47" fill="none" xmlns="http://www.w3.org/2000/svg">
<path d="M1.08967 43.4718C9.22664 47.8383 16.9322 44.6401 23.5503 38.9388C25.9444 36.8764 32.8198 33.0926 35.8252 32.5388C39.9571 31.7774 42.8645 25.9816 44.7193 22.5251C47.497 17.3488 41.9843 25.4088 40.9857 26.8586C39.0018 29.7388 36.6012 33.9063 34.2576 36.6264C28.0243 43.8611 19.8879 42.7665 12.2962 44.1655C10.1024 44.5697 3.51377 43.8032 5.53582 44.3712C9.24177 45.4122 13.4965 44.6936 17.2742 44.8027C25.3324 45.0353 33.4638 40.8758 37.1719 33.9656C39.06 30.4471 39.2081 27.5469 41.0657 24.0851C43.6301 19.3063 32.0302 17.8282 29.1394 16.277C25.8267 14.4993 21.6937 13.6897 18.1048 11.7638C11.7242 8.33988 21.9464 13.4821 24.271 13.9774C30.5479 15.315 36.2802 19.1193 42.2511 20.4183C45.1267 21.0439 48.9003 21.4394 51.653 22.7253C53.4369 23.5586 55.2854 23.2663 57.16 24.2722C59.7493 25.6617 56.397 22.551 55.8859 21.398C54.0501 17.2566 52.779 11.6939 50.4741 8.0104C49.6361 6.67118 47.0839 0.906311 45.1792 1.25729C41.6569 1.90636 38.5362 3.66785 35.2111 4.67055C32.2007 5.57836 29.1856 6.81736 26.1113 7.92383C24.4475 8.52261 13.6331 13.9396 19.0856 11.9772C23.7581 10.2956 34.1989 1.47573 39.4395 3.49727C42.0841 4.5174 45.7049 2.63473 48.3067 4.03086C52.5862 6.32736 51.8839 8.46098 53.6134 12.5115C55.1728 16.1637 52.4734 19.692 53.1198 23.1995C54.2837 29.5159 47.5515 24.749 44.9726 23.3652C40.3311 20.8744 24.8938 9.68882 20.2915 12.9373" stroke="#9B0823" stroke-width="2" stroke-linecap="round"/>
</svg>
