<svg width="149" height="72" viewBox="0 0 149 72" fill="none" xmlns="http://www.w3.org/2000/svg">
<path d="M70.9671 11.4892C70.9671 11.4892 70.9982 11.4519 71.023 11.4395C71.6873 11.2098 82.0055 7.70295 90.6475 8.62157C99.2895 9.54019 110.247 18.3292 114.103 17.7519C114.121 17.7519 114.14 17.7519 114.158 17.7643C114.307 17.8574 115.183 18.2857 117.71 17.4354C120.516 16.4919 119.243 11.0671 120.007 6.41812C120.739 1.96157 127.804 16.734 128.394 17.9816C128.419 18.0312 128.456 18.0561 128.506 18.0436C129.003 17.9443 132.361 17.8512 144.139 28.6512C144.201 28.7071 144.201 28.8188 144.139 28.8685C142.903 29.8305 133.088 37.1174 122.825 35.063C122.751 35.0381 119.287 33.8712 121.54 40.0719C121.54 40.0905 121.553 40.1029 121.565 40.1154C121.962 40.5312 129.977 48.9602 129.977 50.8036L128.909 51.0643C128.81 51.0892 128.76 51.2381 128.823 51.3374C129.052 51.7036 129.505 52.374 129.462 52.374H128.804C128.736 52.374 128.661 52.3554 128.599 52.3243L127.419 51.7471L127.09 52.6905L126.619 52.4733C126.488 52.4174 126.345 52.4733 126.271 52.6098L126.016 53.0816C125.948 53.2119 125.805 53.2367 125.706 53.1436L124.775 52.225C124.682 52.1381 124.551 52.1505 124.477 52.2623L124.197 52.6905C124.197 52.6905 124.141 52.6781 124.123 52.6533C123.682 52.1443 118.66 46.3533 116.952 45.4471C115.164 44.5036 97.7995 43.2436 97.0359 42.9271C96.2723 42.6105 95.2852 60.0457 72.6434 58.3512C68.4652 58.0409 68.6887 58.3512 66.6958 58.6616C66.6709 58.6616 66.6399 58.6864 66.6213 58.7112L60.3695 68.2636C60.3198 68.3381 60.2205 68.3257 60.1894 68.2388L60.0653 67.9347C60.0342 67.8602 59.9597 67.8354 59.9039 67.885L59.4941 68.425L59.2458 68.0029C59.2458 67.9036 59.1589 67.8478 59.0906 67.8912L58.5194 68.245C58.3828 68.3319 58.2152 68.2078 58.2152 68.0154V67.7423C58.2152 67.6367 58.1159 67.5685 58.0476 67.6305L57.4454 68.1395C57.3522 68.2202 57.2343 68.0898 57.2839 67.9657L58.06 66.0354L57.9607 65.9112L58.2152 65.5885C58.2152 65.5885 58.2524 65.5512 58.2649 65.5264L61.7788 56.8057C61.7788 56.8057 61.7974 56.7747 61.8098 56.7623L57.1225 63.3912C57.1101 63.4347 56.7811 63.4223 56.7811 63.4223C56.7438 63.2795 56.5886 63.2547 56.5265 63.3788L56.3527 63.7016C56.272 63.8567 56.0857 63.8567 56.005 63.7016L55.7381 63.205C55.7008 63.1429 55.6263 63.1305 55.5829 63.1864L55.1234 63.7512C54.9993 63.9002 54.8068 63.9002 54.6827 63.7512L54.3909 63.3912L54.1363 63.7078L53.8011 63.9933C53.7204 64.0057 53.6583 63.9064 53.6831 63.8133L57.9607 49.2457C57.9607 49.2457 57.9669 49.2271 57.9731 49.2147L62.5548 41.0526C62.5548 41.0526 62.561 41.0402 62.5672 41.034C66.0501 36.7326 55.8126 45.1181 55.4214 45.4409C55.4152 45.4471 55.4028 45.4533 55.3966 45.4533L42.6633 50.4747C42.6633 50.4747 42.6385 50.4809 42.6323 50.4809H32.2023C32.2023 50.4809 32.1712 50.4809 32.1588 50.4685L24.7895 46.3967C24.7895 46.3967 24.7709 46.3843 24.7585 46.3719L18.1404 38.8367C18.1404 38.8367 18.1404 38.8305 18.1342 38.8243L11.752 29.7002L7.15786 22.7733L1.89319 14.8285C1.81869 14.7167 1.92424 14.5554 2.02978 14.6236L6.63636 17.7457C6.63636 17.7457 6.64878 17.7581 6.65499 17.7643L10.2186 21.5257C10.2186 21.5257 10.2186 21.5257 10.2248 21.5319L16.3276 26.8636C16.3276 26.8636 16.3524 26.8885 16.3586 26.9071L17.6127 29.6878C17.6127 29.6878 17.6313 29.7188 17.6437 29.7312L21.2011 33.1761L24.5722 36.9685C24.5722 36.9747 24.5847 36.9809 24.5909 36.9933L27.0494 41.3257C27.0494 41.3257 27.0866 41.3692 27.1114 41.3816L32.4258 42.9395C32.4258 42.9395 32.4382 42.9395 32.4444 42.9395L37.2621 43.2498C37.2621 43.2498 37.2931 43.2498 37.3117 43.2374L43.9236 39.7864H43.9298L50.4734 36.9747C50.4796 36.9747 50.492 36.9685 50.4982 36.9623L56.4396 32.2264L59.5003 29.7126L62.5362 27.5278C62.5548 27.5154 62.5672 27.4967 62.5734 27.4781L67.4035 17.1312C67.4035 17.1312 67.4035 17.1188 67.4097 17.1188L70.9547 11.4954L70.9671 11.4892Z" fill="#736357"/>
<path d="M116.953 45.4471L112.359 40.7237C112.359 40.7237 108.783 37.8933 106.231 38.8368C106.231 38.8368 97.7692 36.565 95.2362 38.6443C92.7032 40.7236 94.9631 36.3168 88.8727 41.0402C87.5813 42.0395 88.0966 44.7395 86.5756 46.074C80.9012 51.0333 68.4473 58.3512 68.4473 58.3512L70.7009 58.2333L79.6781 58.3512C79.6781 58.3512 85.2098 57.3023 87.898 56.0174C94.2305 53.0009 97.0428 42.9271 97.0428 42.9271L113.129 45.1305L116.959 45.4471H116.953Z" fill="#C7B299"/>
<path d="M131.87 23.5887C132.228 23.3299 132.06 22.4847 131.494 21.7008C130.928 20.917 130.179 20.4914 129.82 20.7502C129.462 21.009 129.63 21.8542 130.196 22.638C130.761 23.4219 131.511 23.8475 131.87 23.5887Z" fill="#1C1C1C"/>
<path opacity="0.8" d="M142.978 29.7127L142.618 27.2734L144.145 28.6514L142.978 29.7127Z" fill="#FF8DF0"/>
<path opacity="0.7" d="M128.4 17.9813C128.4 17.9813 125.023 17.7517 125.023 16.4917C125.023 16.4917 121.503 10.7193 122.571 7.36133C122.571 7.36133 126.904 13.8041 128.407 17.9813H128.4Z" fill="#FF8DF0"/>
<path opacity="0.8" d="M123.794 52.2493C123.75 52.2182 123.744 52.15 123.775 52.1003C123.937 51.8582 124.402 51.2313 124.613 51.7465C124.663 51.8706 124.731 51.9824 124.812 52.0755C125.141 52.4851 125.638 52.3734 125.638 52.3734H126.122C126.122 52.3734 126.153 52.3734 126.165 52.3548L126.445 52.1313C126.445 52.1313 126.476 52.1127 126.488 52.1127H127.004C127.004 52.1127 127.041 52.1065 127.053 52.0941L127.395 51.7651C127.395 51.7651 127.426 51.7465 127.444 51.7465H128.165C128.165 51.7465 128.189 51.7465 128.202 51.7341L128.798 51.3555C128.798 51.3555 128.829 51.3306 128.835 51.3058L129.419 49.7789C129.45 49.7044 129.537 49.6982 129.568 49.7789L129.928 50.6913C129.953 50.7472 129.928 50.8217 129.872 50.8341L129.046 51.0886C129.003 51.101 128.953 51.07 128.947 51.0141C128.941 50.9458 128.91 50.9024 128.829 51.101C128.692 51.4362 128.879 51.4362 128.879 51.4362L129.183 51.9079L129.456 52.3734H128.711C128.711 52.3734 128.686 52.3734 128.674 52.361L128.183 52.0631C128.183 52.0631 128.177 52.0631 128.171 52.0631L127.488 51.7837C127.444 51.7651 127.395 51.7962 127.382 51.8458L127.184 52.5844C127.165 52.6403 127.115 52.6713 127.066 52.6403L126.675 52.3982C126.675 52.3982 126.631 52.3858 126.606 52.3982L126.389 52.51C126.389 52.51 126.352 52.541 126.346 52.5658C126.296 52.7334 126.103 53.3355 125.892 53.1927C125.625 53.0127 125.116 52.6962 125.116 52.6962H124.862L124.675 52.2306C124.644 52.15 124.558 52.1313 124.502 52.1934L124.421 52.4603C124.384 52.5844 124.266 52.6279 124.179 52.5596L123.794 52.2555V52.2493Z" fill="#FF8DF0"/>
<path opacity="0.8" d="M57.5205 67.3818L58.222 67.4811L58.4765 67.7977L59.2153 67.5432L59.5009 67.7977L60.0473 67.5929L60.2583 67.7977L60.5874 67.9467C60.5874 67.9467 60.4818 68.1018 60.3763 68.2694C60.2708 68.437 60.1963 68.2446 60.1963 68.2446L60.0721 67.9405C60.0721 67.9405 60.0659 67.6611 59.9107 67.8908C59.7555 68.1205 59.5009 68.4308 59.5009 68.4308L59.0974 67.8908C59.0974 67.8908 58.3648 68.4246 58.4207 68.2694C58.4207 68.2694 58.222 68.3067 58.222 67.7418C58.222 67.177 58.0544 67.6301 58.0544 67.6301L57.4522 68.1391C57.4522 68.1391 57.1231 68.1391 57.2908 67.9653C57.4584 67.7915 57.4584 67.4811 57.4584 67.4811L57.5267 67.3818H57.5205Z" fill="#FF8DF0"/>
<path opacity="0.8" d="M53.9812 62.808L54.6455 63.0749L55.3843 62.808H55.9989L56.1417 62.9383H57.191L57.3089 63.1245L57.1227 63.3852L56.7812 63.4162C56.7812 63.4162 56.6198 63.0438 56.5267 63.3728C56.4335 63.7018 56.1666 63.8073 56.1666 63.8073C56.1666 63.8073 56.1045 63.6087 55.9245 63.3852L55.6699 63.0687L55.1236 63.739L54.8442 63.8011L54.3972 63.379L53.8074 63.9811L53.6895 63.8011L53.9812 62.8018V62.808Z" fill="#FF8DF0"/>
<path opacity="0.4" d="M1.89355 14.8281L6.65535 17.764L10.2251 21.5378L16.3279 26.8695L17.6131 29.6936L24.5912 36.9867L27.0497 41.3192L32.4261 42.933L37.2624 43.2495L43.9302 39.7861L50.4738 36.9805C51.4609 36.1923 53.9566 34.2371 56.4586 32.2757C58.9606 30.3143 61.5184 28.3219 62.5428 27.5336C62.5428 27.5336 63.8465 26.5716 63.8465 27.1985C63.8465 27.8254 69.4651 33.4923 63.3374 38.8426L63.1326 39.8171L60.1898 41.704L55.4342 45.4405L42.6388 50.4867L32.1654 50.4743L24.7713 46.3778L18.1408 38.8302L11.7586 29.7061L7.16443 22.7792L1.89355 14.8281Z" fill="#C7B299"/>
<path d="M57.2412 37.0054C57.2412 37.0054 58.0111 32.313 56.459 32.2695" stroke="#736357" stroke-miterlimit="10"/>
<path d="M49.1826 42.5728C49.1826 42.5728 49.9525 37.8804 48.4004 37.8369" stroke="#736357" stroke-miterlimit="10"/>
<path d="M53.0127 40.3697C53.0127 40.3697 53.7826 35.6772 52.2305 35.6338" stroke="#736357" stroke-miterlimit="10"/>
<path d="M44.5635 42.7718C44.5635 42.7718 44.9856 39.2277 44.3896 39.5815" stroke="#736357" stroke-miterlimit="10"/>
<path d="M40.4785 44.0318C40.4785 44.0318 40.9876 41.9587 40.4785 41.5801" stroke="#736357" stroke-miterlimit="10"/>
<path d="M37.4111 44.9749C37.4111 44.9749 37.8705 43.0818 37.2559 43.2432" stroke="#736357" stroke-miterlimit="10"/>
<path d="M32.2148 44.975C32.2148 44.975 33.3075 43.0819 32.4259 42.9268" stroke="#736357" stroke-miterlimit="10"/>
<path d="M26.1309 43.2373C26.1309 43.2373 27.7885 42.2193 27.0435 41.3193" stroke="#736357" stroke-miterlimit="10"/>
<path d="M22.8594 38.3646C22.8594 38.3646 25.0447 37.7998 24.5915 36.9805" stroke="#736357" stroke-miterlimit="10"/>
<path d="M20.0527 33.9582L21.1951 33.1699" stroke="#736357" stroke-miterlimit="10"/>
<path d="M16.2227 30.1841C16.2227 30.1841 17.7313 30.7675 17.6133 29.6875" stroke="#736357" stroke-miterlimit="10"/>
<path d="M15.1982 27.3536C15.1982 27.3536 16.1792 27.9495 16.3282 26.8633" stroke="#736357" stroke-miterlimit="10"/>
<path d="M12.6465 24.8342L13.0749 24.1328" stroke="#736357" stroke-miterlimit="10"/>
<path d="M11.0264 22.7486L11.225 22.4072" stroke="#736357" stroke-miterlimit="10"/>
<path d="M9.83398 21.6864L10.2251 21.5312" stroke="#736357" stroke-miterlimit="10"/>
<path d="M6.51855 18.5399L6.65514 17.7578" stroke="#736357" stroke-miterlimit="10"/>
<path d="M8.56152 20.1104H8.87815" stroke="#736357" stroke-miterlimit="10"/>
<path d="M128.4 35.3483C128.4 35.3483 132.2 33.1511 129.934 30.0166" stroke="#534741" stroke-miterlimit="10"/>
</svg>
