<svg width="311" height="312" viewBox="0 0 311 312" fill="none" xmlns="http://www.w3.org/2000/svg">
<path d="M49.958 51.5426L52.7349 49.2017L69.2706 58.4489L63.0109 40.5392L65.7756 38.2086L80.177 55.3655L78.1585 57.0671L66.6168 43.317L72.899 61.2287L71.3576 62.5281L54.795 53.1989L66.3778 66.998L64.3593 68.6995L49.958 51.5426Z" fill="#1F232E"/>
<path d="M77.9116 36.412L80.1179 35.0213L89.1511 49.4132L86.9449 50.804L77.9116 36.412ZM74.6113 31.1539L76.8176 29.7632L78.6463 32.6768L76.4401 34.0676L74.6113 31.1539Z" fill="#1F232E"/>
<path d="M97.1687 45.1189C96.2927 45.5845 95.3909 45.7618 94.4633 45.6509C93.5401 45.5255 92.7342 44.8123 92.0457 43.5113L86.8067 33.6121L84.5603 34.8061L83.505 32.8121L85.7514 31.6181L83.5585 27.4746L85.8614 26.2506L88.0543 30.3941L90.993 28.8322L92.0483 30.8262L89.1096 32.3881L94.0941 41.8064C94.3835 42.3533 94.6734 42.7186 94.9638 42.9025C95.2542 43.0864 95.523 43.1609 95.7701 43.1262C96.0217 43.0771 96.2982 42.9724 96.5996 42.8122C96.9198 42.642 97.2151 42.4246 97.4855 42.1602C97.7652 41.8907 97.9697 41.6612 98.0987 41.4718L99.169 43.4941C99.0637 43.6829 98.8241 43.9371 98.4502 44.2566C98.0762 44.5762 97.6491 44.8636 97.1687 45.1189Z" fill="#1F232E"/>
<path d="M115.588 26.3993C115.095 24.8883 114.404 23.8351 113.514 23.2399C112.624 22.6446 111.622 22.5296 110.507 22.8948C109.665 23.1704 108.972 23.7117 108.428 24.5186C107.89 25.3121 107.559 26.24 107.434 27.3023C107.316 28.3511 107.417 29.3673 107.738 30.351L110.422 38.5803L107.944 39.3921L102.675 23.2377L105.153 22.4259L106.265 25.8332C106.211 25.2221 106.34 24.5513 106.652 23.8207C106.963 23.0902 107.445 22.4162 108.096 21.7987C108.744 21.1712 109.524 20.708 110.437 20.4092C111.562 20.0406 112.611 19.9889 113.583 20.2539C114.566 20.5156 115.426 21.0702 116.163 21.9177C116.909 22.762 117.506 23.8686 117.952 25.2376L121.157 35.0642L118.679 35.876L115.588 26.3993Z" fill="#1F232E"/>
<path d="M130.406 33.2006C129.231 33.4148 128.165 33.3924 127.207 33.1333C126.26 32.8722 125.475 32.4027 124.853 31.7245C124.232 31.0464 123.827 30.193 123.641 29.1645C123.45 28.115 123.546 27.1488 123.928 26.266C124.308 25.3728 124.941 24.623 125.828 24.0167C126.726 23.4085 127.815 22.9877 129.095 22.7543L134.054 21.8504L133.879 20.8901C133.66 19.6831 133.14 18.8184 132.319 18.2959C131.506 17.7609 130.465 17.6092 129.196 17.8407C127.915 18.0741 126.959 18.5683 126.326 19.3233C125.694 20.0783 125.474 20.9911 125.669 22.0616L123.071 22.5351C122.87 21.4226 122.975 20.3897 123.387 19.4362C123.798 18.4723 124.474 17.6605 125.417 17.0008C126.357 16.3305 127.489 15.8749 128.811 15.6338C130.144 15.3909 131.347 15.4209 132.421 15.7238C133.495 16.0268 134.382 16.5808 135.081 17.3858C135.778 18.1803 136.236 19.181 136.455 20.388L138.458 31.4236L135.893 31.8914L135.384 29.0892C134.955 30.1323 134.294 31.0281 133.4 31.7765C132.517 32.5231 131.519 32.9978 130.406 33.2006ZM126.236 28.5937C126.343 29.1814 126.57 29.6823 126.916 30.0962C127.271 30.4978 127.712 30.7805 128.241 30.9444C128.779 31.1064 129.364 31.13 129.993 31.0152C130.969 30.8373 131.843 30.4232 132.614 29.7731C133.385 29.123 133.953 28.3417 134.318 27.4294C134.682 26.5065 134.778 25.5728 134.607 24.6282L134.487 23.967L129.843 24.8135C128.521 25.0546 127.546 25.5035 126.917 26.1602C126.288 26.817 126.061 27.6281 126.236 28.5937Z" fill="#1F232E"/>
<path d="M147.854 30.6618L145.267 30.809L138.042 14.1846L140.79 14.0282L146.36 27.4775L150.311 13.4865L153.074 13.3292L147.854 30.6618Z" fill="#1F232E"/>
<path d="M168.212 21.0379C168.333 19.4532 168.096 18.2154 167.501 17.3246C166.905 16.4337 166.023 15.9434 164.853 15.8536C163.97 15.7858 163.123 16.0204 162.312 16.5572C161.512 17.0842 160.852 17.8145 160.331 18.748C159.822 19.6718 159.528 20.6495 159.449 21.6811L158.789 30.312L156.189 30.1124L157.484 13.1698L160.084 13.3694L159.811 16.9429C159.995 16.358 160.37 15.7877 160.937 15.2321C161.504 14.6765 162.206 14.2383 163.043 13.9174C163.882 13.5859 164.779 13.4569 165.737 13.5304C166.917 13.621 167.906 13.9751 168.704 14.5927C169.513 15.211 170.096 16.0528 170.453 17.1179C170.821 18.1838 170.95 19.4347 170.84 20.8705L170.052 31.1765L167.452 30.9769L168.212 21.0379Z" fill="#1F232E"/>
<path d="M182.422 24.4114C182.881 22.7457 183.597 21.3556 184.568 20.2413C185.54 19.127 186.679 18.3689 187.985 17.9671C189.304 17.5579 190.683 17.5527 192.122 17.9516C193.52 18.339 194.658 19.0254 195.537 20.0106C196.429 20.9884 197.003 22.1768 197.259 23.5759C197.514 24.975 197.422 26.4715 196.982 28.0652C196.852 28.5382 196.754 28.8541 196.688 29.0129L184.861 25.7351C184.613 26.917 184.581 27.993 184.767 28.9633C184.953 29.9335 185.337 30.7483 185.918 31.4075C186.51 32.0697 187.274 32.5304 188.209 32.7896C189.361 33.1087 190.405 33.0938 191.342 32.7448C192.279 32.3958 192.962 31.7659 193.391 30.8553L195.919 31.5561C195.505 32.537 194.862 33.3439 193.99 33.9767C193.121 34.5992 192.115 34.9957 190.973 35.166C189.84 35.3393 188.668 35.2578 187.455 34.9216C186.016 34.5227 184.834 33.8133 183.909 32.7933C182.985 31.7733 182.391 30.5351 182.129 29.0789C181.867 27.6227 181.965 26.0668 182.422 24.4114ZM194.759 26.1374C194.994 25.2063 195.015 24.3267 194.823 23.4987C194.642 22.6735 194.272 21.9678 193.715 21.3816C193.167 20.7983 192.472 20.3898 191.629 20.1562C190.324 19.7944 189.14 19.9145 188.078 20.5166C187.015 21.1187 186.169 22.1404 185.539 23.5818L194.759 26.1374Z" fill="#1F232E"/>
<path d="M203.977 21.9136L206.4 22.8792L204.919 26.612C205.23 26.1161 205.759 25.6665 206.504 25.2631C207.253 24.8499 208.08 24.5881 208.985 24.4778C209.893 24.3577 210.739 24.4536 211.521 24.7656C211.997 24.9552 212.36 25.1687 212.61 25.4061L211.683 27.7409C211.447 27.555 211.121 27.3791 210.705 27.2132C209.754 26.8341 208.774 26.7591 207.764 26.9885C206.759 27.2079 205.837 27.6957 204.997 28.4519C204.158 29.2082 203.514 30.1514 203.065 31.2816L200.132 38.6728L197.709 37.7071L203.977 21.9136Z" fill="#1F232E"/>
<path d="M218.942 48.1856C217.608 47.382 216.6 46.4077 215.919 45.2625C215.238 44.1174 214.919 42.8858 214.964 41.5676C215.013 40.2403 215.433 38.9181 216.223 37.6009L218.471 38.9548C217.912 39.8879 217.603 40.8166 217.546 41.7411C217.495 42.6565 217.683 43.5044 218.11 44.2849C218.552 45.0617 219.216 45.7171 220.103 46.2509C220.925 46.7463 221.722 47.0457 222.493 47.1492C223.273 47.2582 223.974 47.1694 224.593 46.8827C225.222 46.6015 225.729 46.1408 226.113 45.5005C226.519 44.8236 226.699 44.129 226.654 43.4168C226.617 42.71 226.351 41.9517 225.854 41.1419C225.357 40.332 224.605 39.4184 223.598 38.401C222.082 36.8649 221.172 35.3954 220.869 33.9926C220.575 32.5953 220.868 31.1649 221.745 29.7013C222.316 28.75 223.082 28.0534 224.044 27.6115C225.005 27.1696 226.062 27.0153 227.213 27.1486C228.379 27.2782 229.543 27.6925 230.703 28.3915C231.955 29.1456 232.902 30.0649 233.545 31.1496C234.188 32.2343 234.49 33.4 234.451 34.6467C234.418 35.8843 234.036 37.1114 233.307 38.328L231.059 36.9741C231.564 36.1325 231.839 35.2897 231.885 34.4458C231.94 33.6073 231.766 32.8299 231.362 32.1136C230.968 31.4027 230.369 30.8051 229.564 30.3207C228.834 29.8804 228.111 29.6131 227.396 29.5189C226.681 29.4246 226.034 29.508 225.455 29.7691C224.875 30.0302 224.413 30.4489 224.067 31.0251C223.656 31.7112 223.449 32.3774 223.447 33.0236C223.445 33.6699 223.659 34.3595 224.09 35.0924C224.527 35.8161 225.211 36.6454 226.143 37.5803C227.833 39.2833 228.865 40.8701 229.239 42.3407C229.628 43.8077 229.389 45.2638 228.522 46.7091C227.908 47.7336 227.082 48.4878 226.046 48.9717C225.024 49.4519 223.891 49.629 222.648 49.5029C221.411 49.3677 220.176 48.9286 218.942 48.1856Z" fill="#1F232E"/>
<path d="M237.866 39.8548L239.963 41.4057L229.886 55.0875L227.79 53.5366L237.866 39.8548ZM241.548 34.8562L243.644 36.4071L241.604 39.177L239.508 37.6261L241.548 34.8562Z" fill="#1F232E"/>
<path d="M235.87 59.8332L233.872 58.1572L249.288 39.7003L251.286 41.3763L235.87 59.8332Z" fill="#1F232E"/>
<path d="M234.12 65.6363C234.201 65.8608 234.354 66.0796 234.578 66.2927C235.204 66.888 235.915 67.1148 236.71 66.9729C237.505 66.8311 238.321 66.3187 239.157 65.4356L252.224 51.6314L254.114 53.4284L240.827 67.4649C240.101 68.2318 239.314 68.8077 238.464 69.1926C237.616 69.5927 236.734 69.7179 235.818 69.5683C234.894 69.4265 234 68.944 233.134 68.1209C233.01 68.0033 232.886 67.8631 232.761 67.7002C232.644 67.5446 232.565 67.4183 232.525 67.3212L234.12 65.6363ZM256.492 47.123L258.382 48.9199L256.017 51.4182L254.127 49.6212L256.492 47.123Z" fill="#1F232E"/>
<path d="M250.353 61.3164C251.657 60.1816 253.021 59.4181 254.445 59.026C255.87 58.6339 257.237 58.6314 258.547 59.0184C259.872 59.4064 261.023 60.1646 262.002 61.2928C262.952 62.3888 263.521 63.5905 263.709 64.898C263.912 66.2065 263.733 67.5148 263.173 68.8228C262.613 70.1308 261.71 71.3277 260.463 72.4135C260.093 72.7357 259.837 72.9448 259.694 73.0408L251.654 63.7691C250.794 64.6171 250.174 65.497 249.793 66.4088C249.411 67.3207 249.281 68.2122 249.401 69.0835C249.528 69.9629 249.91 70.7692 250.546 71.5026C251.328 72.4052 252.206 72.97 253.18 73.1972C254.154 73.4244 255.07 73.2768 255.93 72.7542L257.649 74.7367C256.762 75.3255 255.781 75.6427 254.705 75.6884C253.637 75.727 252.58 75.5016 251.535 75.012C250.496 74.5304 249.564 73.8142 248.74 72.8633C247.761 71.735 247.169 70.49 246.962 69.1283C246.755 67.7665 246.945 66.406 247.531 65.0469C248.118 63.6877 249.058 62.4442 250.353 61.3164ZM259.676 69.5768C260.386 68.9302 260.89 68.2086 261.188 67.412C261.492 66.6235 261.574 65.8307 261.434 65.0337C261.3 64.2447 260.947 63.5198 260.374 62.859C259.486 61.8355 258.434 61.2811 257.216 61.1958C255.999 61.1104 254.729 61.4945 253.408 62.348L259.676 69.5768Z" fill="#1F232E"/>
<path d="M262.481 91.6192C261.704 90.2699 261.332 88.8888 261.367 87.4758C261.408 86.072 261.84 84.7497 262.664 83.5088C263.502 82.2717 264.678 81.2151 266.192 80.3387C267.697 79.4677 269.184 78.9828 270.654 78.884C272.129 78.7944 273.476 79.0808 274.695 79.7432C275.919 80.4149 276.925 81.4347 277.714 82.8024C278.497 84.1609 278.872 85.5394 278.841 86.9378C278.81 88.3362 278.385 89.6486 277.565 90.8749C276.75 92.1105 275.591 93.1638 274.086 94.0348C272.572 94.9111 271.068 95.3994 269.575 95.4997C268.096 95.6039 266.737 95.3182 265.498 94.6426C264.264 93.9763 263.259 92.9685 262.481 91.6192ZM267.534 82.6676C266.38 83.3356 265.481 84.1028 264.835 84.9694C264.19 85.836 263.83 86.7403 263.758 87.6821C263.69 88.6331 263.92 89.5661 264.448 90.481C264.975 91.3959 265.664 92.0571 266.514 92.4646C267.37 92.8813 268.334 93.026 269.405 92.8987C270.477 92.7714 271.59 92.3738 272.744 91.7059C273.888 91.0433 274.774 90.2841 275.401 89.4281C276.043 88.5761 276.393 87.6772 276.451 86.7315C276.524 85.7897 276.294 84.8567 275.761 83.9326C275.228 83.0084 274.534 82.338 273.678 81.9213C272.837 81.5085 271.886 81.363 270.823 81.485C269.775 81.6108 268.679 82.005 267.534 82.6676Z" fill="#1F232E"/>
<path d="M263.154 110.484C262.69 109.314 262.484 108.116 262.536 106.889C262.578 105.667 262.922 104.553 263.568 103.549C264.214 102.545 265.161 101.794 266.409 101.297L267.366 103.706C266.593 104.014 265.995 104.488 265.572 105.127C265.139 105.771 264.903 106.491 264.863 107.287C264.814 108.088 264.945 108.88 265.256 109.663C265.586 110.496 266.056 111.187 266.664 111.737C267.273 112.286 268.019 112.62 268.904 112.738C269.783 112.87 270.762 112.721 271.842 112.29L275.766 110.725C275.154 110.774 274.478 110.648 273.738 110.345C272.999 110.043 272.313 109.588 271.68 108.978C271.052 108.379 270.575 107.668 270.248 106.845C269.76 105.616 269.635 104.362 269.874 103.084C270.116 101.816 270.738 100.638 271.741 99.5493C272.753 98.4566 274.116 97.5685 275.83 96.885C277.505 96.2172 279.071 95.9427 280.53 96.0614C281.999 96.1762 283.256 96.6108 284.301 97.3651C285.351 98.1294 286.116 99.1163 286.596 100.326C286.927 101.158 287.069 102.009 287.024 102.877C286.992 103.751 286.794 104.553 286.43 105.284C286.07 106.025 285.582 106.616 284.965 107.057L288.428 105.676L289.39 108.1L273.042 114.619C271.447 115.255 269.981 115.45 268.643 115.202C267.305 114.955 266.171 114.397 265.241 113.527C264.314 112.668 263.619 111.654 263.154 110.484ZM272.637 106.358C272.94 107.121 273.494 107.779 274.298 108.331C275.113 108.879 276.05 109.217 277.111 109.345C278.176 109.483 279.214 109.35 280.224 108.947L280.774 108.728C281.725 108.349 282.545 107.74 283.234 106.903C283.927 106.075 284.389 105.173 284.621 104.197C284.863 103.216 284.828 102.334 284.517 101.551C284.163 100.659 283.617 99.9633 282.88 99.465C282.157 98.9726 281.272 98.7109 280.227 98.6799C279.186 98.6588 278.041 98.8972 276.792 99.395C275.544 99.8929 274.546 100.515 273.798 101.261C273.054 102.017 272.586 102.835 272.396 103.715C272.206 104.594 272.286 105.475 272.637 106.358Z" fill="#1F232E"/>
<path d="M277.671 130.738C277.44 129.436 277.571 128.183 278.061 126.98C278.554 125.787 279.401 124.759 280.602 123.895C281.814 123.029 283.328 122.435 285.145 122.111C286.919 121.795 288.515 121.842 289.93 122.251C291.346 122.66 292.485 123.34 293.347 124.292C294.221 125.252 294.772 126.373 294.999 127.654C295.157 128.547 295.122 129.42 294.894 130.273C294.679 131.135 294.34 131.883 293.878 132.518C293.417 133.153 292.918 133.61 292.383 133.889L302.669 132.059L303.124 134.627L279.448 138.84L278.993 136.272L282.632 135.625C281.928 135.566 281.223 135.317 280.518 134.879C279.814 134.452 279.202 133.873 278.682 133.142C278.165 132.422 277.828 131.62 277.671 130.738ZM280.128 130.756C280.271 131.565 280.687 132.32 281.374 133.021C282.062 133.722 282.913 134.247 283.929 134.597C284.944 134.948 285.987 135.027 287.058 134.837L287.767 134.711C288.775 134.531 289.686 134.109 290.5 133.444C291.325 132.777 291.939 131.996 292.344 131.101C292.748 130.206 292.877 129.343 292.73 128.513C292.563 127.568 292.172 126.771 291.559 126.121C290.945 125.472 290.129 125.022 289.109 124.77C288.092 124.528 286.916 124.526 285.582 124.764C284.259 124.999 283.156 125.407 282.273 125.986C281.402 126.575 280.785 127.28 280.422 128.103C280.058 128.927 279.961 129.811 280.128 130.756Z" fill="#1F232E"/>
<path d="M287.373 145.404C285.752 145.454 284.514 145.802 283.659 146.447C282.815 147.103 282.411 148.017 282.447 149.19C282.474 150.075 282.82 150.897 283.483 151.655C284.158 152.413 285.014 153.006 286.051 153.432C287.089 153.87 288.147 154.072 289.224 154.038L297.476 153.783L297.556 156.39L280.572 156.916L280.492 154.309L284.202 154.194C283.666 154.104 283.075 153.818 282.431 153.336C281.797 152.854 281.249 152.22 280.787 151.434C280.326 150.648 280.08 149.77 280.05 148.8C280.013 147.606 280.248 146.569 280.754 145.689C281.271 144.808 282.04 144.117 283.059 143.616C284.079 143.126 285.325 142.858 286.796 142.812L297.127 142.492L297.208 145.099L287.373 145.404Z" fill="#1F232E"/>
<path d="M303.826 172.121L303.423 174.698L289.957 172.582L295.273 181.143L294.734 184.589L289.703 176.688L277.958 181.889L278.42 178.933L288.408 174.509L286.922 172.105L279.667 170.965L280.07 168.389L303.826 172.121Z" fill="#1F232E"/>
<path d="M275.871 188.688C276.206 187.541 276.704 186.598 277.365 185.858C278.022 185.128 278.794 184.637 279.678 184.386C280.563 184.134 281.507 184.155 282.51 184.449C283.534 184.75 284.354 185.269 284.972 186.006C285.601 186.746 285.987 187.649 286.131 188.714C286.273 189.789 286.161 190.951 285.796 192.2L284.383 197.038L285.319 197.313C286.496 197.658 287.502 197.581 288.337 197.081C289.18 196.595 289.782 195.732 290.144 194.493C290.509 193.244 290.495 192.167 290.104 191.263C289.712 190.359 288.995 189.754 287.951 189.447L288.691 186.913C289.776 187.232 290.652 187.789 291.32 188.585C291.997 189.384 292.42 190.353 292.587 191.492C292.765 192.633 292.665 193.849 292.289 195.139C291.909 196.439 291.343 197.502 290.591 198.326C289.839 199.15 288.946 199.694 287.913 199.958C286.891 200.225 285.791 200.186 284.614 199.84L273.852 196.683L274.583 194.179L277.316 194.981C276.576 194.13 276.071 193.137 275.803 192.003C275.531 190.878 275.554 189.773 275.871 188.688ZM281.857 187.026C281.284 186.858 280.735 186.836 280.21 186.959C279.692 187.096 279.241 187.364 278.858 187.763C278.472 188.172 278.189 188.684 278.009 189.298C277.731 190.251 277.71 191.217 277.946 192.198C278.182 193.179 278.625 194.037 279.277 194.773C279.939 195.512 280.731 196.016 281.652 196.287L282.297 196.476L283.62 191.945C283.997 190.655 284.033 189.582 283.728 188.725C283.422 187.869 282.799 187.302 281.857 187.026Z" fill="#1F232E"/>
<path d="M277.772 213.263C279.222 213.913 280.467 214.109 281.505 213.85C282.544 213.591 283.303 212.926 283.781 211.855C284.142 211.047 284.207 210.17 283.975 209.224C283.749 208.292 283.285 207.423 282.582 206.617C281.884 205.825 281.063 205.217 280.119 204.793L272.222 201.25L273.286 198.868L288.789 205.825L287.725 208.206L284.455 206.738C284.943 207.11 285.354 207.656 285.685 208.378C286.017 209.1 286.193 209.909 286.212 210.806C286.242 211.708 286.061 212.597 285.669 213.474C285.186 214.555 284.52 215.366 283.67 215.909C282.816 216.461 281.828 216.725 280.705 216.7C279.578 216.686 278.358 216.384 277.044 215.794L267.614 211.563L268.678 209.182L277.772 213.263Z" fill="#1F232E"/>
<path d="M273.286 231.3L274.825 228.981L276.703 230.232L275.163 232.552L276.255 233.279C277.382 234.031 278.168 234.862 278.612 235.774C279.051 236.694 279.202 237.615 279.064 238.536C278.93 239.472 278.576 240.371 278.004 241.233C277.786 241.562 277.548 241.852 277.291 242.104L275.428 240.862C275.631 240.69 275.816 240.479 275.981 240.231C276.388 239.617 276.634 239.044 276.719 238.511C276.798 237.987 276.673 237.461 276.344 236.935C276.024 236.414 275.451 235.878 274.626 235.328L273.721 234.724L271.863 237.524L269.985 236.273L271.844 233.473L259.582 225.3L261.024 223.127L273.286 231.3Z" fill="#1F232E"/>
<path d="M253.485 233.252C254.242 232.328 255.069 231.655 255.967 231.233C256.857 230.819 257.759 230.67 258.671 230.785C259.583 230.901 260.443 231.29 261.25 231.954C262.074 232.632 262.625 233.432 262.905 234.352C263.193 235.28 263.195 236.262 262.911 237.299C262.62 238.345 262.062 239.37 261.237 240.377L258.043 244.275L258.796 244.896C259.743 245.675 260.699 245.998 261.662 245.866C262.628 245.748 263.519 245.19 264.337 244.192C265.162 243.185 265.571 242.189 265.565 241.204C265.559 240.218 265.136 239.379 264.296 238.688L265.969 236.646C266.842 237.364 267.43 238.221 267.732 239.216C268.042 240.217 268.052 241.274 267.76 242.388C267.476 243.508 266.908 244.588 266.057 245.628C265.198 246.676 264.262 247.431 263.247 247.895C262.233 248.359 261.199 248.51 260.146 248.348C259.101 248.192 258.105 247.725 257.158 246.946L248.497 239.819L250.15 237.802L252.349 239.611C252.002 238.538 251.926 237.426 252.124 236.276C252.315 235.135 252.768 234.127 253.485 233.252ZM259.641 234.07C259.179 233.69 258.683 233.455 258.152 233.363C257.622 233.286 257.102 233.356 256.594 233.573C256.078 233.798 255.618 234.158 255.212 234.653C254.584 235.42 254.186 236.301 254.018 237.296C253.851 238.292 253.923 239.256 254.234 240.189C254.554 241.128 255.084 241.903 255.825 242.513L256.344 242.94L259.336 239.289C260.188 238.25 260.641 237.276 260.695 236.367C260.75 235.459 260.398 234.693 259.641 234.07ZM268.299 247.41C268.048 247.716 267.938 248.06 267.969 248.444C268.007 248.835 268.191 249.166 268.52 249.437C268.858 249.715 269.218 249.831 269.599 249.786C269.989 249.748 270.309 249.576 270.56 249.271C270.803 248.974 270.905 248.63 270.867 248.239C270.837 247.855 270.653 247.524 270.315 247.246C269.986 246.975 269.626 246.859 269.236 246.897C268.855 246.942 268.542 247.113 268.299 247.41ZM271.441 245.873C271.886 246.239 272.202 246.686 272.39 247.213C272.587 247.748 272.644 248.292 272.562 248.847C272.473 249.409 272.247 249.913 271.882 250.359C271.516 250.804 271.071 251.121 270.544 251.309C270.011 251.506 269.463 251.56 268.902 251.471C268.349 251.389 267.85 251.164 267.405 250.798C266.96 250.432 266.64 249.982 266.443 249.448C266.255 248.92 266.205 248.375 266.294 247.812C266.376 247.258 266.599 246.758 266.964 246.312C267.329 245.867 267.779 245.546 268.312 245.349C268.839 245.161 269.378 245.108 269.932 245.19C270.493 245.279 270.996 245.507 271.441 245.873Z" fill="#1F232E"/>
<path d="M250.249 258.87L252.326 257.016L253.825 258.702L251.749 260.556L252.621 261.537C253.521 262.549 254.071 263.552 254.27 264.547C254.462 265.549 254.374 266.478 254.008 267.334C253.641 268.205 253.072 268.986 252.3 269.675C252.006 269.938 251.702 270.158 251.39 270.337L249.902 268.663C250.142 268.549 250.374 268.392 250.597 268.193C251.145 267.703 251.528 267.21 251.746 266.716C251.955 266.229 251.967 265.689 251.782 265.096C251.604 264.511 251.186 263.848 250.527 263.107L249.804 262.294L247.298 264.532L245.798 262.846L248.304 260.608L238.511 249.597L240.456 247.859L250.249 258.87Z" fill="#1F232E"/>
<path d="M230.598 255.751C231.564 255.049 232.535 254.607 233.51 254.426C234.476 254.251 235.386 254.335 236.24 254.678C237.093 255.02 237.826 255.615 238.439 256.461C239.064 257.326 239.396 258.238 239.433 259.2C239.477 260.17 239.23 261.121 238.693 262.052C238.147 262.99 237.347 263.841 236.295 264.606L232.218 267.569L232.79 268.36C233.509 269.354 234.351 269.908 235.317 270.024C236.281 270.154 237.285 269.84 238.329 269.082C239.381 268.316 240.029 267.456 240.273 266.501C240.517 265.546 240.32 264.628 239.682 263.747L241.817 262.195C242.48 263.11 242.832 264.088 242.873 265.126C242.919 266.174 242.661 267.199 242.097 268.202C241.539 269.214 240.716 270.115 239.629 270.906C238.533 271.702 237.436 272.196 236.337 272.388C235.238 272.58 234.2 272.464 233.222 272.041C232.25 271.626 231.405 270.922 230.686 269.928L224.111 260.842L226.22 259.309L227.89 261.616C227.825 260.49 228.034 259.395 228.516 258.333C228.989 257.277 229.683 256.416 230.598 255.751ZM236.347 258.101C235.996 257.617 235.576 257.263 235.085 257.04C234.592 256.831 234.072 256.767 233.525 256.848C232.969 256.936 232.432 257.168 231.915 257.544C231.112 258.127 230.504 258.879 230.091 259.799C229.677 260.719 229.503 261.67 229.568 262.652C229.639 263.642 229.956 264.525 230.519 265.303L230.913 265.848L234.731 263.073C235.818 262.282 236.503 261.455 236.786 260.59C237.068 259.726 236.922 258.896 236.347 258.101Z" fill="#1F232E"/>
<path d="M217.402 264.492C218.261 263.996 219.156 263.788 220.087 263.866C221.014 263.959 221.845 264.643 222.578 265.919L228.161 275.629L230.364 274.357L231.488 276.313L229.285 277.585L231.622 281.649L229.364 282.953L227.027 278.889L224.145 280.553L223.02 278.597L225.902 276.933L220.591 267.695C220.283 267.159 219.98 266.804 219.683 266.63C219.387 266.457 219.116 266.392 218.87 266.435C218.62 266.493 218.347 266.607 218.052 266.778C217.738 266.959 217.45 267.187 217.189 267.461C216.919 267.74 216.723 267.976 216.601 268.17L215.46 266.187C215.559 265.994 215.789 265.732 216.152 265.399C216.514 265.067 216.931 264.764 217.402 264.492Z" fill="#1F232E"/>
<path d="M198.985 273.121C199.817 272.818 200.67 272.699 201.546 272.765C202.421 272.832 203.221 273.034 203.945 273.371C204.659 273.712 205.205 274.137 205.583 274.647L201.718 264.016L204.168 263.121L212.691 286.564L210.241 287.458L208.968 283.954C209.041 284.655 208.92 285.385 208.607 286.147C208.298 286.919 207.831 287.617 207.207 288.243C206.577 288.881 205.841 289.355 204.999 289.662C203.777 290.108 202.536 290.192 201.277 289.914C200.008 289.639 198.842 288.992 197.779 287.972C196.719 286.962 195.882 285.61 195.266 283.916C194.635 282.182 194.396 280.571 194.548 279.085C194.693 277.612 195.159 276.364 195.944 275.339C196.729 274.314 197.743 273.575 198.985 273.121ZM207.224 279.158C206.852 278.135 206.26 277.272 205.448 276.57C204.637 275.867 203.755 275.394 202.804 275.15C201.853 274.907 200.992 274.926 200.22 275.208C199.319 275.537 198.603 276.066 198.073 276.793C197.546 277.53 197.254 278.426 197.194 279.481C197.125 280.54 197.32 281.701 197.78 282.964C198.243 284.237 198.838 285.251 199.567 286.007C200.286 286.767 201.08 287.249 201.949 287.454C202.818 287.659 203.703 287.597 204.605 287.268C205.397 286.979 206.077 286.43 206.645 285.62C207.217 284.821 207.585 283.897 207.749 282.85C207.916 281.812 207.825 280.812 207.475 279.849L207.224 279.158Z" fill="#1F232E"/>
<mask id="path-28-outside-1_73_125" maskUnits="userSpaceOnUse" x="175.737" y="275.628" width="20.1082" height="28.5771" fill="black">
<rect fill="white" x="175.737" y="275.628" width="20.1082" height="28.5771"/>
<path d="M184.158 277.682C185.326 277.431 186.393 277.42 187.358 277.649C188.313 277.88 189.112 278.325 189.754 278.983C190.397 279.641 190.828 280.481 191.047 281.504C191.27 282.547 191.205 283.515 190.851 284.41C190.499 285.314 189.889 286.084 189.021 286.718C188.143 287.354 187.068 287.809 185.796 288.082L180.868 289.142L181.073 290.096C181.329 291.296 181.876 292.144 182.714 292.64C183.543 293.149 184.588 293.268 185.85 292.997C187.122 292.723 188.063 292.199 188.671 291.425C189.28 290.65 189.47 289.731 189.242 288.667L191.823 288.112C192.06 289.218 191.987 290.253 191.605 291.219C191.225 292.196 190.574 293.028 189.653 293.717C188.734 294.417 187.617 294.908 186.303 295.191C184.979 295.475 183.775 295.483 182.692 295.214C181.609 294.945 180.706 294.419 179.982 293.637C179.26 292.864 178.771 291.879 178.514 290.679L176.166 279.712L178.716 279.163L179.312 281.948C179.707 280.892 180.34 279.976 181.21 279.2C182.07 278.426 183.053 277.92 184.158 277.682ZM188.47 282.156C188.345 281.572 188.103 281.078 187.744 280.675C187.377 280.285 186.927 280.016 186.393 279.869C185.85 279.724 185.265 279.719 184.639 279.854C183.669 280.062 182.809 280.503 182.059 281.178C181.309 281.852 180.766 282.65 180.429 283.574C180.094 284.508 180.027 285.444 180.228 286.383L180.369 287.04L184.984 286.048C186.298 285.765 187.259 285.286 187.866 284.609C188.474 283.933 188.676 283.115 188.47 282.156ZM186.95 297.981C186.564 298.064 186.263 298.265 186.048 298.584C185.835 298.914 185.773 299.287 185.862 299.704C185.954 300.132 186.163 300.447 186.49 300.649C186.819 300.862 187.177 300.927 187.563 300.844C187.938 300.763 188.232 300.558 188.445 300.229C188.661 299.91 188.723 299.536 188.631 299.109C188.542 298.692 188.332 298.376 188.003 298.164C187.676 297.961 187.325 297.9 186.95 297.981ZM190.367 298.735C190.488 299.299 190.458 299.845 190.277 300.375C190.098 300.915 189.804 301.377 189.395 301.759C188.975 302.144 188.484 302.397 187.921 302.518C187.358 302.639 186.812 302.609 186.282 302.429C185.742 302.25 185.28 301.951 184.896 301.532C184.514 301.123 184.262 300.637 184.142 300.074C184.021 299.511 184.05 298.959 184.229 298.419C184.41 297.889 184.71 297.431 185.13 297.047C185.539 296.664 186.025 296.412 186.588 296.291C187.151 296.17 187.703 296.199 188.243 296.377C188.772 296.558 189.228 296.853 189.61 297.262C189.994 297.681 190.247 298.172 190.367 298.735Z"/>
</mask>
<path d="M184.158 277.682C185.326 277.431 186.393 277.42 187.358 277.649C188.313 277.88 189.112 278.325 189.754 278.983C190.397 279.641 190.828 280.481 191.047 281.504C191.27 282.547 191.205 283.515 190.851 284.41C190.499 285.314 189.889 286.084 189.021 286.718C188.143 287.354 187.068 287.809 185.796 288.082L180.868 289.142L181.073 290.096C181.329 291.296 181.876 292.144 182.714 292.64C183.543 293.149 184.588 293.268 185.85 292.997C187.122 292.723 188.063 292.199 188.671 291.425C189.28 290.65 189.47 289.731 189.242 288.667L191.823 288.112C192.06 289.218 191.987 290.253 191.605 291.219C191.225 292.196 190.574 293.028 189.653 293.717C188.734 294.417 187.617 294.908 186.303 295.191C184.979 295.475 183.775 295.483 182.692 295.214C181.609 294.945 180.706 294.419 179.982 293.637C179.26 292.864 178.771 291.879 178.514 290.679L176.166 279.712L178.716 279.163L179.312 281.948C179.707 280.892 180.34 279.976 181.21 279.2C182.07 278.426 183.053 277.92 184.158 277.682ZM188.47 282.156C188.345 281.572 188.103 281.078 187.744 280.675C187.377 280.285 186.927 280.016 186.393 279.869C185.85 279.724 185.265 279.719 184.639 279.854C183.669 280.062 182.809 280.503 182.059 281.178C181.309 281.852 180.766 282.65 180.429 283.574C180.094 284.508 180.027 285.444 180.228 286.383L180.369 287.04L184.984 286.048C186.298 285.765 187.259 285.286 187.866 284.609C188.474 283.933 188.676 283.115 188.47 282.156ZM186.95 297.981C186.564 298.064 186.263 298.265 186.048 298.584C185.835 298.914 185.773 299.287 185.862 299.704C185.954 300.132 186.163 300.447 186.49 300.649C186.819 300.862 187.177 300.927 187.563 300.844C187.938 300.763 188.232 300.558 188.445 300.229C188.661 299.91 188.723 299.536 188.631 299.109C188.542 298.692 188.332 298.376 188.003 298.164C187.676 297.961 187.325 297.9 186.95 297.981ZM190.367 298.735C190.488 299.299 190.458 299.845 190.277 300.375C190.098 300.915 189.804 301.377 189.395 301.759C188.975 302.144 188.484 302.397 187.921 302.518C187.358 302.639 186.812 302.609 186.282 302.429C185.742 302.25 185.28 301.951 184.896 301.532C184.514 301.123 184.262 300.637 184.142 300.074C184.021 299.511 184.05 298.959 184.229 298.419C184.41 297.889 184.71 297.431 185.13 297.047C185.539 296.664 186.025 296.412 186.588 296.291C187.151 296.17 187.703 296.199 188.243 296.377C188.772 296.558 189.228 296.853 189.61 297.262C189.994 297.681 190.247 298.172 190.367 298.735Z" fill="#1F232E"/>
<path d="M187.358 277.649L187.382 277.552L187.381 277.552L187.358 277.649ZM189.754 278.983L189.683 279.053L189.683 279.053L189.754 278.983ZM190.851 284.41L190.758 284.373L190.758 284.373L190.851 284.41ZM189.021 286.718L189.08 286.799L189.08 286.799L189.021 286.718ZM180.868 289.142L180.847 289.044L180.75 289.065L180.771 289.163L180.868 289.142ZM182.714 292.64L182.766 292.555L182.765 292.554L182.714 292.64ZM188.671 291.425L188.593 291.363L188.593 291.363L188.671 291.425ZM189.242 288.667L189.222 288.569L189.124 288.59L189.145 288.688L189.242 288.667ZM191.823 288.112L191.921 288.091L191.9 287.993L191.803 288.014L191.823 288.112ZM191.605 291.219L191.512 291.182L191.512 291.183L191.605 291.219ZM189.653 293.717L189.593 293.637L189.592 293.638L189.653 293.717ZM182.692 295.214L182.716 295.117L182.716 295.117L182.692 295.214ZM179.982 293.637L180.055 293.569L180.055 293.568L179.982 293.637ZM176.166 279.712L176.145 279.614L176.047 279.635L176.068 279.733L176.166 279.712ZM178.716 279.163L178.813 279.142L178.792 279.045L178.695 279.066L178.716 279.163ZM179.312 281.948L179.214 281.969L179.286 282.303L179.405 281.983L179.312 281.948ZM181.21 279.2L181.277 279.274L181.277 279.274L181.21 279.2ZM187.744 280.675L187.819 280.609L187.817 280.607L187.744 280.675ZM186.393 279.869L186.42 279.773L186.419 279.773L186.393 279.869ZM180.429 283.574L180.335 283.54L180.335 283.54L180.429 283.574ZM180.369 287.04L180.271 287.061L180.292 287.159L180.39 287.138L180.369 287.04ZM187.866 284.609L187.792 284.543L187.792 284.543L187.866 284.609ZM186.048 298.584L185.965 298.528L185.964 298.53L186.048 298.584ZM186.49 300.649L186.544 300.565L186.543 300.564L186.49 300.649ZM188.445 300.229L188.363 300.173L188.361 300.174L188.445 300.229ZM188.003 298.164L188.058 298.08L188.056 298.079L188.003 298.164ZM190.277 300.375L190.182 300.343L190.182 300.344L190.277 300.375ZM189.395 301.759L189.462 301.833L189.463 301.832L189.395 301.759ZM186.282 302.429L186.314 302.334L186.313 302.334L186.282 302.429ZM184.896 301.532L184.969 301.464L184.969 301.464L184.896 301.532ZM184.229 298.419L184.134 298.386L184.134 298.387L184.229 298.419ZM185.13 297.047L185.197 297.12L185.198 297.12L185.13 297.047ZM188.243 296.377L188.275 296.283L188.274 296.282L188.243 296.377ZM189.61 297.262L189.684 297.194L189.683 297.193L189.61 297.262ZM184.179 277.78C185.335 277.531 186.387 277.521 187.335 277.746L187.381 277.552C186.399 277.319 185.317 277.331 184.137 277.584L184.179 277.78ZM187.334 277.746C188.272 277.973 189.054 278.409 189.683 279.053L189.826 278.913C189.169 278.24 188.353 277.787 187.382 277.552L187.334 277.746ZM189.683 279.053C190.311 279.696 190.733 280.518 190.949 281.525L191.144 281.482C190.922 280.444 190.484 279.586 189.826 278.913L189.683 279.053ZM190.949 281.525C191.169 282.55 191.104 283.499 190.758 284.373L190.944 284.446C191.306 283.532 191.371 282.543 191.144 281.482L190.949 281.525ZM190.758 284.373C190.414 285.259 189.817 286.013 188.963 286.637L189.08 286.799C189.962 286.155 190.585 285.37 190.944 284.446L190.758 284.373ZM188.963 286.637C188.098 287.263 187.036 287.713 185.775 287.985L185.817 288.18C187.1 287.904 188.189 287.445 189.08 286.799L188.963 286.637ZM185.775 287.985L180.847 289.044L180.889 289.24L185.817 288.18L185.775 287.985ZM180.771 289.163L180.975 290.117L181.17 290.075L180.966 289.121L180.771 289.163ZM180.975 290.117C181.236 291.336 181.796 292.212 182.663 292.726L182.765 292.554C181.957 292.075 181.423 291.255 181.17 290.075L180.975 290.117ZM182.661 292.725C183.519 293.252 184.592 293.37 185.871 293.095L185.829 292.899C184.584 293.167 183.567 293.047 182.766 292.555L182.661 292.725ZM185.871 293.095C187.158 292.818 188.123 292.285 188.75 291.486L188.593 291.363C188.002 292.114 187.086 292.629 185.829 292.899L185.871 293.095ZM188.75 291.486C189.379 290.686 189.573 289.735 189.34 288.646L189.145 288.688C189.367 289.726 189.181 290.614 188.593 291.363L188.75 291.486ZM189.263 288.765L191.844 288.21L191.803 288.014L189.222 288.569L189.263 288.765ZM191.726 288.133C191.959 289.221 191.887 290.237 191.512 291.182L191.698 291.256C192.088 290.27 192.162 289.214 191.921 288.091L191.726 288.133ZM191.512 291.183C191.139 292.14 190.501 292.958 189.593 293.637L189.713 293.798C190.648 293.098 191.311 292.251 191.698 291.255L191.512 291.183ZM189.592 293.638C188.687 294.327 187.584 294.813 186.282 295.093L186.324 295.288C187.65 295.003 188.781 294.507 189.713 293.797L189.592 293.638ZM186.282 295.093C184.97 295.375 183.782 295.382 182.716 295.117L182.668 295.311C183.768 295.585 184.988 295.576 186.324 295.288L186.282 295.093ZM182.716 295.117C181.651 294.853 180.765 294.336 180.055 293.569L179.908 293.705C180.646 294.502 181.567 295.038 182.668 295.311L182.716 295.117ZM180.055 293.568C179.347 292.811 178.865 291.843 178.612 290.658L178.416 290.7C178.676 291.914 179.173 292.918 179.909 293.705L180.055 293.568ZM178.612 290.658L176.264 279.691L176.068 279.733L178.416 290.7L178.612 290.658ZM176.187 279.809L178.736 279.261L178.695 279.066L176.145 279.614L176.187 279.809ZM178.618 279.184L179.214 281.969L179.41 281.927L178.813 279.142L178.618 279.184ZM179.405 281.983C179.795 280.943 180.419 280.04 181.277 279.274L181.144 279.125C180.262 279.912 179.62 280.841 179.218 281.913L179.405 281.983ZM181.277 279.274C182.124 278.512 183.091 278.014 184.179 277.78L184.137 277.584C183.014 277.826 182.016 278.34 181.144 279.125L181.277 279.274ZM188.568 282.135C188.44 281.536 188.19 281.026 187.819 280.609L187.669 280.742C188.016 281.13 188.251 281.608 188.372 282.177L188.568 282.135ZM187.817 280.607C187.437 280.203 186.97 279.925 186.42 279.773L186.367 279.966C186.883 280.108 187.317 280.367 187.671 280.744L187.817 280.607ZM186.419 279.773C185.858 279.623 185.257 279.618 184.618 279.756L184.66 279.951C185.273 279.82 185.841 279.826 186.368 279.966L186.419 279.773ZM184.618 279.756C183.631 279.968 182.755 280.418 181.993 281.103L182.126 281.252C182.863 280.589 183.708 280.156 184.66 279.951L184.618 279.756ZM181.993 281.103C181.23 281.788 180.677 282.6 180.335 283.54L180.523 283.608C180.854 282.7 181.388 281.915 182.126 281.252L181.993 281.103ZM180.335 283.54C179.994 284.491 179.926 285.446 180.131 286.404L180.326 286.362C180.129 285.442 180.194 284.524 180.523 283.608L180.335 283.54ZM180.131 286.404L180.271 287.061L180.467 287.019L180.326 286.362L180.131 286.404ZM180.39 287.138L185.005 286.145L184.963 285.95L180.348 286.942L180.39 287.138ZM185.005 286.145C186.33 285.86 187.314 285.374 187.941 284.676L187.792 284.543C187.204 285.197 186.266 285.67 184.963 285.95L185.005 286.145ZM187.941 284.676C188.572 283.974 188.779 283.123 188.568 282.135L188.372 282.177C188.572 283.108 188.377 283.892 187.792 284.543L187.941 284.676ZM186.929 297.883C186.518 297.971 186.195 298.187 185.965 298.528L186.131 298.64C186.331 298.343 186.609 298.156 186.971 298.079L186.929 297.883ZM185.964 298.53C185.735 298.884 185.67 299.284 185.765 299.725L185.96 299.683C185.876 299.289 185.935 298.943 186.132 298.638L185.964 298.53ZM185.765 299.725C185.861 300.175 186.084 300.515 186.437 300.734L186.543 300.564C186.242 300.378 186.047 300.088 185.96 299.683L185.765 299.725ZM186.436 300.733C186.787 300.961 187.172 301.03 187.584 300.942L187.542 300.746C187.182 300.824 186.851 300.764 186.544 300.565L186.436 300.733ZM187.584 300.942C187.986 300.855 188.302 300.634 188.529 300.283L188.361 300.174C188.162 300.482 187.891 300.671 187.542 300.746L187.584 300.942ZM188.528 300.285C188.761 299.94 188.825 299.538 188.729 299.088L188.533 299.13C188.62 299.535 188.561 299.88 188.363 300.173L188.528 300.285ZM188.729 299.088C188.634 298.647 188.411 298.308 188.058 298.08L187.949 298.248C188.254 298.445 188.449 298.736 188.533 299.13L188.729 299.088ZM188.056 298.079C187.707 297.862 187.329 297.797 186.929 297.883L186.971 298.079C187.321 298.003 187.646 298.06 187.951 298.249L188.056 298.079ZM190.27 298.756C190.386 299.302 190.357 299.831 190.182 300.343L190.371 300.407C190.558 299.86 190.589 299.295 190.465 298.714L190.27 298.756ZM190.182 300.344C190.008 300.868 189.723 301.315 189.327 301.686L189.463 301.832C189.885 301.438 190.188 300.962 190.372 300.406L190.182 300.344ZM189.327 301.686C188.921 302.058 188.446 302.303 187.9 302.42L187.942 302.616C188.522 302.491 189.03 302.23 189.462 301.833L189.327 301.686ZM187.9 302.42C187.354 302.538 186.826 302.509 186.314 302.334L186.25 302.523C186.797 302.71 187.362 302.741 187.942 302.616L187.9 302.42ZM186.313 302.334C185.79 302.161 185.342 301.871 184.969 301.465L184.822 301.6C185.218 302.032 185.694 302.34 186.251 302.524L186.313 302.334ZM184.969 301.464C184.599 301.069 184.356 300.599 184.239 300.053L184.044 300.095C184.168 300.675 184.428 301.178 184.823 301.6L184.969 301.464ZM184.239 300.053C184.122 299.507 184.151 298.973 184.324 298.45L184.134 298.387C183.95 298.945 183.92 299.515 184.044 300.095L184.239 300.053ZM184.324 298.451C184.499 297.937 184.79 297.494 185.197 297.12L185.062 296.973C184.631 297.369 184.321 297.84 184.134 298.386L184.324 298.451ZM185.198 297.12C185.593 296.75 186.063 296.506 186.609 296.389L186.567 296.193C185.987 296.318 185.484 296.578 185.061 296.974L185.198 297.12ZM186.609 296.389C187.155 296.272 187.688 296.3 188.211 296.472L188.274 296.282C187.717 296.098 187.147 296.069 186.567 296.193L186.609 296.389ZM188.21 296.472C188.724 296.647 189.166 296.933 189.537 297.33L189.683 297.193C189.29 296.773 188.82 296.469 188.275 296.283L188.21 296.472ZM189.536 297.329C189.908 297.735 190.153 298.21 190.27 298.756L190.465 298.714C190.341 298.134 190.08 297.627 189.684 297.194L189.536 297.329Z" fill="#D9D9D9" mask="url(#path-28-outside-1_73_125)"/>
<mask id="path-30-outside-2_73_125" maskUnits="userSpaceOnUse" x="145.701" y="280.163" width="23.3047" height="19.3716" fill="black">
<rect fill="white" x="145.701" y="280.163" width="23.3047" height="19.3716"/>
<path d="M148.984 291.597C148.959 293.111 149.213 294.241 149.745 294.986C150.277 295.741 150.99 296.126 151.886 296.141C152.569 296.152 153.224 295.906 153.85 295.404C154.477 294.903 154.99 294.217 155.388 293.349C155.786 292.481 155.994 291.524 156.011 290.479L156.159 281.328L158.766 281.371L158.598 291.753C158.574 293.278 158.827 294.413 159.359 295.158C159.891 295.903 160.61 296.283 161.517 296.297C162.189 296.308 162.838 296.063 163.465 295.561C164.092 295.059 164.605 294.374 165.003 293.506C165.401 292.637 165.608 291.681 165.625 290.635L165.774 281.485L168.381 281.527L168.106 298.517L165.498 298.474L165.552 295.131C165.393 295.736 165.091 296.313 164.644 296.86C164.198 297.408 163.631 297.847 162.943 298.177C162.255 298.518 161.489 298.681 160.647 298.667C159.868 298.655 159.167 298.473 158.543 298.121C157.909 297.769 157.399 297.313 157.013 296.752C156.617 296.191 156.36 295.589 156.242 294.947C155.82 295.997 155.166 296.855 154.28 297.524C153.394 298.203 152.333 298.532 151.096 298.512C150.115 298.496 149.265 298.232 148.548 297.718C147.831 297.216 147.283 296.471 146.904 295.483C146.526 294.496 146.348 293.293 146.371 291.874L146.544 281.172L149.152 281.214L148.984 291.597Z"/>
</mask>
<path d="M148.984 291.597C148.959 293.111 149.213 294.241 149.745 294.986C150.277 295.741 150.99 296.126 151.886 296.141C152.569 296.152 153.224 295.906 153.85 295.404C154.477 294.903 154.99 294.217 155.388 293.349C155.786 292.481 155.994 291.524 156.011 290.479L156.159 281.328L158.766 281.371L158.598 291.753C158.574 293.278 158.827 294.413 159.359 295.158C159.891 295.903 160.61 296.283 161.517 296.297C162.189 296.308 162.838 296.063 163.465 295.561C164.092 295.059 164.605 294.374 165.003 293.506C165.401 292.637 165.608 291.681 165.625 290.635L165.774 281.485L168.381 281.527L168.106 298.517L165.498 298.474L165.552 295.131C165.393 295.736 165.091 296.313 164.644 296.86C164.198 297.408 163.631 297.847 162.943 298.177C162.255 298.518 161.489 298.681 160.647 298.667C159.868 298.655 159.167 298.473 158.543 298.121C157.909 297.769 157.399 297.313 157.013 296.752C156.617 296.191 156.36 295.589 156.242 294.947C155.82 295.997 155.166 296.855 154.28 297.524C153.394 298.203 152.333 298.532 151.096 298.512C150.115 298.496 149.265 298.232 148.548 297.718C147.831 297.216 147.283 296.471 146.904 295.483C146.526 294.496 146.348 293.293 146.371 291.874L146.544 281.172L149.152 281.214L148.984 291.597Z" fill="#1F232E"/>
<path d="M149.745 294.986L149.827 294.928L149.826 294.927L149.745 294.986ZM153.85 295.404L153.788 295.326L153.788 295.326L153.85 295.404ZM156.159 281.328L156.16 281.228L156.06 281.226L156.059 281.326L156.159 281.328ZM158.766 281.371L158.866 281.372L158.868 281.272L158.768 281.271L158.766 281.371ZM163.465 295.561L163.403 295.483L163.403 295.483L163.465 295.561ZM165.774 281.485L165.775 281.385L165.675 281.383L165.674 281.483L165.774 281.485ZM168.381 281.527L168.481 281.529L168.483 281.429L168.383 281.427L168.381 281.527ZM168.106 298.517L168.104 298.617L168.204 298.618L168.206 298.518L168.106 298.517ZM165.498 298.474L165.398 298.473L165.397 298.573L165.497 298.574L165.498 298.474ZM165.552 295.131L165.652 295.132L165.456 295.105L165.552 295.131ZM164.644 296.86L164.722 296.923L164.722 296.923L164.644 296.86ZM162.943 298.177L162.9 298.087L162.898 298.087L162.943 298.177ZM158.543 298.121L158.592 298.034L158.592 298.034L158.543 298.121ZM157.013 296.752L157.095 296.695L157.095 296.694L157.013 296.752ZM156.242 294.947L156.341 294.929L156.278 294.59L156.149 294.91L156.242 294.947ZM154.28 297.524L154.22 297.444L154.219 297.444L154.28 297.524ZM148.548 297.718L148.607 297.637L148.606 297.637L148.548 297.718ZM146.904 295.483L146.998 295.448L146.998 295.448L146.904 295.483ZM146.544 281.172L146.546 281.072L146.446 281.07L146.444 281.17L146.544 281.172ZM149.152 281.214L149.252 281.216L149.253 281.116L149.153 281.114L149.152 281.214ZM148.884 291.595C148.859 293.118 149.113 294.273 149.663 295.044L149.826 294.927C149.312 294.208 149.059 293.104 149.084 291.598L148.884 291.595ZM149.663 295.043C150.213 295.824 150.956 296.225 151.885 296.241L151.888 296.041C151.025 296.027 150.341 295.658 149.827 294.928L149.663 295.043ZM151.885 296.241C152.595 296.252 153.271 295.996 153.913 295.482L153.788 295.326C153.176 295.816 152.543 296.051 151.888 296.041L151.885 296.241ZM153.913 295.482C154.554 294.969 155.075 294.271 155.479 293.391L155.297 293.307C154.904 294.164 154.401 294.836 153.788 295.326L153.913 295.482ZM155.479 293.391C155.883 292.509 156.093 291.538 156.111 290.481L155.911 290.477C155.894 291.51 155.689 292.453 155.297 293.307L155.479 293.391ZM156.111 290.481L156.259 281.33L156.059 281.326L155.911 290.477L156.111 290.481ZM156.157 281.428L158.765 281.471L158.768 281.271L156.16 281.228L156.157 281.428ZM158.666 281.369L158.498 291.752L158.698 291.755L158.866 281.372L158.666 281.369ZM158.498 291.752C158.473 293.285 158.728 294.446 159.278 295.216L159.441 295.1C158.927 294.381 158.674 293.271 158.698 291.755L158.498 291.752ZM159.278 295.216C159.828 295.986 160.577 296.382 161.515 296.397L161.519 296.197C160.644 296.183 159.954 295.819 159.441 295.1L159.278 295.216ZM161.515 296.397C162.215 296.409 162.886 296.152 163.528 295.639L163.403 295.483C162.79 295.973 162.163 296.208 161.519 296.197L161.515 296.397ZM163.528 295.639C164.169 295.126 164.69 294.427 165.094 293.547L164.912 293.464C164.519 294.321 164.015 294.992 163.403 295.483L163.528 295.639ZM165.094 293.547C165.498 292.665 165.708 291.695 165.725 290.637L165.525 290.634C165.509 291.666 165.304 292.609 164.912 293.464L165.094 293.547ZM165.725 290.637L165.873 281.486L165.674 281.483L165.525 290.634L165.725 290.637ZM165.772 281.585L168.38 281.627L168.383 281.427L165.775 281.385L165.772 281.585ZM168.281 281.525L168.006 298.515L168.206 298.518L168.481 281.529L168.281 281.525ZM168.108 298.417L165.5 298.374L165.497 298.574L168.104 298.617L168.108 298.417ZM165.598 298.476L165.652 295.132L165.452 295.129L165.398 298.473L165.598 298.476ZM165.456 295.105C165.301 295.695 165.005 296.259 164.567 296.797L164.722 296.923C165.176 296.366 165.486 295.777 165.649 295.156L165.456 295.105ZM164.567 296.797C164.131 297.332 163.575 297.762 162.9 298.087L162.986 298.267C163.686 297.931 164.266 297.483 164.722 296.923L164.567 296.797ZM162.898 298.087C162.226 298.42 161.476 298.581 160.648 298.567L160.645 298.767C161.502 298.781 162.283 298.615 162.987 298.266L162.898 298.087ZM160.648 298.567C159.885 298.555 159.2 298.377 158.592 298.034L158.494 298.208C159.133 298.569 159.851 298.754 160.645 298.767L160.648 298.567ZM158.592 298.034C157.97 297.689 157.472 297.243 157.095 296.695L156.931 296.809C157.326 297.383 157.848 297.85 158.495 298.209L158.592 298.034ZM157.095 296.694C156.706 296.144 156.455 295.556 156.341 294.929L156.144 294.965C156.264 295.622 156.527 296.237 156.931 296.81L157.095 296.694ZM156.149 294.91C155.734 295.943 155.091 296.787 154.22 297.444L154.34 297.604C155.241 296.924 155.906 296.05 156.335 294.985L156.149 294.91ZM154.219 297.444C153.353 298.108 152.315 298.432 151.097 298.412L151.094 298.612C152.351 298.632 153.435 298.297 154.341 297.603L154.219 297.444ZM151.097 298.412C150.134 298.396 149.305 298.137 148.607 297.637L148.49 297.8C149.226 298.326 150.095 298.596 151.094 298.612L151.097 298.412ZM148.606 297.637C147.908 297.148 147.371 296.421 146.998 295.448L146.811 295.519C147.195 296.522 147.754 297.284 148.491 297.8L148.606 297.637ZM146.998 295.448C146.625 294.475 146.448 293.286 146.471 291.876L146.271 291.873C146.248 293.3 146.426 294.516 146.811 295.519L146.998 295.448ZM146.471 291.876L146.644 281.173L146.444 281.17L146.271 291.873L146.471 291.876ZM146.542 281.272L149.15 281.314L149.153 281.114L146.546 281.072L146.542 281.272ZM149.052 281.212L148.884 291.595L149.084 291.598L149.252 281.216L149.052 281.212Z" fill="#D9D9D9" mask="url(#path-30-outside-2_73_125)"/>
<path d="M135.824 296.973L133.246 296.576L135.823 279.781L138.4 280.178L135.824 296.973ZM134.882 303.11L132.305 302.712L132.826 299.312L135.404 299.709L134.882 303.11Z" fill="#1F232E"/>
<path d="M127.793 269.775C129.01 270.094 130.097 270.639 131.053 271.409C132.012 272.168 132.704 273.105 133.129 274.221C133.554 275.336 133.596 276.544 133.256 277.844L130.749 277.185C130.96 276.38 130.933 275.618 130.67 274.898C130.409 274.168 129.969 273.55 129.351 273.046C128.736 272.532 128.021 272.167 127.206 271.953C126.34 271.725 125.504 271.694 124.701 271.857C123.897 272.021 123.185 272.424 122.565 273.066C121.938 273.696 121.477 274.573 121.182 275.697L120.113 279.784C120.437 279.262 120.94 278.794 121.622 278.377C122.305 277.961 123.079 277.679 123.944 277.531C124.799 277.381 125.655 277.418 126.511 277.643C127.791 277.979 128.874 278.622 129.761 279.572C130.638 280.52 131.217 281.72 131.499 283.172C131.777 284.635 131.683 286.259 131.216 288.044C130.76 289.788 130.051 291.212 129.09 292.316C128.126 293.43 127.03 294.185 125.802 294.579C124.564 294.971 123.316 295.001 122.057 294.67C121.191 294.443 120.421 294.053 119.75 293.502C119.065 292.958 118.537 292.323 118.164 291.596C117.782 290.867 117.596 290.124 117.607 289.365L116.663 292.972L114.141 292.309L118.595 275.282C119.03 273.621 119.744 272.325 120.737 271.395C121.73 270.465 122.852 269.883 124.104 269.649C125.346 269.413 126.575 269.455 127.793 269.775ZM125.486 279.855C124.692 279.647 123.834 279.703 122.912 280.023C121.988 280.354 121.159 280.908 120.426 281.686C119.683 282.461 119.174 283.375 118.899 284.428L118.749 285C118.49 285.991 118.493 287.012 118.758 288.063C119.013 289.112 119.465 290.019 120.113 290.785C120.759 291.561 121.49 292.056 122.305 292.271C123.233 292.514 124.117 292.487 124.955 292.189C125.781 291.899 126.517 291.342 127.162 290.519C127.797 289.694 128.284 288.631 128.625 287.33C128.965 286.03 129.056 284.858 128.9 283.813C128.733 282.765 128.352 281.904 127.756 281.229C127.161 280.555 126.404 280.097 125.486 279.855Z" fill="#1F232E"/>
<path d="M101.461 269.076L103.796 270.202L102.082 288.259L99.6035 287.063L101.23 272.589L91.0143 282.921L88.5211 281.718L101.461 269.076Z" fill="#1F232E"/>
<path d="M90.4763 273.252C89.5394 274.703 88.4409 275.816 87.1809 276.588C85.9208 277.36 84.6079 277.742 83.2421 277.734C81.8616 277.729 80.5447 277.321 79.2915 276.508C78.0741 275.72 77.1937 274.723 76.6503 273.519C76.0921 272.319 75.9005 271.012 76.0753 269.6C76.2502 268.188 76.7858 266.788 77.6823 265.399C77.9483 264.986 78.1366 264.714 78.247 264.583L88.5455 271.257C89.1364 270.203 89.4883 269.186 89.6014 268.204C89.7144 267.222 89.5922 266.33 89.2349 265.526C88.8685 264.717 88.2781 264.048 87.4635 263.52C86.461 262.87 85.4605 262.572 84.4621 262.624C83.4637 262.676 82.624 263.072 81.9429 263.813L79.7408 262.386C80.4298 261.574 81.2847 260.997 82.3055 260.654C83.3206 260.32 84.3984 260.244 85.5391 260.423C86.6708 260.598 87.7647 261.027 88.821 261.711C90.0742 262.524 90.9891 263.555 91.5657 264.806C92.1423 266.057 92.3377 267.416 92.1519 268.884C91.966 270.353 91.4075 271.809 90.4763 273.252ZM79.2258 267.905C78.7232 268.723 78.4395 269.556 78.3748 270.404C78.3012 271.246 78.4425 272.031 78.7988 272.757C79.1461 273.478 79.6868 274.076 80.4208 274.552C81.5576 275.289 82.7228 275.529 83.9163 275.273C85.1098 275.017 86.2228 274.295 87.2551 273.109L79.2258 267.905Z" fill="#1F232E"/>
<path d="M76.1967 252.603C77.1967 253.468 77.8857 254.523 78.2637 255.767C78.6337 257.005 78.6253 258.338 78.2387 259.767C77.8451 261.203 77.0459 262.621 75.8411 264.019C74.6642 265.384 73.398 266.355 72.0425 266.931C70.687 267.507 69.3751 267.697 68.1068 267.502C66.8234 267.308 65.6898 266.786 64.7059 265.934C64.0204 265.34 63.4971 264.641 63.1359 263.834C62.7598 263.029 62.5506 262.234 62.5084 261.45C62.4662 260.666 62.5646 259.996 62.8035 259.441L55.9822 267.355L54.0103 265.648L69.7109 247.433L71.6828 249.14L69.2697 251.939C69.8525 251.541 70.5556 251.289 71.3789 251.183C72.1941 251.071 73.0335 251.134 73.8971 251.374C74.7527 251.607 75.5192 252.016 76.1967 252.603ZM74.2806 254.139C73.6596 253.602 72.8616 253.278 71.8865 253.167C70.9114 253.057 69.9199 253.186 68.9119 253.555C67.9039 253.924 67.0447 254.521 66.3343 255.345L65.8643 255.89C65.1957 256.666 64.7555 257.569 64.5437 258.598C64.325 259.636 64.341 260.631 64.5918 261.582C64.8426 262.532 65.2865 263.283 65.9236 263.835C66.6495 264.463 67.4548 264.836 68.3397 264.953C69.2246 265.07 70.1417 264.904 71.0911 264.457C72.0324 264.002 72.9453 263.261 73.8297 262.235C74.7072 261.217 75.3055 260.204 75.6247 259.197C75.9289 258.19 75.9624 257.253 75.7252 256.385C75.4879 255.516 75.0064 254.768 74.2806 254.139Z" fill="#1F232E"/>
<path d="M58.8446 235.222C59.5834 236.16 60.0625 237.114 60.2818 238.083C60.4946 239.043 60.4472 239.957 60.1397 240.826C59.8322 241.694 59.2684 242.453 58.4483 243.101C57.6114 243.762 56.7143 244.131 55.7568 244.208C54.791 244.292 53.833 244.083 52.883 243.583C51.9265 243.075 51.0458 242.309 50.241 241.287L47.1242 237.326L46.3585 237.931C45.3961 238.692 44.8764 239.558 44.7995 240.53C44.7077 241.5 45.0608 242.492 45.859 243.506C46.6637 244.529 47.5472 245.142 48.5093 245.347C49.4714 245.552 50.3792 245.317 51.2328 244.643L52.8655 246.717C51.9784 247.419 51.0178 247.811 49.9837 247.894C48.9413 247.983 47.9085 247.766 46.8855 247.242C45.8541 246.725 44.9228 245.938 44.0917 244.882C43.2539 243.818 42.7175 242.739 42.4824 241.647C42.2473 240.555 42.3214 239.511 42.7047 238.514C43.0796 237.525 43.7482 236.65 44.7106 235.889L53.5103 228.935L55.1232 230.984L52.8887 232.75C54.0095 232.639 55.1092 232.803 56.1878 233.243C57.2598 233.673 58.1454 234.333 58.8446 235.222ZM56.7305 241.073C57.1991 240.703 57.5351 240.267 57.7384 239.767C57.9268 239.264 57.9696 238.741 57.8671 238.197C57.7579 237.644 57.5054 237.116 57.1096 236.613C56.4961 235.834 55.7223 235.255 54.788 234.879C53.8538 234.502 52.8987 234.367 51.9227 234.472C50.9384 234.584 50.0696 234.937 49.3164 235.532L48.7892 235.949L51.7081 239.658C52.5393 240.715 53.3916 241.366 54.2652 241.614C55.1388 241.862 55.9606 241.681 56.7305 241.073Z" fill="#1F232E"/>
<path d="M49.6013 222.35C50.1301 223.189 50.3739 224.076 50.3326 225.011C50.2766 225.943 49.6267 226.802 48.3828 227.589L38.9185 233.578L40.2747 235.73L38.3684 236.937L37.0122 234.784L33.0507 237.291L31.6604 235.085L35.6219 232.578L33.8477 229.762L35.7541 228.556L37.5282 231.372L46.5328 225.674C47.0556 225.343 47.3977 225.025 47.5591 224.721C47.7205 224.417 47.7747 224.143 47.7217 223.899C47.654 223.651 47.5292 223.383 47.3472 223.094C47.1539 222.788 46.9155 222.509 46.632 222.259C46.3429 222.001 46.0992 221.814 45.901 221.7L47.8345 220.476C48.0303 220.567 48.3012 220.787 48.6472 221.136C48.9932 221.485 49.3112 221.889 49.6013 222.35Z" fill="#1F232E"/>
<path d="M20.9184 221.051L19.897 218.651L32.4319 213.293L23.3962 208.856L22.0302 205.646L30.4747 209.675L37.6798 199.026L38.8515 201.779L32.7251 210.836L35.2567 212.086L42.0096 209.199L43.031 211.599L20.9184 221.051Z" fill="#1F232E"/>
<path d="M35.9634 193.423L36.7478 195.91L13.8223 203.172L13.0379 200.684L35.9634 193.423Z" fill="#1F232E"/>
<path d="M18.0392 192.653L17.4091 190.122L33.8935 186L34.5237 188.531L18.0392 192.653ZM12.0166 194.159L11.3865 191.628L14.7237 190.793L15.3538 193.324L12.0166 194.159Z" fill="#1F232E"/>
<path d="M9.04047 185.826L8.64546 183.248L22.1189 181.175L14.4634 174.631L13.9351 171.183L21.1189 177.184L30.7391 168.662L31.1923 171.619L23.0118 178.868L25.1551 180.707L32.4137 179.59L32.8087 182.168L9.04047 185.826Z" fill="#1F232E"/>
<path d="M6.46045 167.051L6.39187 164.444L20.0191 164.084L13.2447 156.628L13.153 153.142L19.5275 160L30.1408 152.757L30.2194 155.748L21.1943 161.908L23.09 164.003L30.4315 163.809L30.5001 166.416L6.46045 167.051Z" fill="#1F232E"/>
<path d="M21.5884 151.491C19.8688 151.321 18.377 150.851 17.1129 150.083C15.8488 149.315 14.9071 148.321 14.2876 147.102C13.6586 145.872 13.4173 144.513 13.5638 143.027C13.706 141.584 14.1872 140.345 15.0072 139.311C15.8176 138.266 16.89 137.499 18.2245 137.009C19.5589 136.519 21.0488 136.356 22.6941 136.519C23.1824 136.567 23.5104 136.61 23.6781 136.648L22.4746 148.861C23.6814 148.906 24.7467 148.754 25.6707 148.406C26.5946 148.058 27.3315 147.541 27.8813 146.856C28.4322 146.16 28.7552 145.329 28.8504 144.363C28.9676 143.174 28.774 142.148 28.2697 141.283C27.7654 140.419 27.028 139.853 26.0576 139.585L26.3149 136.974C27.3522 137.216 28.2572 137.713 29.0298 138.464C29.7919 139.215 30.3546 140.139 30.7181 141.236C31.0827 142.323 31.2032 143.492 31.0798 144.745C30.9333 146.231 30.4369 147.516 29.5904 148.601C28.744 149.685 27.626 150.48 26.2363 150.986C24.8467 151.492 23.2974 151.66 21.5884 151.491ZM21.1757 139.038C20.2183 138.964 19.3482 139.093 18.5654 139.422C17.7837 139.742 17.1518 140.226 16.6698 140.875C16.1889 141.513 15.9056 142.268 15.8198 143.138C15.6869 144.486 16.008 145.633 16.7831 146.578C17.5582 147.523 18.7096 148.183 20.2374 148.559L21.1757 139.038Z" fill="#1F232E"/>
<path d="M26.6502 114.571C25.1488 114.119 23.9028 114.078 22.9121 114.448C21.9142 114.804 21.2452 115.55 20.905 116.684C20.6598 117.501 20.7114 118.369 21.0596 119.287C21.4109 120.195 21.9941 121.017 22.8091 121.752C23.6139 122.485 24.5371 123.008 25.5789 123.322L33.7138 125.772L32.9646 128.27L9.93856 121.334L10.6878 118.836L20.7225 121.859C20.1587 121.511 19.6889 120.98 19.3131 120.265C18.9301 119.537 18.6916 118.735 18.5977 117.86C18.5038 116.985 18.5733 116.16 18.8062 115.383C19.1464 114.249 19.703 113.358 20.4762 112.711C21.2423 112.051 22.1835 111.66 23.2998 111.54C24.4192 111.409 25.6734 111.553 27.0624 111.971L36.9592 114.953L36.2099 117.451L26.6502 114.571Z" fill="#1F232E"/>
<path d="M30.1834 108.234C28.6137 107.512 27.3566 106.581 26.4121 105.441C25.4676 104.302 24.901 103.055 24.7124 101.7C24.5186 100.331 24.7328 98.9675 25.355 97.61C25.9594 96.2912 26.8173 95.277 27.9287 94.5674C29.0349 93.8436 30.2982 93.4681 31.7187 93.4409C33.1393 93.4137 34.6004 93.7458 36.1023 94.4371C36.548 94.6422 36.844 94.7902 36.9901 94.8809L31.8769 106.037C33.0029 106.473 34.0592 106.677 35.0456 106.65C36.032 106.623 36.8966 106.375 37.6393 105.906C38.3864 105.428 38.9622 104.748 39.3666 103.866C39.8644 102.78 40.0157 101.746 39.8206 100.763C39.6254 99.7811 39.1128 99.005 38.2828 98.435L39.3761 96.0497C40.2776 96.6173 40.9711 97.3827 41.4565 98.3459C41.9323 99.3047 42.1634 100.362 42.1498 101.518C42.1405 102.665 41.8737 103.81 41.3493 104.954C40.7271 106.312 39.8395 107.365 38.6865 108.115C37.5335 108.864 36.218 109.251 34.7402 109.275C33.2624 109.299 31.7434 108.952 30.1834 108.234ZM33.8475 96.323C32.9665 95.941 32.1025 95.7781 31.2553 95.8344C30.4126 95.881 29.6579 96.1325 28.9911 96.5888C28.3288 97.0354 27.8154 97.6563 27.451 98.4515C26.8866 99.6829 26.8168 100.872 27.2416 102.019C27.6665 103.165 28.5396 104.166 29.8609 105.021L33.8475 96.323Z" fill="#1F232E"/>
<path d="M31.1573 86.5038L32.4937 84.2643L35.9385 86.3287C35.4991 85.941 35.1397 85.3463 34.8603 84.5447C34.5718 83.7376 34.445 82.8782 34.4798 81.9664C34.5055 81.0491 34.7342 80.2287 35.166 79.505C35.4284 79.0654 35.6965 78.741 35.9702 78.532L38.1249 79.8233C37.9042 80.0268 37.679 80.3209 37.4494 80.7056C36.9247 81.5849 36.6953 82.5418 36.7612 83.5761C36.818 84.605 37.1526 85.5951 37.7649 86.5465C38.3772 87.4979 39.2048 88.2862 40.2479 88.9113L47.0688 92.999L45.7323 95.2386L31.1573 86.5038Z" fill="#1F232E"/>
<path d="M48.1223 79.9627L46.5082 82.2702L33.1828 72.9875L34.8702 70.5751L48.1223 79.9627ZM53.1904 83.4643L50.2053 81.3673L48.5454 83.7404L51.5305 85.8374L53.1904 83.4643Z" fill="#1F232E"/>
</svg>
