<svg width="263" height="160" viewBox="0 0 263 160" fill="none" xmlns="http://www.w3.org/2000/svg">
<path d="M2 4.93971C13.785 4.93971 25.5699 4.93971 37.3549 4.93971C52.205 4.93971 67.4733 3.40887 80.6299 11.5534C86.9208 15.4478 94.2294 18.7518 101.124 21.4332C108.615 24.3464 115.806 27.618 123.007 31.2313C134.206 36.8512 152.992 42.7893 161.383 52.7055C170.043 62.9407 177.385 74.0689 184.98 85.0393C190.163 92.5264 195.595 99.6941 201.882 106.35C204.964 109.614 208.982 114.02 211.027 118.108C213.814 123.683 207.594 112.42 206.617 110.759C183.371 71.24 142.038 44.5152 104.227 20.4534C95.5271 14.917 84.2579 7.86592 74.0162 4.93971C63.4153 1.91089 53.9945 2.00028 42.4172 2.00028C31.9032 2.00028 24.6666 2.83297 15.2275 7.55254C13.6151 8.35873 21.144 9.68594 22.576 10.0837C30.4513 12.2713 38.3028 14.0572 46.0915 16.6975C60.0792 21.439 73.2913 28.303 87.2436 32.8643C104.125 38.3833 121.349 43.0736 135.744 53.767C142.612 58.8688 149.156 64.5423 155.994 69.6073C158.986 71.8234 162.22 75.5652 164.404 78.5889C167.024 82.217 171.475 84.9901 173.63 88.7136C178.146 96.513 185.965 102.191 192.328 108.555C195.507 111.733 199.033 113.813 201.882 117.373C205.395 121.765 214.366 115.017 218.457 112.801C225.126 109.188 229.945 104.125 236.338 100.471C240.408 98.1456 226.856 103.425 223.927 107.085C219.345 112.813 212.789 117.381 207.026 121.864C198.125 128.787 191.41 137.382 183.918 145.706C182.925 146.809 177.633 153.525 180.162 148.972C183.2 143.504 190.306 139.517 193.39 134.275C196.892 128.322 205.464 117.157 211.516 113.699C219.112 109.359 224.646 99.5769 233.481 97.6136C236.018 97.0497 240.699 94.403 242.707 92.7962C247.653 88.8392 245.204 98.0064 246.3 100.471C248.262 104.886 249.593 109.351 251.525 113.699C253.233 117.54 251.874 122.933 253.648 126.926C255.41 130.891 264.601 157.082 259.201 154.524C247.656 149.056 237.19 146.758 224.581 143.42C214.421 140.73 205.953 140.154 195.268 140.154C193.063 140.154 190.859 140.154 188.654 140.154C187.121 140.154 193.762 140.372 195.105 140.889C200.508 142.967 206.486 143.547 212.088 145.298C217.084 146.859 222.435 147.906 227.602 149.054C229.45 149.465 237.671 152.924 238.625 154.116C242.103 158.464 260.67 161.004 260.67 154.034C260.67 147.174 256.361 140.378 253.648 134.275C251.735 129.97 252.573 125.243 250.709 121.047C247.887 114.697 248.171 103.486 243.36 98.675C236.677 91.9919 211.908 118.37 207.597 122.68C203.8 126.478 199.649 131.016 197.146 135.745C195.055 139.695 188.654 141.529 188.654 146.033" stroke="#9B0823" stroke-width="3" stroke-linecap="round"/>
</svg>
