<svg width="157" height="95" viewBox="0 0 157 95" fill="none" xmlns="http://www.w3.org/2000/svg">
<path d="M10.0675 12.5619C3.83733 18.0999 2.01805 25.9775 2.01805 34.4105C2.01805 40.4456 5.32128 41.2449 10.0675 43.3544C13.8656 45.0424 21.6019 42.4161 23.8667 39.5852C25.5055 37.5366 26.1665 38.8635 26.1665 35.3049C26.1665 32.2515 26.653 29.1229 25.2721 26.361C23.5651 22.9469 20.3188 17.2157 16.3282 16.0756C9.41912 14.1015 8.53983 15.3099 4.57344 19.717C1.61901 22.9997 2.01805 28.5947 2.01805 32.6856C2.01805 37.8489 7.93908 37.9974 10.9619 40.4157C20.542 48.0798 21.5668 28.8379 21.5668 24.0612C21.5668 21.556 21.4322 20.0211 20.4169 17.7366C19.3657 15.3715 16.5791 15.4713 18.692 17.1616C20.2936 18.4429 21.5668 26.5042 21.5668 28.6609C21.5668 31.8958 40.6104 32.1107 44.5653 32.1107C48.9308 32.1107 53.2963 32.1107 57.6617 32.1107C59.1701 32.1107 53.8484 31.3168 53.7647 29.8108C53.6112 27.0477 55.6911 26.9821 57.4701 28.4053C58.8948 29.5451 64.1609 21.31 61.8781 29.2997C61.3662 31.0915 70.3467 32.0097 72.1636 32.1107C73.0976 32.1625 76.9894 34.4057 75.6133 32.6856C74.3402 31.0941 73.5078 29.5127 73.2496 27.4471C72.9018 24.6645 67.2577 15.679 70.1193 12.8174C73.9076 9.02906 89.6393 8.44139 93.1178 12.3064C95.3821 14.8223 97.462 17.6225 97.462 21.1863C97.462 23.3693 97.6208 24.5412 96.0565 26.1055C94.8385 27.3235 91.8829 28.6609 95.1621 28.6609C99.8635 28.6609 106.174 29.8679 110.622 28.597C111.889 28.2349 111.401 25.2111 113.561 25.2111C115.35 25.2111 115.948 27.5109 118.161 27.5109C122.575 27.5109 125.772 28.6609 130.235 28.6609C132.343 28.6609 134.451 28.6609 136.559 28.6609C140.349 28.6609 137.821 27.1135 137.709 25.2111C137.255 17.4839 137.758 5.09414 149.209 11.1564C155.775 14.6327 153.457 31.3125 149.209 35.5604C141.813 42.9556 143.459 19.1309 143.459 16.0117C143.459 7.5834 154.958 17.3799 154.958 22.3363C154.958 26.7184 155.216 31.187 154.958 35.5604C154.741 39.2548 149.589 42.0532 146.334 39.5213C142.963 36.8999 143.574 29.8108 138.859 29.8108C129.955 29.8108 121.004 30.9607 112.411 30.9607C108.299 30.9607 103.195 31.7875 99.1868 30.8968C92.5521 29.4225 93.1863 30.2283 92.8622 36.7104C92.6957 40.0407 90.155 42.2811 89.4763 45.3348C89.0068 47.4479 89.4125 50.0705 89.4125 52.2344C89.4125 56.8201 90.5624 60.7993 90.5624 65.4585C90.5624 75.135 96.3988 81.4654 100.017 89.607C103.947 98.4481 99.324 87.4611 98.0369 83.8573C96.436 79.3748 93.2934 75.4164 90.8179 71.2082C86.6608 64.1411 75.4164 80.4132 72.1636 83.8573C70.7924 85.3092 68.7138 88.1808 68.7138 90.1819C68.7138 95.1064 69.0768 88.8358 70.3748 86.796C72.6635 83.1995 75.3562 77.5649 80.2131 76.9578C82.251 76.703 88.2625 72.7953 88.2625 70.6332C88.2625 64.4734 83.6628 59.0861 83.6628 52.8093C83.6628 48.0636 85.5911 46.8827 82.5129 43.035C80.1917 40.1335 77.3019 36.7379 74.719 34.155C69.4786 28.9146 74.0167 36.0081 76.2522 37.9242C78.7828 40.0933 82.12 46.02 82.5129 49.3596C82.7581 51.4434 89.1861 57.6482 88.1987 51.7233C87.2613 46.0992 85.9627 41.8672 85.9627 35.816C85.9627 27.1972 83.6628 41.7447 83.6628 38.4352C83.6628 33.3839 81.1118 33.9753 78.1687 30.7052C75.0388 27.2275 82.8859 31.7144 83.6628 32.6856C86.4259 36.1394 91.0191 29.5824 92.8622 28.6609" stroke="#9B0823" stroke-width="3" stroke-linecap="round"/>
<path d="M68.9653 6.69384C68.9186 6.31988 67.5533 5.46318 67.2535 5.16337C66.9316 4.8415 66.5141 4.44427 66.3125 4.04102" stroke="#9B0823" stroke-width="3" stroke-linecap="round"/>
<path d="M72.4346 2V4.44876" stroke="#9B0823" stroke-width="3" stroke-linecap="round"/>
<path d="M91.8202 6.69306C91.7633 6.12362 91.4121 5.58337 91.4121 5.06055" stroke="#9B0823" stroke-width="3" stroke-linecap="round"/>
<path d="M95.0859 7.91797H96.7184" stroke="#9B0823" stroke-width="3" stroke-linecap="round"/>
<path d="M82.8062 24.4326C82.3464 24.4326 81.9266 25.4687 82.3811 25.4954C82.9387 25.5282 83.4057 25.5145 83.869 25.2829" stroke="#9B0823" stroke-width="3" stroke-linecap="round"/>
<path d="M76.2168 18.4804C76.2168 17.4767 77.808 17.2051 78.555 17.2051C79.1774 17.2051 79.6759 17.3532 80.2554 17.4176C80.6659 17.4632 80.9445 18.081 81.3182 18.2679" stroke="#9B0823" stroke-width="3" stroke-linecap="round"/>
<path d="M86.207 18.693C87.1298 18.693 89.7144 17.8429 90.2457 18.9056" stroke="#9B0823" stroke-width="3" stroke-linecap="round"/>
<path d="M84.4453 25.1895H85.0461" stroke="#9B0823" stroke-width="3" stroke-linecap="round"/>
<path d="M89.9727 17.1388C90.1936 17.1388 90.5092 16.9013 90.6936 16.7783" stroke="#9B0823" stroke-width="3" stroke-linecap="round"/>
<path d="M76.1545 17.0188C75.8933 16.9862 75.4537 16.388 75.3135 16.1777" stroke="#9B0823" stroke-width="3" stroke-linecap="round"/>
</svg>
