<svg width="1564" height="237" viewBox="0 0 1564 237" fill="none" xmlns="http://www.w3.org/2000/svg">
<path d="M25.6053 135.349C26.7676 126.05 44.2967 121.038 48.5585 113.793C55.3829 102.191 73.3679 96.0277 83.0881 86.8476C94.5365 76.0352 110.271 70.8432 124.404 64.8923C142.38 57.3236 165.515 53.1475 184.881 50.5216C206.776 47.5527 228.004 45.5318 250.148 45.5318C267.579 45.5318 284.699 52.0445 300.445 59.5033C320.736 69.1148 338.989 79.0033 357.03 93.035C366.233 100.193 375.876 114.429 386.669 118.283C397.814 122.264 408.923 127.209 418.105 134.351C422.575 137.827 428.052 140.091 432.476 143.532C439.165 148.735 443.352 146.357 451.238 148.821C462.566 152.361 473.578 154.754 483.671 160.098C524.627 181.781 573.814 198.397 621.091 183.85C640.353 177.923 667.892 164.993 680.47 148.821C684.109 144.142 691.75 136.973 697.436 135.349C698.784 134.963 705.423 133.766 706.018 132.754C707.56 130.133 708.387 126.588 710.908 124.571C716.986 119.708 724.924 109.97 729.77 103.913C734.449 98.0633 744.566 90.6086 750.428 86.0492C754.586 82.8148 758.194 76.4102 763.002 74.2732C768.992 71.611 773.093 67.5374 779.269 65.2915C785.206 63.1326 792.243 60.2214 797.132 56.3098C804.375 50.5161 815.021 49.5438 822.281 43.7355C831.939 36.0092 841.329 34.2238 851.921 29.7639C861.988 25.5251 876.847 27.5684 887.847 27.5684C899.356 27.5684 908.092 29.7355 918.385 35.153C929.024 40.7521 941.755 48.3413 950.719 56.3098C956.906 61.809 967.143 66.1535 975.07 68.485C980.436 70.0633 984.421 74.2348 989.341 76.9677C1001.21 83.5641 1011.96 88.8099 1021.67 98.5238C1028.02 104.866 1034.86 109.889 1042.33 114.691C1050.16 119.723 1060.77 122.436 1066.68 129.96C1078.37 144.834 1101.4 160.497 1120.37 160.497C1134.07 160.497 1147.23 157.708 1160.89 156.905C1177.42 155.933 1193.12 134.432 1207.6 126.766C1220.02 120.19 1232.93 107.842 1243.12 98.0248C1251.85 89.6221 1264.6 79.4671 1275.46 74.2732C1285.18 69.6247 1292.24 60.0685 1301.01 54.9127C1312.22 48.3179 1322.71 39.0999 1335.53 35.153C1342.34 33.0595 1350.89 29.6315 1358.09 29.3648C1365.78 29.0799 1372.55 24.3921 1380.04 23.9757C1386.25 23.6309 1392.9 18.6912 1399.4 20.7823C1408.51 23.7103 1417.78 28.8067 1427.55 29.3648C1440.93 30.1295 1452.54 36.7077 1463.57 42.8373C1472.64 47.8723 1479.45 57.448 1488.72 62.597C1496.39 66.8578 1510.9 73.4762 1516.57 80.5604C1526.05 92.4161 1531.66 105.029 1539.02 118.283C1544.75 128.595 1547.14 140.381 1552.09 151.516C1555.64 159.49 1553.01 176.929 1552.49 185.646C1552.03 193.503 1541.64 202.731 1537.72 208.999C1530.46 220.623 1518.25 223.369 1505.39 223.369C1493.57 223.369 1485.37 215.184 1474.85 211.194C1464.09 207.112 1453.35 205.552 1442.12 203.51C1432.96 201.845 1424.28 198.025 1415.07 196.424C1409.87 195.52 1395.95 192.244 1392.52 188.241C1387.55 182.442 1381.97 178.238 1377.25 172.174C1373.47 167.316 1368.46 159.982 1363.08 156.905C1345.16 146.668 1329.95 129.163 1311.78 120.08C1293.49 110.931 1276.97 99.6131 1257.09 93.9331C1235.62 87.7966 1215.42 73.9636 1195.22 64.4931C1183.73 59.1082 1170.41 51.8474 1159.99 44.6336C1153.39 40.0639 1147.71 34.152 1142.03 28.4666C1139.11 25.5476 1135.05 16.7904 1131.25 16.7904C1127.38 16.7904 1123.62 14.7199 1119.97 13.5969C1115.43 12.1995 1109.84 13.0884 1105.1 12.2995C1093.76 10.409 1081.76 11.4014 1070.28 11.4014C1056.78 11.4014 1041.64 19.7046 1033.35 30.7619C1029.68 35.6568 1021.99 37.9318 1017.58 42.3383C1014.01 45.9076 1011.76 53.5453 1009.6 58.1062C1001.01 76.2315 1000.91 96.609 993.831 115.19C990.362 124.298 986.101 132.461 979.061 139.341C970.973 147.245 960.449 151.71 952.815 160.298C950.243 163.192 952.237 166.684 950.32 169.08C937.967 184.521 926.248 201.136 911.998 215.386C892.766 234.618 863.4 236.051 837.35 234.047C799.658 231.148 754.593 198.082 743.142 162.094C741.01 155.391 737.2 148.244 736.955 141.137C736.792 136.399 736.221 133.135 732.364 129.96C722.59 121.91 716.901 109.058 708.513 99.6215C690.28 79.109 657.17 61.9849 631.37 53.1163C602.399 43.1576 567.994 43.7355 537.562 43.7355C517.523 43.7355 493.553 47.5017 476.087 58.1062C470.334 61.5989 462.692 62.3963 457.724 67.0879C449.746 74.6226 441.073 80.7185 433.374 88.6439C423.226 99.0899 414.138 110.649 401.04 117.385C390.34 122.888 378.507 127.508 368.307 133.552C347.567 145.843 328.039 161.939 305.435 171.275C280.624 181.523 256.921 194.256 231.785 203.61C223.014 206.873 212.515 210.795 203.044 210.795C190.085 210.795 177.671 215.834 164.722 216.184C139.668 216.861 113.305 215.868 89.4751 207.202C80.0815 203.786 75.6832 201.903 68.6176 195.426C62.1991 189.543 58.2323 181.381 52.6502 174.868C44.6844 165.575 28.4792 155.916 25.7051 143.432C18.8571 112.616 56.9083 90.048 82.6889 84.652C117.428 77.3811 151.638 67.2695 186.477 60.3017C210.703 55.4566 237.699 56.3098 262.323 56.3098C279.012 56.3098 292.024 68.9669 307.63 74.2732C320.19 78.5434 333.377 82.9882 345.353 88.6439C354.568 92.9954 363.179 93.4758 371.301 100.121C382.944 109.647 401.193 115.12 415.411 119.182C422.495 121.206 429.325 125.473 436.068 128.263C450.191 134.107 463.88 141.215 478.083 147.025C490.11 151.945 502.119 157.361 513.511 163.392C524.498 169.208 536.489 170.678 548.34 173.97C567.076 179.174 587.743 181.884 605.822 188.341C615.711 191.872 634.131 190.695 644.244 189.139C655.966 187.336 667.408 167.687 673.185 158.701C681.383 145.948 687.667 136.136 698.334 125.469C713.152 110.651 730.998 99.2504 746.835 85.8496C755.062 78.8883 765.694 70.2566 776.674 68.8842C795.628 66.515 814.843 59.9025 833.957 59.9025C856.246 59.9025 892.942 54.3442 911.2 70.6805C919.071 77.7233 935.641 83.1575 945.729 85.4504C961.676 89.0745 977.325 94.005 993.432 97.2264C1014.09 101.358 1031.55 107.201 1048.92 119.182C1060.69 127.3 1069.66 137.163 1083.25 142.534C1098.29 148.481 1118 148.283 1134.05 149.62C1146.99 150.698 1159.67 151.516 1172.67 151.516C1178.51 151.516 1188.94 153.497 1194.12 150.618C1201.5 146.52 1206.07 141.201 1211.29 134.351C1217.78 125.827 1226.26 120.079 1233.54 112.795C1247.52 98.821 1256.61 80.4406 1273.36 68.7844C1286.15 59.8857 1299.83 52.2393 1313.48 44.7334C1323.48 39.2353 1333.88 40.3015 1344.92 38.3464C1359.14 35.8268 1373.28 31.8473 1387.63 29.7639C1410.18 26.4909 1432.2 33.8803 1454.09 38.7456C1475.9 43.5906 1499.62 55.4842 1513.77 72.8761C1534.47 98.2998 1560.16 128.466 1561.47 162.693C1562.01 176.653 1564.39 194.776 1557.48 207.202C1548.04 224.19 1521.76 225.166 1504.99 225.166C1487.95 225.166 1470.61 223.369 1454.09 223.369C1437.39 223.369 1421.54 225.013 1406.09 217.88C1384.13 207.745 1368.53 188.254 1345.91 178.561C1337.69 175.037 1326.65 170.958 1317.97 169.379C1309.41 167.823 1301.45 162.166 1292.82 160.597C1278.36 157.968 1267.77 147.565 1256.99 138.941C1252.99 135.74 1251.05 129.496 1247.91 125.469C1241.99 117.85 1228.74 107.31 1227.36 97.6256C1226.28 90.0997 1229.02 82.3804 1225.56 75.2712C1218.39 60.5348 1208.16 49.2206 1195.42 39.1448C1171.51 20.2359 1148.81 9.49118 1119.18 3.81684C1106.4 1.37057 1093.03 2.41969 1080.06 2.41969C1069.35 2.41969 1058.25 0.979851 1051.31 11.0022C1044.56 20.7598 1038.74 36.3482 1038.74 48.2263C1038.74 57.4046 1027.25 63.7683 1024.37 71.6785C1020.92 81.1663 1009.56 90.9532 1003.81 99.3221C991.792 116.805 974.978 132.388 961.298 148.023C954.931 155.299 947.675 161.862 941.738 169.479C935.691 177.237 933.67 178.105 925.571 181.255C914.799 185.444 905.394 191.599 894.035 194.628C868.727 201.377 849.715 219.804 822.181 221.473C800.704 222.775 791.352 217.217 775.477 203.61C765.723 195.25 756.545 180.324 751.326 168.581C738.517 139.762 705.07 122.85 682.267 104.013C670.169 94.0187 657.45 80.4269 643.346 73.375C626.755 65.0796 605.875 65.2317 587.959 62.597C572.124 60.2683 557.281 58.1062 541.254 58.1062C528.599 58.1062 518.705 66.473 507.024 67.0879C486.048 68.1919 464.92 84.312 445.549 92.2366C427.74 99.5222 413.641 109.616 402.836 124.97C397.028 133.224 387.266 140.563 379.085 146.526C357.562 162.212 334.119 173.224 308.828 181.654C297.913 185.293 287.606 185.884 276.294 187.842C259.59 190.733 241.96 192.831 224.999 192.831C198.986 192.831 170.842 204.723 145.062 199.119C128.574 195.534 112.881 193.827 98.4568 184.648C86.4846 177.03 74.1976 171.475 63.2286 162.194C56.2072 156.253 44.5013 147.859 39.976 139.939C34.7845 130.854 11.1192 135.349 2.25293 135.349" stroke="#9B0823" stroke-width="3" stroke-linecap="round"/>
</svg>
